# Blender v2.69 (sub 0) OBJ File: ''
# www.blender.org
o 5tetra
v 1.000000 1.000000 1.000000
v 0.236100 0.236100 1.000000
v 0.000000 0.382000 0.618000
v 0.382000 0.618000 0.763900
v 0.236100 1.000000 0.236100
v 0.000000 1.618000 0.618000
v 0.000000 0.854100 0.618000
v -0.618000 0.763900 0.382000
v -1.000000 1.000000 1.000000
v -0.382000 0.618000 0.763900
v -0.618000 -0.000000 0.854100
v -0.618000 -0.000000 1.618000
v -0.236100 0.236100 1.000000
v 0.236100 -0.236100 1.000000
v 0.618000 -0.000000 1.618000
v 0.763900 0.382000 0.618000
v 1.618000 0.618000 0.000000
v 0.618000 0.763900 0.382000
v 0.382000 0.618000 0.000000
v 0.854100 0.618000 0.000000
v 0.763900 0.382000 -0.618000
v 1.000000 1.000000 -1.000000
v 0.618000 0.763900 -0.382000
v 0.000000 0.854100 -0.618000
v 0.000000 1.618000 -0.618000
v 0.236100 1.000000 -0.236100
v -0.236100 1.000000 0.236100
v 1.000000 -1.000000 1.000000
v 0.618000 -0.000000 0.854100
v 0.618000 -0.000000 0.382000
v 0.763900 -0.382000 0.618000
v 0.854100 -0.618000 -0.000000
v 1.618000 -0.618000 -0.000000
v 1.000000 -0.236100 0.236100
v 1.000000 0.236100 -0.236100
v 1.000000 -1.000000 -1.000000
v 0.236100 -0.236100 -1.000000
v 0.000000 -0.382000 -0.618000
v 0.382000 -0.618000 -0.763900
v 0.236100 -1.000000 -0.236100
v 0.000000 -1.618000 -0.618000
v 0.000000 -0.854100 -0.618000
v -0.618000 -0.763900 -0.382000
v -1.000000 -1.000000 -1.000000
v -0.382000 -0.618000 -0.763900
v -0.618000 0.000000 -0.854100
v -0.618000 0.000000 -1.618000
v -0.236100 -0.236100 -1.000000
v 0.236100 0.236100 -1.000000
v 0.618000 0.000000 -1.618000
v 0.763900 -0.382000 -0.618000
v 0.000000 -1.618000 0.618000
v 0.618000 -0.763900 0.382000
v 0.382000 -0.618000 -0.000000
v 0.236100 -1.000000 0.236100
v -0.236100 -1.000000 -0.236100
v -1.000000 1.000000 -1.000000
v -0.236100 0.236100 -1.000000
v 0.000000 0.382000 -0.618000
v -0.382000 0.618000 -0.763900
v -0.236100 1.000000 -0.236100
v -1.618000 0.618000 0.000000
v -0.618000 0.763900 -0.382000
v -0.382000 0.618000 0.000000
v -0.854100 0.618000 0.000000
v -0.763900 0.382000 0.618000
v -1.618000 -0.618000 -0.000000
v -0.763900 -0.382000 -0.618000
v -0.618000 0.000000 -0.382000
v -1.000000 -0.236100 -0.236100
v -1.000000 0.236100 0.236100
v -1.000000 -1.000000 1.000000
v -0.236100 -0.236100 1.000000
v 0.000000 -0.382000 0.618000
v -0.382000 -0.618000 0.763900
v -0.236100 -1.000000 0.236100
v 1.000000 0.236100 0.236100
v -0.618000 -0.000000 0.382000
v -0.763900 -0.382000 0.618000
v 0.382000 -0.618000 0.763900
v 0.618000 0.000000 -0.382000
v 0.382000 0.618000 -0.763900
v 0.618000 0.000000 -0.854100
v 0.000000 -0.854100 0.618000
v 1.000000 -0.236100 -0.236100
v 0.618000 -0.763900 -0.382000
v -0.382000 -0.618000 -0.000000
v -0.854100 -0.618000 -0.000000
v -0.763900 0.382000 -0.618000
v -1.000000 0.236100 -0.236100
v -1.000000 -0.236100 0.236100
v -0.618000 -0.763900 0.382000
vn -0.934181 -0.356799 -0.000000
vn 0.577335 0.577259 0.577457
vn 0.356799 -0.000000 0.934181
vn 0.000000 0.934181 -0.356798
vn 0.934181 -0.356799 -0.000000
vn -0.577457 0.577335 -0.577259
vn 0.000000 0.934181 0.356799
vn -0.577259 0.577457 0.577335
vn 0.934181 0.356799 0.000000
vn 0.577259 0.577457 -0.577335
vn 0.356799 0.000000 -0.934181
vn 0.577335 -0.577259 -0.577457
vn -0.577457 -0.577335 -0.577259
vn -0.577457 -0.577335 0.577259
vn -0.934181 0.356799 0.000000
vn 0.577259 -0.577457 0.577335
vn -0.356799 -0.000000 0.934181
vn -0.356799 0.000000 -0.934181
vn -0.577457 0.577335 0.577259
vn 0.000000 -0.934181 -0.356799
vn 0.577259 0.577457 0.577335
vn 0.577457 0.577335 0.577259
vn 0.577457 -0.577335 -0.577259
vn -0.577335 -0.577259 -0.577457
vn 0.577259 -0.577457 -0.577335
vn -0.577259 -0.577457 0.577335
vn 0.577457 -0.577335 0.577259
vn -0.356798 -0.000000 0.934181
vn -0.000000 -0.934181 0.356798
vn -0.577259 0.577457 -0.577335
vn 0.577457 0.577335 -0.577259
vn 0.000000 -0.934182 0.356798
vn -0.356798 0.000000 -0.934181
vn 0.577335 -0.577259 0.577457
vn -0.577259 -0.577457 -0.577335
vn -0.577335 -0.577259 0.577457
vn 0.577335 0.577259 -0.577457
vn -0.577335 0.577259 -0.577457
vn -0.577335 0.577259 0.577457
vn -0.934140 -0.356907 0.000047
vn -0.934166 -0.356840 -0.000077
vn 0.577350 0.577350 0.577350
vn 0.356881 -0.000000 0.934150
vn 0.356856 0.000047 0.934159
vn -0.000000 0.934200 -0.356749
vn 0.934166 -0.356840 0.000077
vn 0.934140 -0.356907 -0.000048
vn -0.577350 0.577350 -0.577350
vn -0.000000 0.934200 0.356750
vn -0.934200 -0.356750 -0.000000
vn -0.577432 0.577432 0.577187
vn -0.577401 0.577249 0.577401
vn 0.934159 0.356856 0.000048
vn 0.934150 0.356881 0.000000
vn 0.577432 0.577432 -0.577187
vn 0.577401 0.577250 -0.577401
vn 0.356856 -0.000047 -0.934160
vn 0.356881 0.000000 -0.934150
vn 0.577350 -0.577350 -0.577350
vn 0.356840 -0.000077 0.934166
vn 0.356907 0.000047 0.934140
vn -0.577249 -0.577401 -0.577401
vn -0.577432 -0.577187 -0.577432
vn -0.577350 -0.577350 0.577350
vn -0.934150 0.356881 0.000000
vn -0.934159 0.356856 -0.000047
vn 0.934160 -0.356856 -0.000048
vn 0.934150 -0.356881 0.000000
vn 0.577401 -0.577250 0.577401
vn 0.577432 -0.577432 0.577187
vn -0.356907 -0.000048 0.934140
vn -0.356840 0.000077 0.934166
vn -0.356749 0.000000 -0.934200
vn -0.577249 0.577401 0.577401
vn -0.577432 0.577187 0.577432
vn -0.000000 -0.934150 -0.356882
vn 0.000047 -0.934159 -0.356856
vn 0.934200 0.356750 0.000000
vn -0.934200 0.356750 0.000000
vn 0.356907 -0.000047 -0.934140
vn 0.356840 0.000077 -0.934166
vn -0.577401 -0.577401 -0.577250
vn -0.577187 -0.577432 -0.577432
vn -0.356907 0.000048 -0.934140
vn -0.356840 -0.000077 -0.934166
vn -0.000048 0.934140 -0.356907
vn 0.000077 0.934166 -0.356840
vn 0.577432 -0.577187 0.577432
vn 0.577249 -0.577401 0.577401
vn -0.356881 -0.000000 0.934150
vn -0.356856 -0.000048 0.934160
vn -0.000000 -0.934181 0.356799
vn -0.000000 -0.934200 0.356749
vn 0.000048 0.934140 0.356907
vn -0.000077 0.934166 0.356840
vn 0.577249 0.577401 -0.577401
vn 0.577432 0.577187 -0.577432
vn -0.000047 -0.934160 0.356856
vn -0.000000 -0.934150 0.356881
vn -0.356749 -0.000000 0.934200
vn -0.000000 0.934150 0.356882
vn 0.000047 0.934159 0.356856
vn -0.356881 0.000000 -0.934150
vn -0.356856 0.000048 -0.934160
vn 0.934200 -0.356750 -0.000000
vn -0.000047 0.934160 -0.356856
vn 0.000000 0.934150 -0.356881
vn -0.934159 -0.356856 0.000047
vn -0.934150 -0.356881 -0.000000
vn 0.577401 -0.577401 0.577249
vn 0.577187 -0.577432 0.577432
vn -0.000000 -0.934200 -0.356750
vn -0.577401 -0.577249 -0.577401
vn -0.577432 -0.577432 -0.577188
vn -0.934140 0.356907 -0.000047
vn -0.934165 0.356840 0.000077
vn 0.356750 0.000000 -0.934200
vn 0.356749 -0.000000 0.934200
vn 0.356798 -0.000000 0.934181
vn 0.577401 0.577401 -0.577249
vn 0.577187 0.577432 -0.577432
vn 0.000048 -0.934140 -0.356907
vn -0.000077 -0.934166 -0.356840
vn -0.577401 0.577401 0.577250
vn -0.577187 0.577432 0.577432
vn 0.000077 -0.934165 0.356840
vn -0.000048 -0.934140 0.356907
vn 0.934140 0.356907 0.000048
vn 0.934166 0.356840 -0.000077
s off
f 66//1 78//1 11//1
f 34//2 30//2 31//2
f 30//3 34//3 77//3
f 20//4 19//4 18//4
f 81//5 83//5 21//5
f 27//6 64//6 8//6
f 64//7 63//7 65//7
f 89//1 46//1 69//1
f 3//8 2//8 4//8
f 5//9 19//9 26//9
f 59//10 58//10 60//10
f 85//11 81//11 35//11
f 81//12 21//12 35//12
f 3//3 7//3 10//3
f 92//13 87//13 76//13
f 56//14 87//14 43//14
f 64//15 27//15 61//15
f 55//5 40//5 54//5
f 73//16 75//16 74//16
f 84//17 80//17 74//17
f 42//18 38//18 39//18
f 61//19 63//19 64//19
f 38//20 48//20 37//20
f 83//9 81//9 51//9
f 3//21 10//21 13//21
f 19//22 23//22 26//22
f 78//15 79//15 11//15
f 42//11 45//11 38//11
f 53//23 55//23 54//23
f 89//24 69//24 90//24
f 45//25 48//25 38//25
f 82//18 59//18 24//18
f 8//4 64//4 65//4
f 80//26 14//26 74//26
f 54//27 40//27 86//27
f 78//28 71//28 91//28
f 54//29 86//29 32//29
f 82//30 49//30 59//30
f 20//7 23//7 19//7
f 18//31 19//31 5//31
f 73//32 74//32 14//32
f 3//17 4//17 7//17
f 3//7 13//7 2//7
f 69//33 70//33 90//33
f 29//5 30//5 16//5
f 49//4 58//4 59//4
f 56//1 76//1 87//1
f 77//34 16//34 30//34
f 87//20 92//20 88//20
f 39//35 38//35 37//35
f 46//15 68//15 69//15
f 24//11 59//11 60//11
f 78//36 66//36 71//36
f 75//3 84//3 74//3
f 85//37 51//37 81//37
f 32//20 53//20 54//20
f 70//38 69//38 68//38
f 79//39 78//39 91//39
f 87//29 88//29 43//29
f 31//9 30//9 29//9
f 65//40 66//40 9//40
f 66//41 11//41 9//41
f 35//42 34//42 33//42
f 34//2 31//2 33//2
f 34//43 17//43 77//43
f 17//44 18//44 77//44
f 21//45 20//45 17//45
f 20//4 18//4 17//4
f 83//46 22//46 21//46
f 22//47 20//47 21//47
f 26//48 27//48 6//48
f 27//6 8//6 6//6
f 63//7 62//7 65//7
f 62//49 66//49 65//49
f 47//50 45//50 46//50
f 89//1 47//1 46//1
f 2//51 1//51 4//51
f 1//52 5//52 4//52
f 4//53 5//53 6//53
f 5//54 26//54 6//54
f 58//55 57//55 60//55
f 57//56 61//56 60//56
f 86//57 85//57 33//57
f 85//58 35//58 33//58
f 21//12 17//12 35//12
f 17//59 34//59 35//59
f 7//60 9//60 10//60
f 9//61 11//61 10//61
f 91//62 92//62 72//62
f 92//63 76//63 72//63
f 55//64 56//64 41//64
f 56//14 43//14 41//14
f 27//65 25//65 61//65
f 25//66 60//66 61//66
f 41//67 39//67 40//67
f 55//68 41//68 40//68
f 72//69 76//69 75//69
f 73//70 72//70 75//70
f 28//71 29//71 80//71
f 84//72 28//72 80//72
f 43//73 42//73 41//73
f 42//18 39//18 41//18
f 57//74 90//74 63//74
f 61//75 57//75 63//75
f 48//76 50//76 37//76
f 50//77 51//77 37//77
f 82//78 83//78 50//78
f 83//9 51//9 50//9
f 10//21 12//21 13//21
f 12//42 14//42 13//42
f 23//22 25//22 26//22
f 25//42 27//42 26//42
f 79//15 12//15 11//15
f 12//79 10//79 11//79
f 44//80 46//80 45//80
f 42//81 44//81 45//81
f 52//59 56//59 55//59
f 53//23 52//23 55//23
f 58//82 89//82 57//82
f 89//83 90//83 57//83
f 47//59 49//59 48//59
f 45//25 47//25 48//25
f 83//84 82//84 22//84
f 82//85 24//85 22//85
f 7//86 8//86 9//86
f 8//87 65//87 9//87
f 15//64 13//64 14//64
f 80//26 15//26 14//26
f 40//88 36//88 86//88
f 36//89 85//89 86//89
f 71//90 67//90 91//90
f 67//91 92//91 91//91
f 86//92 33//92 32//92
f 33//93 31//93 32//93
f 50//48 48//48 49//48
f 82//30 50//30 49//30
f 22//94 24//94 23//94
f 20//95 22//95 23//95
f 77//96 18//96 1//96
f 18//97 5//97 1//97
f 79//98 73//98 12//98
f 73//99 14//99 12//99
f 4//17 6//17 7//17
f 6//100 8//100 7//100
f 13//101 15//101 2//101
f 15//102 16//102 2//102
f 70//103 62//103 90//103
f 62//104 63//104 90//104
f 80//105 29//105 15//105
f 29//5 16//5 15//5
f 47//106 89//106 58//106
f 49//107 47//107 58//107
f 52//108 75//108 76//108
f 56//109 52//109 76//109
f 1//110 2//110 16//110
f 77//111 1//111 16//111
f 92//20 67//20 88//20
f 67//112 68//112 88//112
f 40//113 39//113 36//113
f 39//114 37//114 36//114
f 44//115 88//115 68//115
f 46//116 44//116 68//116
f 23//117 24//117 25//117
f 24//11 60//11 25//11
f 66//36 62//36 71//36
f 62//64 70//64 71//64
f 52//118 53//118 84//118
f 75//119 52//119 84//119
f 36//120 37//120 51//120
f 85//121 36//121 51//121
f 28//122 84//122 53//122
f 32//123 28//123 53//123
f 71//48 70//48 67//48
f 70//38 68//38 67//38
f 73//124 79//124 72//124
f 79//125 91//125 72//125
f 88//126 44//126 43//126
f 44//127 42//127 43//127
f 32//128 31//128 28//128
f 31//129 29//129 28//129
