# Blender v2.69 (sub 0) OBJ File: ''
# www.blender.org
o arnaerts
v 0.236100 1.000000 1.000000
v -1.000000 1.000000 1.000000
v 0.000000 1.618000 0.618000
v -0.236100 1.000000 1.000000
v -0.618000 -0.000000 1.618000
v -0.382000 0.618000 1.236000
v 0.618000 -0.000000 1.618000
v 0.000000 0.382000 1.382000
v 1.000000 1.000000 1.000000
v 0.382000 0.618000 1.236000
v -0.382000 -0.618000 1.236000
v 0.000000 -1.618000 0.618000
v -1.000000 -1.000000 1.000000
v 0.000000 -0.382000 1.382000
v 0.382000 -0.618000 1.236000
v 0.236100 -1.000000 1.000000
v 1.000000 -1.000000 1.000000
v -0.236100 -1.000000 1.000000
v 1.000000 1.000000 0.236100
v 1.000000 1.000000 -1.000000
v 1.618000 0.618000 0.000000
v 1.000000 1.000000 -0.236100
v 0.000000 1.618000 -0.618000
v 0.618000 1.236000 -0.382000
v 0.382000 1.382000 0.000000
v 0.618000 1.236000 0.382000
v -0.618000 1.236000 -0.382000
v -1.618000 0.618000 0.000000
v -1.000000 1.000000 -1.000000
v -0.382000 1.382000 0.000000
v -0.618000 1.236000 0.382000
v -1.000000 1.000000 0.236100
v -1.000000 1.000000 -0.236100
v 1.000000 -1.000000 -0.236100
v 1.618000 -0.618000 -0.000000
v 1.000000 -1.000000 0.236100
v 0.618000 -1.236000 0.382000
v 0.000000 -1.618000 -0.618000
v 0.382000 -1.382000 -0.000000
v 1.000000 -1.000000 -1.000000
v 0.618000 -1.236000 -0.382000
v -0.618000 -1.236000 0.382000
v -1.618000 -0.618000 -0.000000
v -0.382000 -1.382000 -0.000000
v -0.618000 -1.236000 -0.382000
v -1.000000 -1.000000 -0.236100
v -1.000000 -1.000000 -1.000000
v -1.000000 -1.000000 0.236100
v 1.000000 -0.236100 -1.000000
v 0.618000 0.000000 -1.618000
v 1.000000 0.236100 -1.000000
v 1.236000 0.382000 -0.618000
v 1.382000 0.000000 -0.382000
v 1.236000 -0.382000 -0.618000
v 1.236000 0.382000 0.618000
v 1.382000 -0.000000 0.382000
v 1.236000 -0.382000 0.618000
v 1.000000 -0.236100 1.000000
v 1.000000 0.236100 1.000000
v -1.000000 0.236100 -1.000000
v -0.618000 0.000000 -1.618000
v -1.000000 -0.236100 -1.000000
v -1.236000 -0.382000 -0.618000
v -1.382000 0.000000 -0.382000
v -1.236000 0.382000 -0.618000
v -1.236000 -0.382000 0.618000
v -1.382000 -0.000000 0.382000
v -1.236000 0.382000 0.618000
v -1.000000 0.236100 1.000000
v -1.000000 -0.236100 1.000000
v 0.236100 -1.000000 -1.000000
v -0.236100 -1.000000 -1.000000
v -0.382000 -0.618000 -1.236000
v 0.000000 -0.382000 -1.382000
v 0.382000 -0.618000 -1.236000
v -0.382000 0.618000 -1.236000
v 0.000000 0.382000 -1.382000
v 0.382000 0.618000 -1.236000
v 0.236100 1.000000 -1.000000
v -0.236100 1.000000 -1.000000
vn -0.000000 0.525786 0.850617
vn 0.000000 0.525710 0.850664
vn 0.000085 0.525687 0.850678
vn -0.000085 0.525687 0.850678
vn 0.000085 -0.525687 0.850678
vn -0.000085 -0.525687 0.850678
vn -0.000000 -0.525786 0.850617
vn 0.000000 -0.525710 0.850664
vn 0.525786 0.850617 0.000000
vn 0.525710 0.850664 0.000000
vn 0.525687 0.850678 0.000085
vn 0.525687 0.850678 -0.000085
vn -0.525687 0.850678 0.000085
vn -0.525687 0.850678 -0.000084
vn -0.525786 0.850617 0.000000
vn -0.525710 0.850664 0.000000
vn 0.525786 -0.850617 -0.000000
vn 0.525710 -0.850664 -0.000000
vn 0.525687 -0.850678 -0.000085
vn 0.525687 -0.850678 0.000085
vn -0.525687 -0.850678 -0.000085
vn -0.525687 -0.850678 0.000084
vn -0.525786 -0.850617 -0.000000
vn -0.525710 -0.850664 -0.000000
vn 0.850617 0.000000 -0.525786
vn 0.850664 -0.000000 -0.525710
vn 0.850678 -0.000085 -0.525687
vn 0.850678 0.000085 -0.525687
vn 0.850678 -0.000085 0.525687
vn 0.850678 0.000085 0.525687
vn 0.850617 -0.000000 0.525786
vn 0.850664 0.000000 0.525710
vn -0.850617 0.000000 -0.525786
vn -0.850664 0.000000 -0.525710
vn -0.850678 0.000085 -0.525687
vn -0.850678 -0.000085 -0.525687
vn -0.850678 0.000085 0.525687
vn -0.850678 -0.000085 0.525687
vn -0.850617 -0.000000 0.525786
vn -0.850664 -0.000000 0.525710
vn -0.000000 -0.525786 -0.850617
vn 0.000000 -0.525710 -0.850664
vn 0.000085 -0.525687 -0.850678
vn -0.000085 -0.525687 -0.850678
vn 0.000085 0.525687 -0.850678
vn -0.000085 0.525687 -0.850678
vn -0.000000 0.525786 -0.850617
vn 0.000000 0.525710 -0.850664
s off
f 1//1 3//1 2//1
f 4//2 2//2 5//2
f 6//1 5//1 7//1
f 8//3 7//3 9//3
f 10//4 9//4 3//4
f 11//5 13//5 12//5
f 14//6 5//6 13//6
f 15//7 7//7 5//7
f 16//8 17//8 7//8
f 18//7 12//7 17//7
f 19//9 21//9 20//9
f 22//10 20//10 23//10
f 24//9 23//9 3//9
f 25//11 3//11 9//11
f 26//12 9//12 21//12
f 27//13 29//13 28//13
f 30//14 23//14 29//14
f 31//15 3//15 23//15
f 32//16 2//16 3//16
f 33//15 28//15 2//15
f 34//17 35//17 17//17
f 36//18 17//18 12//18
f 37//17 12//17 38//17
f 39//19 38//19 40//19
f 41//20 40//20 35//20
f 42//21 13//21 43//21
f 44//22 12//22 13//22
f 45//23 38//23 12//23
f 46//24 47//24 38//24
f 48//23 43//23 47//23
f 49//25 50//25 20//25
f 51//26 20//26 21//26
f 52//25 21//25 35//25
f 53//27 35//27 40//27
f 54//28 40//28 50//28
f 55//29 9//29 7//29
f 56//30 21//30 9//30
f 57//31 35//31 21//31
f 58//32 17//32 35//32
f 59//31 7//31 17//31
f 60//33 61//33 47//33
f 62//34 47//34 43//34
f 63//33 43//33 28//33
f 64//35 28//35 29//35
f 65//36 29//36 61//36
f 66//37 13//37 5//37
f 67//38 43//38 13//38
f 68//39 28//39 43//39
f 69//40 2//40 28//40
f 70//39 5//39 2//39
f 71//41 38//41 47//41
f 72//42 47//42 61//42
f 73//41 61//41 50//41
f 74//43 50//43 40//43
f 75//44 40//44 38//44
f 76//45 29//45 23//45
f 77//46 61//46 29//46
f 78//47 50//47 61//47
f 79//48 20//48 50//48
f 80//47 23//47 20//47
