# Blender v2.69 (sub 0) OBJ File: ''
# www.blender.org
o c034
v 0.000000 -0.707000 -0.707000
v 0.707000 0.000000 -0.707000
v 0.000000 0.707000 -0.707000
v -0.707000 0.000000 -0.707000
v 0.707000 -0.707000 -0.000000
v 0.707000 0.707000 0.000000
v -0.707000 0.707000 0.000000
v -0.707000 -0.707000 -0.000000
v 0.000000 -0.707000 0.707000
v 0.707000 -0.000000 0.707000
v 0.000000 0.707000 0.707000
v -0.707000 -0.000000 0.707000
vn 0.000000 0.000000 -1.000000
vn 0.577350 -0.577350 -0.577350
vn 0.577350 0.577350 -0.577350
vn -0.577350 0.577350 -0.577350
vn -0.577350 -0.577350 -0.577350
vn 0.000000 -1.000000 -0.000000
vn 1.000000 -0.000000 0.000000
vn -0.000000 1.000000 0.000000
vn -1.000000 0.000000 0.000000
vn 0.577350 -0.577350 0.577350
vn 0.577350 0.577350 0.577350
vn -0.577350 0.577350 0.577350
vn -0.577350 -0.577350 0.577350
vn -0.000000 -0.000000 1.000000
s off
f 1//1 4//1 2//1
f 1//2 2//2 5//2
f 2//3 3//3 6//3
f 3//4 4//4 7//4
f 1//5 8//5 4//5
f 1//6 5//6 8//6
f 5//7 2//7 10//7
f 3//8 7//8 6//8
f 7//9 4//9 12//9
f 5//10 10//10 9//10
f 6//11 11//11 10//11
f 7//12 12//12 11//12
f 8//13 9//13 12//13
f 12//14 9//14 11//14
f 4//1 3//1 2//1
f 5//6 9//6 8//6
f 2//7 6//7 10//7
f 7//8 11//8 6//8
f 4//9 8//9 12//9
f 9//14 10//14 11//14
