# Blender v2.69 (sub 0) OBJ File: ''
# www.blender.org
o c264
v 0.000000 -0.447000 -0.894000
v 0.447000 0.000000 -0.894000
v 0.000000 0.447000 -0.894000
v -0.447000 0.000000 -0.894000
v 0.000000 -0.894000 -0.447000
v 0.447000 -0.894000 -0.000000
v 0.894000 -0.447000 -0.000000
v 0.894000 0.000000 -0.447000
v 0.894000 0.447000 0.000000
v 0.447000 0.894000 0.000000
v 0.000000 0.894000 -0.447000
v -0.447000 0.894000 0.000000
v -0.894000 0.447000 0.000000
v -0.894000 0.000000 -0.447000
v -0.894000 -0.447000 -0.000000
v -0.447000 -0.894000 -0.000000
v -0.447000 -0.894000 -0.000000
v 0.000000 -0.894000 0.447000
v 0.447000 -0.894000 -0.000000
v 0.894000 -0.447000 -0.000000
v 0.894000 -0.000000 0.447000
v 0.894000 0.447000 0.000000
v 0.447000 0.894000 0.000000
v 0.000000 0.894000 0.447000
v -0.447000 0.894000 0.000000
v -0.894000 0.447000 0.000000
v -0.894000 -0.000000 0.447000
v -0.894000 -0.447000 -0.000000
v 0.000000 -0.447000 0.894000
v 0.447000 -0.000000 0.894000
v 0.000000 0.447000 0.894000
v -0.447000 -0.000000 0.894000
vn 0.000000 0.000000 -1.000000
vn -0.000000 -1.000000 -0.000000
vn 1.000000 0.000000 0.000000
vn -0.000000 1.000000 0.000000
vn -1.000000 0.000000 0.000000
vn 0.000000 -0.000000 1.000000
vn 0.577350 0.577350 0.577350
vn 0.577350 -0.577350 0.577350
vn 0.577350 0.577350 -0.577350
vn 0.577350 -0.577350 -0.577350
vn -0.577350 0.577350 0.577350
vn -0.577350 -0.577350 -0.577350
vn -0.577350 0.577350 -0.577350
vn -0.577350 -0.577350 0.577350
s off
f 1//1 4//1 2//1
f 17//2 5//2 18//2
f 8//3 22//3 20//3
f 11//4 25//4 23//4
f 14//5 28//5 26//5
f 32//6 29//6 31//6
f 31//7 30//7 21//7
f 20//8 18//8 19//8
f 11//9 10//9 9//9
f 8//10 1//10 2//10
f 27//11 32//11 31//11
f 1//12 14//12 4//12
f 11//13 13//13 12//13
f 28//14 17//14 18//14
f 4//1 3//1 2//1
f 5//2 19//2 18//2
f 22//3 21//3 20//3
f 25//4 24//4 23//4
f 28//5 27//5 26//5
f 29//6 30//6 31//6
f 31//7 21//7 22//7
f 24//7 31//7 23//7
f 31//7 22//7 23//7
f 21//8 18//8 20//8
f 30//8 29//8 21//8
f 29//8 18//8 21//8
f 11//9 9//9 8//9
f 3//9 11//9 2//9
f 11//9 8//9 2//9
f 7//10 1//10 8//10
f 6//10 5//10 7//10
f 5//10 1//10 7//10
f 26//11 27//11 31//11
f 25//11 26//11 24//11
f 26//11 31//11 24//11
f 1//12 15//12 14//12
f 5//12 16//12 1//12
f 16//12 15//12 1//12
f 11//13 14//13 13//13
f 3//13 4//13 11//13
f 4//13 14//13 11//13
f 27//14 28//14 18//14
f 32//14 27//14 29//14
f 27//14 18//14 29//14
