# Blender v2.69 (sub 0) OBJ File: ''
# www.blender.org
o c434
v 0.357000 -0.357000 -0.863000
v 0.357000 0.357000 -0.863000
v -0.357000 0.357000 -0.863000
v -0.357000 -0.357000 -0.863000
v -0.357000 -0.863000 -0.357000
v 0.357000 -0.863000 -0.357000
v 0.863000 -0.357000 -0.357000
v 0.863000 0.357000 -0.357000
v 0.357000 0.863000 -0.357000
v -0.357000 0.863000 -0.357000
v -0.863000 0.357000 -0.357000
v -0.863000 -0.357000 -0.357000
v -0.357000 -0.863000 0.357000
v 0.357000 -0.863000 0.357000
v 0.863000 -0.357000 0.357000
v 0.863000 0.357000 0.357000
v 0.357000 0.863000 0.357000
v -0.357000 0.863000 0.357000
v -0.863000 0.357000 0.357000
v -0.863000 -0.357000 0.357000
v -0.357000 -0.357000 0.863000
v 0.357000 -0.357000 0.863000
v 0.357000 0.357000 0.863000
v -0.357000 0.357000 0.863000
vn 0.000000 0.000000 -1.000000
vn -0.000000 -0.707107 -0.707107
vn 0.577350 -0.577350 -0.577350
vn 0.707107 0.000000 -0.707107
vn 0.577350 0.577350 -0.577350
vn -0.000000 0.707107 -0.707107
vn -0.577350 0.577350 -0.577350
vn -0.707107 0.000000 -0.707107
vn -0.577350 -0.577350 -0.577350
vn 0.000000 -1.000000 -0.000000
vn 0.707107 -0.707107 -0.000000
vn 1.000000 -0.000000 0.000000
vn 0.707107 0.707107 0.000000
vn 0.000000 1.000000 0.000000
vn -0.707107 0.707107 0.000000
vn -1.000000 -0.000000 0.000000
vn -0.707107 -0.707107 -0.000000
vn 0.000000 -0.707107 0.707107
vn 0.577350 -0.577350 0.577350
vn 0.707107 -0.000000 0.707107
vn 0.577350 0.577350 0.577350
vn -0.000000 0.707107 0.707107
vn -0.577350 0.577350 0.577350
vn -0.707107 -0.000000 0.707107
vn -0.577350 -0.577350 0.577350
vn -0.000000 -0.000000 1.000000
s off
f 1//1 4//1 2//1
f 6//2 5//2 1//2
f 1//3 7//3 6//3
f 1//4 2//4 7//4
f 2//5 9//5 8//5
f 2//6 3//6 9//6
f 3//7 11//7 10//7
f 3//8 4//8 11//8
f 4//9 5//9 12//9
f 5//10 6//10 13//10
f 6//11 7//11 14//11
f 7//12 8//12 15//12
f 8//13 9//13 16//13
f 9//14 10//14 17//14
f 10//15 11//15 18//15
f 11//16 12//16 19//16
f 5//17 13//17 12//17
f 13//18 14//18 21//18
f 14//19 15//19 22//19
f 15//20 16//20 22//20
f 16//21 17//21 23//21
f 17//22 18//22 23//22
f 18//23 19//23 24//23
f 19//24 20//24 24//24
f 13//25 21//25 20//25
f 21//26 22//26 24//26
f 4//1 3//1 2//1
f 5//2 4//2 1//2
f 2//4 8//4 7//4
f 3//6 10//6 9//6
f 4//8 12//8 11//8
f 6//10 14//10 13//10
f 7//11 15//11 14//11
f 8//12 16//12 15//12
f 9//13 17//13 16//13
f 10//14 18//14 17//14
f 11//15 19//15 18//15
f 12//16 20//16 19//16
f 13//17 20//17 12//17
f 14//18 22//18 21//18
f 16//20 23//20 22//20
f 18//22 24//22 23//22
f 20//24 21//24 24//24
f 22//26 23//26 24//26
