# Blender v2.69 (sub 0) OBJ File: ''
# www.blender.org
o cube
v 0.100000 -0.500000 -0.800000
v 0.100000 -0.800000 -0.500000
v 0.500000 -0.800000 -0.100000
v 0.800000 -0.500000 -0.100000
v 0.800000 -0.100000 -0.500000
v 0.500000 -0.100000 -0.800000
v 0.500000 0.100000 -0.800000
v 0.800000 0.100000 -0.500000
v 0.800000 0.500000 -0.100000
v 0.500000 0.800000 -0.100000
v 0.100000 0.800000 -0.500000
v 0.100000 0.500000 -0.800000
v -0.100000 0.500000 -0.800000
v -0.100000 0.800000 -0.500000
v -0.500000 0.800000 -0.100000
v -0.800000 0.500000 -0.100000
v -0.800000 0.100000 -0.500000
v -0.500000 0.100000 -0.800000
v -0.100000 -0.500000 -0.800000
v -0.500000 -0.100000 -0.800000
v -0.800000 -0.100000 -0.500000
v -0.800000 -0.500000 -0.100000
v -0.500000 -0.800000 -0.100000
v -0.100000 -0.800000 -0.500000
v 0.500000 -0.800000 0.100000
v 0.100000 -0.800000 0.500000
v 0.100000 -0.500000 0.800000
v 0.500000 -0.100000 0.800000
v 0.800000 -0.100000 0.500000
v 0.800000 -0.500000 0.100000
v -0.500000 0.800000 0.100000
v -0.100000 0.800000 0.500000
v -0.100000 0.500000 0.800000
v -0.500000 0.100000 0.800000
v -0.800000 0.100000 0.500000
v -0.800000 0.500000 0.100000
v -0.500000 -0.800000 0.100000
v -0.800000 -0.500000 0.100000
v -0.800000 -0.100000 0.500000
v -0.500000 -0.100000 0.800000
v -0.100000 -0.500000 0.800000
v -0.100000 -0.800000 0.500000
v 0.800000 0.500000 0.100000
v 0.800000 0.100000 0.500000
v 0.500000 0.100000 0.800000
v 0.100000 0.500000 0.800000
v 0.100000 0.800000 0.500000
v 0.500000 0.800000 0.100000
vn -0.000000 -0.707107 -0.707107
vn 0.707107 -0.000000 -0.707107
vn -0.000000 0.707107 -0.707107
vn -0.707107 0.000000 -0.707107
vn 0.707107 -0.707107 0.000000
vn 0.707107 0.707107 0.000000
vn -0.707107 0.707107 -0.000000
vn -0.707107 -0.707107 0.000000
vn 0.000000 -0.707107 0.707107
vn 0.707107 -0.000000 0.707107
vn -0.000000 0.707107 0.707107
vn -0.707107 -0.000000 0.707107
vn 0.577350 -0.577350 0.577350
vn 0.000000 -0.000000 1.000000
vn -0.577350 0.577350 0.577350
vn 1.000000 -0.000000 0.000000
vn 0.577350 -0.577350 -0.577350
vn 0.000000 0.000000 -1.000000
vn 0.577350 0.577350 0.577350
vn 0.000000 1.000000 -0.000000
vn 0.000000 -1.000000 0.000000
vn -0.577350 -0.577350 0.577350
vn -0.577350 -0.577350 -0.577350
vn -0.577350 0.577350 -0.577350
vn 0.577350 0.577350 -0.577350
vn -1.000000 0.000000 0.000000
vn -0.000000 1.000000 0.000001
vn -0.000000 -1.000000 -0.000001
s off
f 2//1 24//1 1//1
f 6//2 7//2 5//2
f 12//3 13//3 11//3
f 18//4 20//4 17//4
f 3//5 4//5 25//5
f 9//6 10//6 43//6
f 15//7 16//7 31//7
f 23//8 37//8 22//8
f 42//9 26//9 41//9
f 29//10 44//10 28//10
f 47//11 32//11 46//11
f 35//12 39//12 34//12
f 30//13 29//13 28//13
f 40//14 41//14 34//14
f 35//15 31//15 36//15
f 8//16 9//16 43//16
f 4//17 3//17 5//17
f 18//18 13//18 20//18
f 43//19 48//19 44//19
f 31//20 32//20 15//20
f 23//21 24//21 37//21
f 39//22 38//22 40//22
f 22//23 21//23 23//23
f 18//24 17//24 16//24
f 7//25 9//25 8//25
f 17//26 21//26 22//26
f 24//1 19//1 1//1
f 7//2 8//2 5//2
f 13//3 14//3 11//3
f 20//4 21//4 17//4
f 4//5 30//5 25//5
f 10//6 48//6 43//6
f 16//7 36//7 31//7
f 37//8 38//8 22//8
f 26//9 27//9 41//9
f 44//10 45//10 28//10
f 32//11 33//11 46//11
f 39//12 40//12 34//12
f 30//13 28//13 27//13
f 25//13 30//13 26//13
f 30//13 27//13 26//13
f 34//14 41//14 33//14
f 41//14 27//14 33//14
f 27//14 28//14 33//14
f 28//14 45//14 33//14
f 45//14 46//14 33//14
f 35//15 32//15 31//15
f 34//15 33//15 35//15
f 33//15 32//15 35//15
f 8//16 43//16 44//16
f 5//16 8//16 44//16
f 4//16 5//16 44//16
f 30//16 4//16 29//16
f 4//16 44//16 29//16
f 3//17 2//17 5//17
f 2//17 1//17 5//17
f 1//17 6//17 5//17
f 20//18 13//18 19//18
f 13//18 12//18 19//18
f 12//18 7//18 19//18
f 7//18 6//18 19//18
f 6//18 1//18 19//18
f 48//19 47//19 44//19
f 47//19 46//19 44//19
f 46//19 45//19 44//19
f 15//20 32//20 14//20
f 32//20 47//20 14//20
f 47//20 48//20 14//20
f 48//20 10//20 14//20
f 10//27 11//27 14//27
f 37//21 24//21 42//21
f 24//21 2//21 42//21
f 2//21 3//21 42//21
f 3//21 25//21 42//21
f 25//28 26//28 42//28
f 40//22 38//22 41//22
f 38//22 37//22 41//22
f 37//22 42//22 41//22
f 23//23 21//23 24//23
f 21//23 20//23 24//23
f 20//23 19//23 24//23
f 13//24 18//24 16//24
f 14//24 13//24 15//24
f 13//24 16//24 15//24
f 12//25 9//25 7//25
f 11//25 10//25 12//25
f 10//25 9//25 12//25
f 16//26 17//26 22//26
f 16//26 22//26 38//26
f 16//26 38//26 39//26
f 36//26 16//26 35//26
f 16//26 39//26 35//26
