# Blender v2.69 (sub 0) OBJ File: ''
# www.blender.org
o cubc
v -0.100000 -0.500000 -0.800000
v 0.100000 -0.500000 -0.800000
v 0.500000 -0.100000 -0.800000
v 0.500000 0.100000 -0.800000
v 0.100000 0.500000 -0.800000
v -0.100000 0.500000 -0.800000
v -0.500000 0.100000 -0.800000
v -0.500000 -0.100000 -0.800000
v -0.100000 -0.800000 -0.500000
v -0.500000 -0.800000 -0.100000
v -0.500000 -0.800000 0.100000
v -0.100000 -0.800000 0.500000
v 0.100000 -0.800000 0.500000
v 0.500000 -0.800000 0.100000
v 0.500000 -0.800000 -0.100000
v 0.100000 -0.800000 -0.500000
v 0.800000 -0.100000 -0.500000
v 0.800000 -0.500000 -0.100000
v 0.800000 -0.500000 0.100000
v 0.800000 -0.100000 0.500000
v 0.800000 0.100000 0.500000
v 0.800000 0.500000 0.100000
v 0.800000 0.500000 -0.100000
v 0.800000 0.100000 -0.500000
v 0.100000 0.800000 -0.500000
v 0.500000 0.800000 -0.100000
v 0.500000 0.800000 0.100000
v 0.100000 0.800000 0.500000
v -0.100000 0.800000 0.500000
v -0.500000 0.800000 0.100000
v -0.500000 0.800000 -0.100000
v -0.100000 0.800000 -0.500000
v -0.800000 0.100000 -0.500000
v -0.800000 0.500000 -0.100000
v -0.800000 0.500000 0.100000
v -0.800000 0.100000 0.500000
v -0.800000 -0.100000 0.500000
v -0.800000 -0.500000 0.100000
v -0.800000 -0.500000 -0.100000
v -0.800000 -0.100000 -0.500000
v -0.500000 -0.100000 0.800000
v -0.500000 0.100000 0.800000
v -0.100000 0.500000 0.800000
v 0.100000 0.500000 0.800000
v 0.500000 0.100000 0.800000
v 0.500000 -0.100000 0.800000
v 0.100000 -0.500000 0.800000
v -0.100000 -0.500000 0.800000
vn -1.000000 0.000000 0.000000
vn -0.000000 -0.000000 1.000000
vn -0.577350 -0.577350 -0.577350
vn 0.000000 0.000000 -1.000000
vn 0.000000 1.000000 0.000001
vn -0.577350 0.577350 -0.577350
vn 1.000000 0.000000 0.000000
vn 0.577350 -0.577350 -0.577350
vn 0.577350 -0.577350 0.577350
vn 0.577350 0.577350 0.577350
vn -0.577350 -0.577350 0.577350
vn -0.577350 0.577350 0.577350
vn 0.577350 0.577350 -0.577350
vn 0.000000 -1.000000 -0.000001
vn 0.000000 1.000000 0.000000
vn 0.000000 -1.000000 0.000000
s off
f 33//1 40//1 39//1
f 46//2 45//2 47//2
f 10//3 39//3 40//3
f 3//4 2//4 4//4
f 25//5 32//5 26//5
f 7//6 33//6 34//6
f 21//7 20//7 22//7
f 15//8 17//8 18//8
f 19//9 20//9 46//9
f 21//10 22//10 27//10
f 41//11 37//11 38//11
f 35//12 36//12 30//12
f 24//13 4//13 23//13
f 13//14 12//14 14//14
f 34//1 33//1 39//1
f 34//1 39//1 38//1
f 34//1 38//1 37//1
f 35//1 34//1 36//1
f 34//1 37//1 36//1
f 45//2 44//2 47//2
f 44//2 43//2 47//2
f 43//2 42//2 47//2
f 42//2 41//2 47//2
f 41//2 48//2 47//2
f 9//3 10//3 40//3
f 1//3 9//3 8//3
f 9//3 40//3 8//3
f 4//4 2//4 5//4
f 2//4 1//4 5//4
f 1//4 8//4 5//4
f 8//4 7//4 5//4
f 7//4 6//4 5//4
f 32//15 31//15 26//15
f 31//15 30//15 26//15
f 30//15 29//15 26//15
f 29//15 28//15 26//15
f 28//15 27//15 26//15
f 6//6 7//6 34//6
f 32//6 6//6 31//6
f 6//6 34//6 31//6
f 20//7 19//7 22//7
f 22//7 19//7 23//7
f 23//7 19//7 24//7
f 19//7 18//7 24//7
f 18//7 17//7 24//7
f 16//8 17//8 15//8
f 2//8 3//8 16//8
f 3//8 17//8 16//8
f 19//9 46//9 47//9
f 14//9 19//9 13//9
f 19//9 47//9 13//9
f 21//10 27//10 28//10
f 45//10 21//10 44//10
f 21//10 28//10 44//10
f 48//11 41//11 38//11
f 12//11 48//11 11//11
f 48//11 38//11 11//11
f 30//12 36//12 29//12
f 36//12 42//12 29//12
f 42//12 43//12 29//12
f 4//13 5//13 23//13
f 5//13 25//13 23//13
f 25//13 26//13 23//13
f 12//16 11//16 14//16
f 11//16 10//16 14//16
f 10//16 9//16 14//16
f 9//16 16//16 14//16
f 16//16 15//16 14//16
