# Blender v2.69 (sub 0) OBJ File: ''
# www.blender.org
o Cube.001
v 0.990000 -1.000000 -0.990000
v 0.990000 -1.000000 0.990000
v 0.994227 -0.994227 -0.994226
v 1.005774 -1.005774 1.005774
v -0.990000 -1.000000 0.990000
v 0.994227 -0.994227 0.994227
v -1.005774 -1.005774 1.005773
v -0.990000 -1.000000 -0.990000
v -0.994227 -0.994227 0.994226
v -1.005773 -1.005774 -1.005774
v -0.994226 -0.994227 -0.994227
v 1.005774 -1.005774 -1.005773
v 0.990000 1.000000 -0.989999
v -0.990000 1.000000 -0.990000
v 0.994227 0.994227 -0.994226
v -1.005773 1.005774 -1.005774
v -0.990000 1.000000 0.990000
v -0.994226 0.994227 -0.994227
v -1.005774 1.005774 1.005773
v 0.989999 1.000000 0.990001
v -0.994227 0.994227 0.994226
v 1.005773 1.005774 1.005774
v 0.994226 0.994227 0.994227
v 1.005774 1.005774 -1.005773
v 1.000000 -0.990000 -0.990000
v 1.000000 0.990000 -0.989999
v 0.999999 0.990000 0.990001
v 1.000000 -0.990000 0.990000
v 0.990000 -0.990000 1.000000
v 0.989999 0.990000 1.000001
v -0.990000 0.990000 1.000000
v -0.990000 -0.990000 1.000000
v -1.000000 -0.990000 0.990000
v -1.000000 0.990000 0.990000
v -1.000000 0.990000 -0.990000
v -1.000000 -0.990000 -0.990000
v 0.990000 0.990000 -0.999999
v 0.990000 -0.990000 -1.000000
v -0.990000 -0.990000 -1.000000
v -0.990000 0.990000 -1.000000
vn -0.806841 0.590769 0.000000
vn -0.343742 -0.939064 -0.000000
vn -0.000000 0.590773 -0.806838
vn 0.000000 -0.939057 -0.343761
vn 0.806838 0.590773 0.000000
vn 0.343766 -0.939055 -0.000000
vn -0.000000 0.590765 0.806843
vn 0.000000 -0.939055 0.343766
vn -0.000000 -0.590773 0.806838
vn -0.000000 0.939065 0.343740
vn 0.806910 -0.590675 -0.000000
vn 0.343745 0.939063 0.000000
vn 0.000000 -0.590673 -0.806911
vn 0.000000 0.939056 -0.343765
vn -0.806844 -0.590764 -0.000001
vn -0.343742 0.939064 -0.000000
vn -0.590677 -0.000001 0.806908
vn 0.939065 -0.000000 0.343741
vn -0.590765 -0.806844 -0.000000
vn 0.939065 -0.343740 0.000000
vn -0.590675 0.000000 -0.806909
vn 0.939065 0.000001 -0.343739
vn -0.590769 0.806841 0.000000
vn 0.939064 0.343743 0.000000
vn -0.806844 -0.000000 -0.590764
vn -0.343692 -0.000001 0.939083
vn 0.000000 -0.806884 -0.590710
vn -0.000000 -0.343685 0.939085
vn 0.806890 0.000000 -0.590701
vn 0.343688 -0.000000 0.939084
vn -0.000000 0.806895 -0.590695
vn -0.000000 0.343745 0.939063
vn 0.590671 0.000000 -0.806913
vn -0.939056 0.000000 -0.343764
vn 0.590765 -0.806844 -0.000000
vn -0.939084 -0.343689 -0.000000
vn 0.590696 -0.000000 0.806895
vn -0.939084 -0.000000 0.343687
vn 0.590701 0.806890 0.000000
vn -0.939063 0.343746 0.000000
vn -0.806840 -0.000000 0.590769
vn -0.343681 0.000001 -0.939086
vn 0.000000 0.806891 0.590700
vn -0.000000 0.343740 -0.939065
vn 0.806908 -0.000000 0.590677
vn 0.343765 0.000000 -0.939056
vn -0.000000 -0.806841 0.590769
vn 0.000000 -0.343743 -0.939064
vn -0.806840 0.590771 0.000000
vn -0.343744 -0.939063 -0.000000
vn 0.000000 0.590684 -0.806903
vn 0.000000 -0.939066 -0.343738
vn 0.806910 0.590674 0.000001
vn 0.343738 -0.939066 0.000000
vn -0.000000 0.590681 0.806906
vn -0.000000 -0.939062 0.343746
vn -0.000000 -0.590772 0.806839
vn -0.000000 0.939063 0.343745
vn 0.806838 -0.590773 0.000000
vn 0.343761 0.939057 0.000000
vn 0.000000 -0.590680 -0.806906
vn 0.000000 0.939055 -0.343767
vn -0.806843 -0.590766 -0.000001
vn -0.343746 0.939063 -0.000000
vn -0.590762 -0.000000 0.806846
vn 0.939057 -0.000000 0.343761
vn -0.590769 -0.806841 -0.000000
vn -0.590771 -0.000000 -0.806839
vn 0.939058 0.000001 -0.343758
vn -0.590764 0.806844 0.000000
vn 0.939063 0.343746 0.000000
vn -0.806882 -0.000000 -0.590712
vn -0.343739 -0.000000 0.939065
vn 0.000000 -0.806889 -0.590703
vn -0.000000 -0.343690 0.939083
vn 0.806888 0.000000 -0.590705
vn 0.343689 -0.000000 0.939084
vn 0.000000 0.806839 -0.590771
vn -0.000001 0.343690 0.939083
vn 0.590674 0.000000 -0.806910
vn -0.939057 0.000000 -0.343761
vn 0.590705 -0.806888 0.000000
vn -0.939066 -0.343737 -0.000001
vn 0.590704 -0.000000 0.806888
vn -0.939086 -0.000000 0.343682
vn 0.590769 0.806841 0.000000
vn -0.939089 0.343675 -0.000000
vn -0.806888 -0.000000 0.590705
vn -0.343738 0.000000 -0.939065
vn -0.000000 0.806840 0.590771
vn 0.000000 0.343685 -0.939085
vn 0.806909 -0.000000 0.590676
vn 0.343760 0.000000 -0.939058
vn -0.000000 -0.806843 0.590767
vn 0.000001 -0.343743 -0.939064
s off
f 1//1 2//1 3//1
f 2//2 1//2 4//2
f 2//3 5//3 6//3
f 5//4 2//4 7//4
f 5//5 8//5 9//5
f 8//6 5//6 10//6
f 8//7 1//7 11//7
f 1//8 8//8 12//8
f 13//9 14//9 15//9
f 14//10 13//10 16//10
f 14//11 17//11 18//11
f 17//12 14//12 19//12
f 17//13 20//13 21//13
f 20//14 17//14 22//14
f 20//15 13//15 23//15
f 13//16 20//16 24//16
f 25//17 26//17 3//17
f 26//18 25//18 24//18
f 26//19 27//19 15//19
f 27//20 26//20 22//20
f 27//21 28//21 23//21
f 28//22 27//22 4//22
f 28//23 25//23 6//23
f 25//24 28//24 12//24
f 29//25 30//25 6//25
f 30//26 29//26 22//26
f 30//27 31//27 23//27
f 31//28 30//28 19//28
f 31//29 32//29 21//29
f 32//30 31//30 7//30
f 32//31 29//31 9//31
f 29//32 32//32 4//32
f 33//33 34//33 9//33
f 34//34 33//34 19//34
f 34//35 35//35 21//35
f 35//36 34//36 16//36
f 35//37 36//37 18//37
f 36//38 35//38 10//38
f 36//39 33//39 11//39
f 33//40 36//40 7//40
f 37//41 38//41 15//41
f 38//42 37//42 12//42
f 38//43 39//43 3//43
f 39//44 38//44 10//44
f 39//45 40//45 11//45
f 40//46 39//46 16//46
f 40//47 37//47 18//47
f 37//48 40//48 24//48
f 2//49 6//49 3//49
f 1//50 12//50 4//50
f 5//51 9//51 6//51
f 2//52 4//52 7//52
f 8//53 11//53 9//53
f 5//54 7//54 10//54
f 1//55 3//55 11//55
f 8//56 10//56 12//56
f 14//57 18//57 15//57
f 13//58 24//58 16//58
f 17//59 21//59 18//59
f 14//60 16//60 19//60
f 20//61 23//61 21//61
f 17//62 19//62 22//62
f 13//63 15//63 23//63
f 20//64 22//64 24//64
f 26//65 15//65 3//65
f 25//66 12//66 24//66
f 27//67 23//67 15//67
f 26//20 24//20 22//20
f 28//68 6//68 23//68
f 27//69 22//69 4//69
f 25//70 3//70 6//70
f 28//71 4//71 12//71
f 30//72 23//72 6//72
f 29//73 4//73 22//73
f 31//74 21//74 23//74
f 30//75 22//75 19//75
f 32//76 9//76 21//76
f 31//77 19//77 7//77
f 29//78 6//78 9//78
f 32//79 7//79 4//79
f 34//80 21//80 9//80
f 33//81 7//81 19//81
f 35//82 18//82 21//82
f 34//83 19//83 16//83
f 36//84 11//84 18//84
f 35//85 16//85 10//85
f 33//86 9//86 11//86
f 36//87 10//87 7//87
f 38//88 3//88 15//88
f 37//89 24//89 12//89
f 39//90 11//90 3//90
f 38//91 12//91 10//91
f 40//92 18//92 11//92
f 39//93 10//93 16//93
f 37//94 15//94 18//94
f 40//95 16//95 24//95
o Cube
v 1.000000 -1.000000 -1.000000
v 1.000000 -1.000000 1.000000
v -1.000000 -1.000000 1.000000
v -1.000000 -1.000000 -1.000000
v 1.000000 1.000000 -0.999999
v 0.999999 1.000000 1.000001
v -1.000000 1.000000 1.000000
v -1.000000 1.000000 -1.000000
vn 0.000000 -1.000000 0.000000
vn 0.000000 1.000000 0.000000
vn 1.000000 -0.000000 0.000000
vn -0.000000 -0.000000 1.000000
vn -1.000000 -0.000000 -0.000000
vn 0.000000 0.000000 -1.000000
vn 1.000000 0.000000 0.000001
vn -0.000001 0.000000 1.000000
s off
f 41//96 42//96 44//96
f 45//97 48//97 46//97
f 41//98 45//98 42//98
f 42//99 46//99 43//99
f 43//100 47//100 44//100
f 45//101 41//101 48//101
f 42//96 43//96 44//96
f 48//97 47//97 46//97
f 45//102 46//102 42//102
f 46//103 47//103 43//103
f 47//100 48//100 44//100
f 41//101 44//101 48//101
