# Blender v2.69 (sub 0) OBJ File: ''
# www.blender.org
o d205
v -0.357000 -0.000000 0.934000
v -0.577000 0.577000 0.577000
v 0.000000 0.934000 0.357000
v 0.577000 0.577000 0.577000
v 0.357000 -0.000000 0.934000
v 0.577000 -0.577000 0.577000
v 0.000000 -0.934000 0.357000
v -0.577000 -0.577000 0.577000
v -0.934000 0.357000 0.000000
v -0.934000 -0.357000 -0.000000
v 0.934000 -0.357000 -0.000000
v 0.934000 0.357000 0.000000
v -0.577000 0.577000 -0.577000
v 0.000000 0.934000 -0.357000
v 0.000000 -0.934000 -0.357000
v -0.577000 -0.577000 -0.577000
v 0.577000 0.577000 -0.577000
v 0.577000 -0.577000 -0.577000
v 0.357000 0.000000 -0.934000
v -0.357000 0.000000 -0.934000
vn 0.851331 0.000000 -0.524630
vn 0.000000 -0.524630 0.851330
vn -0.851331 -0.000000 0.524630
vn 0.524630 -0.851331 -0.000000
vn -0.524630 0.851331 0.000000
vn 0.524630 0.851331 0.000000
vn -0.524630 -0.851331 -0.000000
vn -0.000000 0.524629 0.851331
vn -0.000000 -0.524629 -0.851331
vn 0.851331 -0.000000 0.524630
vn -0.851331 0.000000 -0.524630
vn 0.000000 0.524630 -0.851330
vn 0.850391 0.000000 -0.526152
vn -0.000000 -0.526152 0.850391
vn -0.850391 -0.000000 0.526152
vn 0.526152 -0.850391 -0.000000
vn -0.526152 0.850391 0.000000
vn 0.526152 0.850391 0.000000
vn -0.526152 -0.850391 -0.000000
vn -0.000000 0.526152 0.850391
vn -0.000000 0.526151 0.850391
vn 0.000000 -0.526151 -0.850391
vn 0.850391 -0.000000 0.526152
vn -0.850391 0.000000 -0.526152
vn -0.000000 0.526152 -0.850391
s off
f 19//1 17//1 18//1
f 8//2 7//2 6//2
f 8//3 1//3 2//3
f 18//4 11//4 6//4
f 13//5 9//5 2//5
f 17//6 4//6 12//6
f 8//7 10//7 16//7
f 3//8 2//8 4//8
f 18//9 15//9 16//9
f 5//10 6//10 4//10
f 13//11 20//11 16//11
f 13//12 14//12 17//12
f 17//13 12//13 18//13
f 12//13 11//13 18//13
f 1//14 8//14 5//14
f 8//14 6//14 5//14
f 10//15 8//15 9//15
f 8//15 2//15 9//15
f 15//16 18//16 7//16
f 18//16 6//16 7//16
f 14//17 13//17 3//17
f 13//17 2//17 3//17
f 14//18 3//18 17//18
f 3//18 4//18 17//18
f 7//19 8//19 15//19
f 8//19 16//19 15//19
f 2//20 1//20 4//20
f 1//21 5//21 4//21
f 19//22 18//22 20//22
f 18//22 16//22 20//22
f 6//23 11//23 4//23
f 11//23 12//23 4//23
f 9//24 13//24 10//24
f 13//24 16//24 10//24
f 20//25 13//25 19//25
f 13//25 17//25 19//25
