# Blender v2.69 (sub 0) OBJ File: ''
# www.blender.org
o d265
v 0.000000 0.202000 0.979000
v -0.326000 0.404000 0.855000
v -0.202000 0.730000 0.653000
v 0.202000 0.730000 0.653000
v 0.326000 0.404000 0.855000
v 0.000000 -0.202000 0.979000
v 0.326000 -0.404000 0.855000
v 0.202000 -0.730000 0.653000
v -0.202000 -0.730000 0.653000
v -0.326000 -0.404000 0.855000
v -0.979000 -0.000000 0.202000
v -0.855000 0.326000 0.404000
v -0.653000 0.202000 0.730000
v -0.653000 -0.202000 0.730000
v -0.855000 -0.326000 0.404000
v 0.979000 -0.000000 0.202000
v 0.855000 -0.326000 0.404000
v 0.653000 -0.202000 0.730000
v 0.653000 0.202000 0.730000
v 0.855000 0.326000 0.404000
v -0.202000 0.979000 0.000000
v -0.404000 0.855000 0.326000
v -0.730000 0.653000 0.202000
v -0.730000 0.653000 -0.202000
v -0.404000 0.855000 -0.326000
v -0.202000 -0.979000 -0.000000
v -0.404000 -0.855000 -0.326000
v -0.730000 -0.653000 -0.202000
v -0.730000 -0.653000 0.202000
v -0.404000 -0.855000 0.326000
v 0.202000 0.979000 0.000000
v 0.404000 0.855000 -0.326000
v 0.730000 0.653000 -0.202000
v 0.730000 0.653000 0.202000
v 0.404000 0.855000 0.326000
v 0.202000 -0.979000 -0.000000
v 0.404000 -0.855000 0.326000
v 0.730000 -0.653000 0.202000
v 0.730000 -0.653000 -0.202000
v 0.404000 -0.855000 -0.326000
v 0.979000 0.000000 -0.202000
v 0.855000 0.326000 -0.404000
v 0.653000 0.202000 -0.730000
v 0.653000 -0.202000 -0.730000
v 0.855000 -0.326000 -0.404000
v -0.979000 0.000000 -0.202000
v -0.855000 -0.326000 -0.404000
v -0.653000 -0.202000 -0.730000
v -0.653000 0.202000 -0.730000
v -0.855000 0.326000 -0.404000
v 0.000000 -0.202000 -0.979000
v -0.326000 -0.404000 -0.855000
v -0.202000 -0.730000 -0.653000
v 0.202000 -0.730000 -0.653000
v 0.326000 -0.404000 -0.855000
v 0.000000 0.202000 -0.979000
v 0.326000 0.404000 -0.855000
v 0.202000 0.730000 -0.653000
v -0.202000 0.730000 -0.653000
v -0.326000 0.404000 -0.855000
v 0.202000 0.979000 0.000000
v -0.202000 -0.979000 -0.000000
v -0.202000 0.979000 0.000000
v 0.202000 -0.979000 -0.000000
vn -0.577350 -0.577350 0.577350
vn 0.577350 0.577350 -0.577350
vn -0.852237 -0.000000 0.523155
vn -0.934080 -0.357064 -0.000000
vn 0.523155 -0.852237 -0.000000
vn -0.577350 -0.577350 -0.577350
vn 0.000000 -0.934080 0.357064
vn -0.523155 -0.852237 -0.000000
vn -0.000000 -0.523155 0.852237
vn -0.357064 -0.000000 0.934080
vn -0.577350 0.577350 -0.577350
vn 0.357064 0.000000 -0.934080
vn 0.577350 -0.577350 0.577350
vn 0.523155 0.852237 0.000000
vn 0.577350 0.577350 0.577350
vn -0.000000 0.523155 -0.852237
vn -0.934080 0.357064 0.000000
vn 0.852237 0.000000 -0.523155
vn -0.000000 0.934080 -0.357064
vn -0.000000 0.523155 0.852237
vn -0.357064 0.000000 -0.934080
vn -0.852237 0.000000 -0.523155
vn -0.000000 0.934080 0.357064
vn 0.577350 -0.577350 -0.577350
vn 0.852237 -0.000000 0.523155
vn 0.934080 -0.357064 -0.000000
vn 0.357064 -0.000000 0.934080
vn -0.000000 -0.934080 -0.357064
vn -0.523155 0.852237 0.000000
vn -0.000000 -0.523155 -0.852237
vn 0.934080 0.357064 0.000000
vn -0.577350 0.577350 0.577350
vn -0.850043 -0.000000 0.526714
vn -0.934669 -0.355518 -0.000000
vn 0.526714 -0.850043 -0.000000
vn -0.000000 -0.934669 0.355518
vn -0.526714 -0.850043 -0.000000
vn -0.000000 -0.526714 0.850043
vn -0.355518 -0.000000 0.934669
vn 0.355518 0.000000 -0.934669
vn 0.355518 0.000000 -0.934670
vn 0.526714 0.850043 0.000000
vn 0.000000 0.526714 -0.850043
vn -0.934669 0.355518 0.000000
vn 0.850043 0.000000 -0.526714
vn 0.000000 0.934669 -0.355518
vn -0.000000 0.526714 0.850043
vn -0.000000 0.526713 0.850043
vn -0.355518 0.000000 -0.934670
vn -0.355518 0.000000 -0.934669
vn -0.850043 0.000000 -0.526714
vn 0.000000 0.934669 0.355518
vn 0.000000 0.934669 0.355519
vn 0.850043 -0.000000 0.526714
vn 0.934669 -0.355519 -0.000000
vn 0.934669 -0.355518 -0.000000
vn 0.355518 -0.000000 0.934669
vn 0.355519 -0.000000 0.934669
vn 0.000000 -0.934669 -0.355518
vn -0.526714 0.850043 0.000000
vn -0.000000 -0.526714 -0.850043
vn -0.000000 -0.526713 -0.850043
vn 0.934669 0.355518 0.000000
s off
f 14//1 15//1 29//1
f 58//2 32//2 33//2
f 11//3 15//3 12//3
f 29//4 47//4 28//4
f 36//5 40//5 37//5
f 53//6 27//6 28//6
f 8//7 9//7 37//7
f 26//8 30//8 27//8
f 6//9 10//9 7//9
f 14//10 2//10 13//10
f 24//11 25//11 59//11
f 44//12 55//12 43//12
f 38//13 17//13 18//13
f 31//14 35//14 32//14
f 35//15 4//15 34//15
f 57//16 56//16 60//16
f 24//17 12//17 23//17
f 42//18 41//18 45//18
f 32//19 58//19 59//19
f 2//20 1//20 5//20
f 48//21 49//21 52//21
f 47//22 46//22 50//22
f 4//23 22//23 3//23
f 39//24 40//24 54//24
f 17//25 16//25 20//25
f 17//26 38//26 39//26
f 5//27 18//27 19//27
f 54//28 27//28 53//28
f 21//29 25//29 22//29
f 52//30 51//30 55//30
f 34//31 42//31 33//31
f 2//32 3//32 13//32
f 10//1 14//1 29//1
f 9//1 10//1 30//1
f 10//1 29//1 30//1
f 58//2 33//2 42//2
f 57//2 58//2 42//2
f 43//2 57//2 42//2
f 15//33 14//33 12//33
f 14//33 13//33 12//33
f 15//4 47//4 29//4
f 11//34 46//34 15//34
f 46//34 47//34 15//34
f 40//35 39//35 37//35
f 39//35 38//35 37//35
f 53//6 28//6 47//6
f 52//6 53//6 47//6
f 48//6 52//6 47//6
f 9//7 30//7 37//7
f 30//36 62//36 37//36
f 62//36 36//36 37//36
f 30//37 29//37 27//37
f 29//37 28//37 27//37
f 10//38 9//38 7//38
f 9//38 8//38 7//38
f 10//10 2//10 14//10
f 6//39 1//39 10//39
f 1//39 2//39 10//39
f 50//11 24//11 59//11
f 49//11 50//11 60//11
f 50//11 59//11 60//11
f 43//12 55//12 57//12
f 55//40 51//40 57//40
f 51//41 56//41 57//41
f 38//13 18//13 7//13
f 37//13 38//13 7//13
f 8//13 37//13 7//13
f 35//42 34//42 32//42
f 34//42 33//42 32//42
f 34//15 4//15 20//15
f 4//15 5//15 20//15
f 5//15 19//15 20//15
f 58//43 57//43 59//43
f 57//43 60//43 59//43
f 50//17 12//17 24//17
f 46//44 11//44 50//44
f 11//44 12//44 50//44
f 43//45 42//45 44//45
f 42//45 45//45 44//45
f 32//19 59//19 25//19
f 31//46 32//46 63//46
f 32//46 25//46 63//46
f 3//47 2//47 4//47
f 2//48 5//48 4//48
f 49//21 60//21 52//21
f 60//49 56//49 52//49
f 56//50 51//50 52//50
f 48//51 47//51 49//51
f 47//51 50//51 49//51
f 4//23 35//23 22//23
f 35//52 61//52 22//52
f 61//53 21//53 22//53
f 45//24 39//24 54//24
f 44//24 45//24 55//24
f 45//24 54//24 55//24
f 18//54 17//54 19//54
f 17//54 20//54 19//54
f 17//26 39//26 45//26
f 16//55 17//55 41//55
f 17//56 45//56 41//56
f 7//27 18//27 5//27
f 6//57 7//57 1//57
f 7//58 5//58 1//58
f 40//28 27//28 54//28
f 64//59 26//59 40//59
f 26//59 27//59 40//59
f 25//60 24//60 22//60
f 24//60 23//60 22//60
f 53//61 52//61 54//61
f 52//62 55//62 54//62
f 20//31 42//31 34//31
f 16//63 41//63 20//63
f 41//63 42//63 20//63
f 3//32 22//32 13//32
f 22//32 23//32 12//32
f 13//32 22//32 12//32
