# Blender v2.69 (sub 0) OBJ File: ''
# www.blender.org
o d435
v -0.224000 0.224000 0.949000
v -0.362000 0.586000 0.725000
v 0.000000 0.810000 0.586000
v 0.362000 0.586000 0.725000
v 0.224000 0.224000 0.949000
v 0.224000 -0.224000 0.949000
v 0.362000 -0.586000 0.725000
v 0.000000 -0.810000 0.586000
v -0.362000 -0.586000 0.725000
v -0.224000 -0.224000 0.949000
v -0.949000 0.224000 0.224000
v -0.725000 0.362000 0.586000
v -0.586000 -0.000000 0.810000
v -0.725000 -0.362000 0.586000
v -0.949000 -0.224000 0.224000
v 0.949000 -0.224000 0.224000
v 0.725000 -0.362000 0.586000
v 0.586000 -0.000000 0.810000
v 0.725000 0.362000 0.586000
v 0.949000 0.224000 0.224000
v -0.224000 0.949000 0.224000
v -0.586000 0.725000 0.362000
v -0.810000 0.586000 0.000000
v -0.586000 0.725000 -0.362000
v -0.224000 0.949000 -0.224000
v -0.224000 -0.949000 -0.224000
v -0.586000 -0.725000 -0.362000
v -0.810000 -0.586000 -0.000000
v -0.586000 -0.725000 0.362000
v -0.224000 -0.949000 0.224000
v 0.224000 0.949000 -0.224000
v 0.586000 0.725000 -0.362000
v 0.810000 0.586000 0.000000
v 0.586000 0.725000 0.362000
v 0.224000 0.949000 0.224000
v 0.224000 -0.949000 0.224000
v 0.586000 -0.725000 0.362000
v 0.810000 -0.586000 -0.000000
v 0.586000 -0.725000 -0.362000
v 0.224000 -0.949000 -0.224000
v 0.949000 0.224000 -0.224000
v 0.725000 0.362000 -0.586000
v 0.586000 0.000000 -0.810000
v 0.725000 -0.362000 -0.586000
v 0.949000 -0.224000 -0.224000
v -0.949000 -0.224000 -0.224000
v -0.725000 -0.362000 -0.586000
v -0.586000 0.000000 -0.810000
v -0.725000 0.362000 -0.586000
v -0.949000 0.224000 -0.224000
v -0.224000 -0.224000 -0.949000
v -0.362000 -0.586000 -0.725000
v 0.000000 -0.810000 -0.586000
v 0.362000 -0.586000 -0.725000
v 0.224000 -0.224000 -0.949000
v 0.224000 0.224000 -0.949000
v 0.362000 0.586000 -0.725000
v 0.000000 0.810000 -0.586000
v -0.362000 0.586000 -0.725000
v -0.224000 0.224000 -0.949000
vn -0.358460 -0.000000 0.933545
vn 0.358461 -0.000000 0.933545
vn -0.577350 0.577350 0.577350
vn -0.577350 -0.577350 0.577350
vn 0.577350 -0.577350 0.577350
vn 0.577350 0.577350 0.577350
vn 0.000000 0.933545 0.358461
vn -0.000000 -0.933545 0.358460
vn -0.933545 0.358460 0.000000
vn -0.933545 -0.358460 -0.000000
vn 0.933545 -0.358461 -0.000000
vn 0.933545 0.358461 0.000000
vn -0.577350 0.577350 -0.577350
vn -0.577350 -0.577350 -0.577350
vn 0.577350 -0.577350 -0.577350
vn 0.577350 0.577350 -0.577350
vn -0.000000 0.933545 -0.358460
vn 0.000000 -0.933545 -0.358461
vn 0.358461 0.000000 -0.933545
vn -0.358461 0.000000 -0.933545
vn -0.000000 -0.000000 1.000000
vn -0.500557 0.309467 0.808500
vn 0.500557 0.309467 0.808500
vn 0.500557 -0.309467 0.808500
vn -0.500557 -0.309468 0.808500
vn -0.808500 0.500557 0.309467
vn 0.808500 0.500557 0.309467
vn 0.808500 -0.500557 0.309467
vn -0.808500 -0.500557 0.309467
vn -0.309467 0.808500 0.500557
vn 0.309467 0.808500 0.500557
vn 0.309467 -0.808500 0.500557
vn -0.309467 -0.808500 0.500557
vn 0.000000 1.000000 0.000000
vn 0.000000 -1.000000 -0.000000
vn -0.808500 0.500557 -0.309467
vn 0.808500 0.500557 -0.309467
vn 0.808500 -0.500557 -0.309467
vn -0.808500 -0.500557 -0.309467
vn -0.308002 0.808714 -0.501115
vn 0.308002 0.808714 -0.501115
vn 0.308002 -0.808714 -0.501115
vn -0.308002 -0.808714 -0.501115
vn -1.000000 0.000000 0.000000
vn 1.000000 0.000000 0.000000
vn -0.500557 0.309467 -0.808500
vn 0.500557 0.309468 -0.808500
vn 0.500557 -0.309467 -0.808500
vn -0.500557 -0.309467 -0.808500
vn -0.000000 0.000000 -1.000000
vn -0.849699 -0.000000 0.527269
vn -0.527269 0.849699 0.000000
vn -0.000000 0.527268 0.849699
vn 0.527268 -0.849699 -0.000000
vn -0.000000 -0.527269 -0.849699
vn 0.849699 0.000000 -0.527268
vn 0.849699 -0.000000 0.527268
vn 0.527268 0.849699 0.000000
vn -0.000000 -0.527269 0.849699
vn -0.527268 -0.849699 -0.000000
vn -0.849699 0.000000 -0.527269
vn -0.000000 0.527269 -0.849699
vn -0.501115 0.308002 0.808714
vn 0.501115 0.308002 0.808714
vn 0.501115 -0.308003 0.808714
vn -0.501115 -0.308003 0.808714
vn -0.808714 0.501115 0.308002
vn 0.808714 0.501115 0.308002
vn 0.808714 -0.501115 0.308002
vn -0.808714 -0.501115 0.308002
vn -0.308002 0.808714 0.501115
vn 0.308002 0.808714 0.501115
vn 0.308002 -0.808714 0.501115
vn -0.308002 -0.808714 0.501115
vn -0.808714 0.501115 -0.308002
vn 0.808714 0.501115 -0.308002
vn 0.808714 -0.501115 -0.308002
vn -0.808714 -0.501115 -0.308002
vn -0.309467 0.808500 -0.500557
vn 0.309467 0.808500 -0.500557
vn 0.309467 -0.808500 -0.500557
vn -0.309467 -0.808500 -0.500557
vn -0.501115 0.308003 -0.808714
vn 0.501115 0.308003 -0.808714
vn 0.501115 -0.308002 -0.808714
vn -0.501115 -0.308002 -0.808714
vn -0.850365 -0.000000 0.526193
vn -0.526193 0.850365 0.000000
vn -0.000000 0.526193 0.850365
vn 0.526193 -0.850365 -0.000000
vn 0.000000 -0.526193 -0.850365
vn 0.850365 0.000000 -0.526193
vn 0.850365 -0.000000 0.526193
vn 0.526193 0.850365 0.000000
vn -0.000000 -0.526193 0.850365
vn -0.526193 -0.850365 -0.000000
vn -0.850365 -0.000000 -0.526193
vn -0.000000 0.526193 -0.850365
s off
f 13//1 10//1 1//1
f 5//2 6//2 18//2
f 2//3 22//3 12//3
f 9//4 14//4 29//4
f 7//5 37//5 17//5
f 4//6 19//6 34//6
f 3//7 35//7 21//7
f 8//8 30//8 36//8
f 23//9 50//9 11//9
f 28//10 15//10 46//10
f 38//11 45//11 16//11
f 33//12 20//12 41//12
f 59//13 49//13 24//13
f 52//14 27//14 47//14
f 54//15 44//15 39//15
f 57//16 32//16 42//16
f 58//17 25//17 31//17
f 53//18 40//18 26//18
f 55//19 56//19 43//19
f 60//20 51//20 48//20
f 1//21 10//21 5//21
f 1//22 2//22 12//22
f 4//23 5//23 19//23
f 6//24 7//24 17//24
f 9//25 10//25 14//25
f 12//26 22//26 11//26
f 34//27 19//27 20//27
f 17//28 37//28 16//28
f 29//29 14//29 15//29
f 21//30 22//30 2//30
f 34//31 35//31 4//31
f 36//32 37//32 7//32
f 29//33 30//33 9//33
f 21//34 35//34 25//34
f 30//35 26//35 36//35
f 24//36 49//36 50//36
f 42//37 32//37 41//37
f 39//38 44//38 45//38
f 47//39 27//39 46//39
f 25//40 58//40 59//40
f 58//41 31//41 57//41
f 40//42 53//42 54//42
f 53//43 26//43 52//43
f 11//44 50//44 15//44
f 20//45 16//45 41//45
f 49//46 59//46 60//46
f 57//47 42//47 56//47
f 44//48 54//48 55//48
f 52//49 47//49 51//49
f 51//50 60//50 55//50
f 13//51 12//51 14//51
f 24//52 23//52 22//52
f 3//53 2//53 4//53
f 38//54 37//54 39//54
f 54//55 53//55 52//55
f 44//56 43//56 42//56
f 19//57 18//57 17//57
f 32//58 34//58 33//58
f 9//59 8//59 7//59
f 28//60 27//60 29//60
f 49//61 48//61 47//61
f 59//62 58//62 57//62
f 10//21 6//21 5//21
f 13//63 1//63 12//63
f 5//64 18//64 19//64
f 18//65 6//65 17//65
f 10//66 13//66 14//66
f 22//67 23//67 11//67
f 33//68 34//68 20//68
f 37//69 38//69 16//69
f 28//70 29//70 15//70
f 3//71 21//71 2//71
f 35//72 3//72 4//72
f 8//73 36//73 7//73
f 30//74 8//74 9//74
f 35//34 31//34 25//34
f 26//35 40//35 36//35
f 23//75 24//75 50//75
f 32//76 33//76 41//76
f 38//77 39//77 45//77
f 27//78 28//78 46//78
f 24//79 25//79 59//79
f 31//80 32//80 57//80
f 39//81 40//81 54//81
f 26//82 27//82 52//82
f 50//44 46//44 15//44
f 16//45 45//45 41//45
f 48//83 49//83 60//83
f 42//84 43//84 56//84
f 43//85 44//85 55//85
f 47//86 48//86 51//86
f 60//50 56//50 55//50
f 12//87 11//87 14//87
f 11//87 15//87 14//87
f 25//88 24//88 21//88
f 24//88 22//88 21//88
f 2//89 1//89 4//89
f 1//89 5//89 4//89
f 37//90 36//90 39//90
f 36//90 40//90 39//90
f 55//91 54//91 51//91
f 54//91 52//91 51//91
f 45//92 44//92 41//92
f 44//92 42//92 41//92
f 20//93 19//93 16//93
f 19//93 17//93 16//93
f 31//94 35//94 32//94
f 35//94 34//94 32//94
f 10//95 9//95 6//95
f 9//95 7//95 6//95
f 27//96 26//96 29//96
f 26//96 30//96 29//96
f 50//97 49//97 46//97
f 49//97 47//97 46//97
f 60//98 59//98 56//98
f 59//98 57//98 56//98
