# Blender v2.69 (sub 0) OBJ File: ''
# www.blender.org
o d4610
v -0.131000 0.131000 0.983000
v -0.344000 0.263000 0.901000
v -0.426000 0.476000 0.770000
v -0.344000 0.689000 0.638000
v -0.132000 0.820000 0.557000
v 0.132000 0.820000 0.557000
v 0.344000 0.689000 0.638000
v 0.426000 0.476000 0.770000
v 0.344000 0.263000 0.901000
v 0.131000 0.131000 0.983000
v 0.131000 -0.131000 0.983000
v 0.344000 -0.263000 0.901000
v 0.426000 -0.476000 0.770000
v 0.344000 -0.689000 0.638000
v 0.132000 -0.820000 0.557000
v -0.132000 -0.820000 0.557000
v -0.344000 -0.689000 0.638000
v -0.426000 -0.476000 0.770000
v -0.344000 -0.263000 0.901000
v -0.131000 -0.131000 0.983000
v -0.983000 0.131000 0.131000
v -0.901000 0.344000 0.263000
v -0.770000 0.426000 0.476000
v -0.638000 0.344000 0.689000
v -0.557000 0.132000 0.820000
v -0.557000 -0.132000 0.820000
v -0.638000 -0.344000 0.689000
v -0.770000 -0.426000 0.476000
v -0.901000 -0.344000 0.263000
v -0.983000 -0.131000 0.131000
v 0.983000 -0.131000 0.131000
v 0.901000 -0.344000 0.263000
v 0.770000 -0.426000 0.476000
v 0.638000 -0.344000 0.689000
v 0.557000 -0.132000 0.820000
v 0.557000 0.132000 0.820000
v 0.638000 0.344000 0.689000
v 0.770000 0.426000 0.476000
v 0.901000 0.344000 0.263000
v 0.983000 0.131000 0.131000
v -0.131000 0.983000 0.131000
v -0.263000 0.901000 0.344000
v -0.476000 0.770000 0.426000
v -0.689000 0.638000 0.344000
v -0.820000 0.557000 0.132000
v -0.820000 0.557000 -0.132000
v -0.689000 0.638000 -0.344000
v -0.476000 0.770000 -0.426000
v -0.263000 0.901000 -0.344000
v -0.131000 0.983000 -0.131000
v -0.131000 -0.983000 -0.131000
v -0.263000 -0.901000 -0.344000
v -0.476000 -0.770000 -0.426000
v -0.689000 -0.638000 -0.344000
v -0.820000 -0.557000 -0.132000
v -0.820000 -0.557000 0.132000
v -0.689000 -0.638000 0.344000
v -0.476000 -0.770000 0.426000
v -0.263000 -0.901000 0.344000
v -0.131000 -0.983000 0.131000
v 0.131000 0.983000 -0.131000
v 0.263000 0.901000 -0.344000
v 0.476000 0.770000 -0.426000
v 0.689000 0.638000 -0.344000
v 0.820000 0.557000 -0.132000
v 0.820000 0.557000 0.132000
v 0.689000 0.638000 0.344000
v 0.476000 0.770000 0.426000
v 0.263000 0.901000 0.344000
v 0.131000 0.983000 0.131000
v 0.131000 -0.983000 0.131000
v 0.263000 -0.901000 0.344000
v 0.476000 -0.770000 0.426000
v 0.689000 -0.638000 0.344000
v 0.820000 -0.557000 0.132000
v 0.820000 -0.557000 -0.132000
v 0.689000 -0.638000 -0.344000
v 0.476000 -0.770000 -0.426000
v 0.263000 -0.901000 -0.344000
v 0.131000 -0.983000 -0.131000
v 0.983000 0.131000 -0.131000
v 0.901000 0.344000 -0.263000
v 0.770000 0.426000 -0.476000
v 0.638000 0.344000 -0.689000
v 0.557000 0.132000 -0.820000
v 0.557000 -0.132000 -0.820000
v 0.638000 -0.344000 -0.689000
v 0.770000 -0.426000 -0.476000
v 0.901000 -0.344000 -0.263000
v 0.983000 -0.131000 -0.131000
v -0.983000 -0.131000 -0.131000
v -0.901000 -0.344000 -0.263000
v -0.770000 -0.426000 -0.476000
v -0.638000 -0.344000 -0.689000
v -0.557000 -0.132000 -0.820000
v -0.557000 0.132000 -0.820000
v -0.638000 0.344000 -0.689000
v -0.770000 0.426000 -0.476000
v -0.901000 0.344000 -0.263000
v -0.983000 0.131000 -0.131000
v -0.131000 -0.131000 -0.983000
v -0.344000 -0.263000 -0.901000
v -0.426000 -0.476000 -0.770000
v -0.344000 -0.689000 -0.638000
v -0.132000 -0.820000 -0.557000
v 0.132000 -0.820000 -0.557000
v 0.344000 -0.689000 -0.638000
v 0.426000 -0.476000 -0.770000
v 0.344000 -0.263000 -0.901000
v 0.131000 -0.131000 -0.983000
v 0.131000 0.131000 -0.983000
v 0.344000 0.263000 -0.901000
v 0.426000 0.476000 -0.770000
v 0.344000 0.689000 -0.638000
v 0.132000 0.820000 -0.557000
v -0.132000 0.820000 -0.557000
v -0.344000 0.689000 -0.638000
v -0.426000 0.476000 -0.770000
v -0.344000 0.263000 -0.901000
v -0.131000 0.131000 -0.983000
vn -0.000000 0.000000 1.000000
vn -0.497512 0.307363 0.811178
vn 0.497512 0.307363 0.811178
vn 0.497512 -0.307363 0.811178
vn -0.497512 -0.307363 0.811178
vn -0.808697 0.500951 0.308313
vn 0.808697 0.500951 0.308313
vn 0.808697 -0.500952 0.308312
vn -0.808697 -0.500951 0.308312
vn -0.307363 0.811178 0.497512
vn 0.307363 0.811178 0.497512
vn 0.307363 -0.811178 0.497512
vn -0.307363 -0.811178 0.497512
vn 0.000000 1.000000 0.000000
vn 0.000000 -1.000000 0.000000
vn -0.808697 0.500951 -0.308312
vn 0.808697 0.500952 -0.308312
vn 0.808697 -0.500951 -0.308313
vn -0.808697 -0.500951 -0.308313
vn -0.307363 0.811178 -0.497512
vn 0.307363 0.811178 -0.497512
vn 0.307363 -0.811178 -0.497512
vn -0.307363 -0.811178 -0.497512
vn -1.000000 0.000000 0.000000
vn 1.000000 0.000000 0.000000
vn -0.500951 0.308313 -0.808697
vn 0.500951 0.308313 -0.808697
vn 0.500951 -0.308312 -0.808697
vn -0.500951 -0.308312 -0.808697
vn -0.000000 0.000000 -1.000000
vn 0.000000 -0.934696 0.355448
vn -0.573804 -0.579531 0.578699
vn 0.005188 -0.525316 -0.850892
vn 0.005188 0.525316 0.850892
vn -0.005188 0.525316 -0.850891
vn 0.573804 0.579531 -0.578699
vn 0.850892 -0.005188 -0.525316
vn -0.850892 0.005188 0.525316
vn 0.578699 -0.573804 -0.579531
vn -0.525316 -0.850892 0.005188
vn 0.579531 -0.578699 0.573804
vn 0.005188 -0.525316 0.850891
vn 0.578699 0.573804 0.579531
vn -0.000000 -0.934696 -0.355448
vn 0.355448 0.000000 -0.934696
vn -0.525316 0.850892 -0.005187
vn -0.850892 -0.005188 -0.525316
vn 0.525316 -0.850891 0.005188
vn -0.355448 0.000000 -0.934696
vn -0.578699 0.573804 0.579531
vn -0.000000 0.934696 0.355449
vn 0.934696 -0.355448 0.000000
vn 0.525316 0.850891 -0.005188
vn -0.934696 -0.355448 -0.000000
vn 0.850892 0.005188 0.525316
vn -0.579531 0.578699 -0.573804
vn -0.355448 -0.000000 0.934696
vn 0.355448 -0.000000 0.934696
vn -0.934696 0.355448 -0.000000
vn 0.934696 0.355448 -0.000000
vn -0.578699 -0.573804 -0.579531
vn 0.000000 0.934696 -0.355448
vn -0.500951 0.308312 0.808697
vn 0.500951 0.308312 0.808697
vn 0.500951 -0.308313 0.808697
vn -0.500951 -0.308313 0.808697
vn -0.811178 0.497512 0.307363
vn 0.811178 0.497512 0.307363
vn 0.811178 -0.497512 0.307363
vn -0.811178 -0.497512 0.307363
vn -0.308312 0.808697 0.500951
vn 0.308312 0.808697 0.500952
vn 0.308313 -0.808697 0.500951
vn -0.308313 -0.808697 0.500951
vn -0.811178 0.497512 -0.307363
vn 0.811178 0.497512 -0.307363
vn 0.811178 -0.497512 -0.307363
vn -0.811178 -0.497512 -0.307363
vn -0.308313 0.808697 -0.500951
vn 0.308313 0.808697 -0.500951
vn 0.308312 -0.808697 -0.500951
vn -0.308312 -0.808697 -0.500952
vn -0.497512 0.307363 -0.811178
vn 0.497512 0.307363 -0.811178
vn 0.497512 -0.307363 -0.811178
vn -0.497512 -0.307363 -0.811178
vn 0.001771 -0.933599 0.358315
vn -0.003551 -0.933963 0.357353
vn 0.000000 -0.933966 0.357362
vn -0.579120 -0.576255 0.576671
vn -0.573785 -0.579551 0.578698
vn -0.579127 -0.576247 0.576672
vn -0.005188 -0.525316 -0.850892
vn 0.000000 -0.527683 -0.849442
vn -0.000908 -0.525322 -0.850903
vn 0.001011 -0.526504 -0.850172
vn 0.000000 -0.525323 -0.850903
vn 0.000000 -0.525907 -0.850542
vn 0.000000 -0.525908 -0.850542
vn -0.005188 0.525316 0.850892
vn 0.000000 0.527683 0.849442
vn -0.000908 0.525322 0.850903
vn 0.001011 0.526504 0.850172
vn 0.000000 0.525323 0.850903
vn 0.000000 0.525907 0.850542
vn 0.000000 0.525908 0.850542
vn 0.005188 0.525316 -0.850891
vn 0.000000 0.527683 -0.849441
vn 0.000908 0.525323 -0.850903
vn -0.001011 0.526505 -0.850172
vn -0.000000 0.525323 -0.850903
vn -0.000000 0.525908 -0.850542
vn 0.579121 0.576255 -0.576671
vn 0.579127 0.576247 -0.576672
vn 0.573785 0.579551 -0.578698
vn 0.850892 0.005188 -0.525316
vn 0.849441 0.000000 -0.527683
vn 0.850903 0.000908 -0.525323
vn 0.850172 -0.001011 -0.526505
vn 0.850903 0.000000 -0.525323
vn 0.850542 0.000000 -0.525907
vn 0.850542 0.000000 -0.525908
vn -0.850892 -0.005188 0.525316
vn -0.849441 -0.000000 0.527683
vn -0.850903 0.000908 0.525323
vn -0.850172 -0.001012 0.526505
vn -0.850903 -0.000000 0.525323
vn -0.850542 -0.000000 0.525908
vn 0.576671 -0.579120 -0.576255
vn 0.578698 -0.573785 -0.579551
vn 0.576673 -0.579127 -0.576247
vn -0.525316 -0.850892 -0.005188
vn -0.527683 -0.849441 -0.000000
vn -0.525322 -0.850903 -0.000908
vn -0.526505 -0.850172 0.001011
vn -0.525323 -0.850903 -0.000000
vn -0.525908 -0.850542 -0.000000
vn -0.525907 -0.850542 0.000000
vn 0.576255 -0.576671 0.579120
vn 0.576247 -0.576673 0.579127
vn 0.579551 -0.578698 0.573785
vn -0.005188 -0.525316 0.850891
vn 0.000000 -0.527683 0.849441
vn 0.000908 -0.525323 0.850903
vn -0.001011 -0.526505 0.850172
vn -0.000000 -0.525323 0.850903
vn -0.000000 -0.525908 0.850542
vn 0.576671 0.579120 0.576255
vn 0.578698 0.573785 0.579551
vn 0.576673 0.579127 0.576247
vn -0.001771 -0.933599 -0.358316
vn 0.000000 -0.933966 -0.357363
vn 0.003551 -0.933963 -0.357353
vn 0.358316 -0.001771 -0.933599
vn 0.357363 -0.000000 -0.933966
vn 0.357353 0.003551 -0.933963
vn -0.525316 0.850892 0.005188
vn -0.527683 0.849441 -0.000000
vn -0.525322 0.850903 0.000908
vn -0.526505 0.850172 -0.001011
vn -0.525323 0.850903 0.000000
vn -0.525908 0.850542 0.000000
vn -0.850892 0.005188 -0.525316
vn -0.849441 0.000000 -0.527683
vn -0.850903 -0.000908 -0.525323
vn -0.850172 0.001011 -0.526505
vn -0.850903 0.000000 -0.525323
vn -0.850542 0.000000 -0.525908
vn 0.525316 -0.850892 -0.005188
vn 0.527683 -0.849441 -0.000000
vn 0.525323 -0.850903 -0.000908
vn 0.526505 -0.850172 0.001011
vn 0.525323 -0.850903 -0.000000
vn 0.525908 -0.850541 0.000000
vn 0.525908 -0.850542 -0.000000
vn -0.358316 -0.001771 -0.933599
vn -0.357353 0.003551 -0.933963
vn -0.357362 -0.000000 -0.933966
vn -0.576671 0.579120 0.576255
vn -0.578698 0.573785 0.579551
vn -0.576673 0.579127 0.576247
vn -0.001771 0.933599 0.358316
vn 0.000000 0.933966 0.357363
vn 0.003551 0.933963 0.357353
vn 0.933599 -0.358316 -0.001771
vn 0.933963 -0.357353 0.003551
vn 0.933966 -0.357363 -0.000000
vn 0.525316 0.850892 0.005188
vn 0.527683 0.849441 -0.000000
vn 0.525322 0.850903 0.000908
vn 0.526505 0.850172 -0.001011
vn 0.525323 0.850903 0.000000
vn 0.525908 0.850541 -0.000000
vn 0.525908 0.850542 0.000000
vn -0.933599 -0.358316 -0.001771
vn -0.933963 -0.357353 0.003551
vn -0.933966 -0.357362 -0.000000
vn 0.850892 -0.005188 0.525316
vn 0.849441 -0.000000 0.527683
vn 0.850903 -0.000908 0.525323
vn 0.850172 0.001011 0.526505
vn 0.850903 -0.000000 0.525323
vn 0.850542 -0.000000 0.525908
vn -0.576255 0.576672 -0.579120
vn -0.579551 0.578699 -0.573785
vn -0.576247 0.576673 -0.579127
vn -0.358316 0.001771 0.933599
vn -0.357353 -0.003551 0.933963
vn -0.357362 0.000000 0.933966
vn 0.358315 0.001771 0.933599
vn 0.357353 -0.003551 0.933963
vn 0.357363 0.000000 0.933966
vn -0.933599 0.358316 0.001771
vn -0.933966 0.357363 0.000000
vn -0.933963 0.357353 -0.003551
vn 0.933599 0.358316 0.001771
vn 0.933963 0.357353 -0.003551
vn 0.933966 0.357363 0.000000
vn -0.576671 -0.579120 -0.576255
vn -0.578699 -0.573785 -0.579551
vn -0.576673 -0.579127 -0.576247
vn 0.001771 0.933599 -0.358315
vn -0.003551 0.933963 -0.357353
vn 0.000000 0.933966 -0.357362
s off
f 1//1 20//1 10//1
f 2//2 3//2 25//2
f 8//3 9//3 36//3
f 12//4 13//4 35//4
f 18//5 19//5 26//5
f 23//6 44//6 45//6
f 67//7 38//7 66//7
f 33//8 74//8 75//8
f 57//9 28//9 56//9
f 42//10 43//10 5//10
f 68//11 69//11 6//11
f 72//12 73//12 15//12
f 58//13 59//13 16//13
f 41//14 70//14 50//14
f 60//15 51//15 71//15
f 47//16 98//16 46//16
f 83//17 64//17 65//17
f 77//18 88//18 76//18
f 93//19 54//19 55//19
f 49//20 116//20 48//20
f 115//21 62//21 63//21
f 79//22 106//22 78//22
f 105//23 52//23 53//23
f 21//24 100//24 30//24
f 40//25 31//25 81//25
f 97//26 118//26 96//26
f 113//27 84//27 85//27
f 87//28 108//28 86//28
f 103//29 94//29 95//29
f 101//30 120//30 110//30
f 15//31 16//31 72//31
f 58//32 17//32 18//32
f 103//33 102//33 104//33
f 3//34 2//34 4//34
f 113//35 112//35 114//35
f 113//36 114//36 63//36
f 84//37 83//37 82//37
f 27//38 29//38 28//38
f 108//39 87//39 88//39
f 52//40 54//40 53//40
f 73//41 74//41 33//41
f 17//42 19//42 18//42
f 38//43 8//43 37//43
f 106//44 52//44 105//44
f 86//45 109//45 85//45
f 43//46 42//46 44//46
f 97//47 99//47 98//47
f 77//48 79//48 78//48
f 95//49 96//49 102//49
f 24//50 3//50 23//50
f 42//51 5//51 6//51
f 75//52 76//52 89//52
f 67//53 69//53 68//53
f 55//54 56//54 92//54
f 32//55 34//55 33//55
f 98//56 47//56 48//56
f 25//57 26//57 2//57
f 9//58 35//58 36//58
f 46//59 22//59 45//59
f 65//60 66//60 39//60
f 103//61 93//61 94//61
f 115//62 116//62 62//62
f 20//1 11//1 10//1
f 3//63 24//63 25//63
f 37//64 8//64 36//64
f 13//65 34//65 35//65
f 27//66 18//66 26//66
f 22//67 23//67 45//67
f 38//68 39//68 66//68
f 32//69 33//69 75//69
f 28//70 29//70 56//70
f 43//71 4//71 5//71
f 7//72 68//72 6//72
f 73//73 14//73 15//73
f 17//74 58//74 16//74
f 70//14 61//14 50//14
f 51//15 80//15 71//15
f 98//75 99//75 46//75
f 82//76 83//76 65//76
f 88//77 89//77 76//77
f 92//78 93//78 55//78
f 116//79 117//79 48//79
f 114//80 115//80 63//80
f 106//81 107//81 78//81
f 104//82 105//82 53//82
f 100//24 91//24 30//24
f 31//25 90//25 81//25
f 118//83 119//83 96//83
f 112//84 113//84 85//84
f 108//85 109//85 86//85
f 102//86 103//86 95//86
f 120//30 111//30 110//30
f 72//87 16//87 71//87
f 16//88 59//88 60//88
f 71//89 16//89 60//89
f 57//90 58//90 18//90
f 28//91 57//91 27//91
f 57//92 18//92 27//92
f 107//93 109//93 108//93
f 102//94 101//94 110//94
f 104//95 102//95 110//95
f 104//96 110//96 109//96
f 104//97 109//97 107//97
f 105//98 104//98 106//98
f 104//99 107//99 106//99
f 7//100 9//100 8//100
f 2//101 1//101 10//101
f 4//102 2//102 10//102
f 4//103 10//103 9//103
f 4//104 9//104 7//104
f 5//105 4//105 6//105
f 4//106 7//106 6//106
f 117//107 119//107 118//107
f 112//108 111//108 120//108
f 114//109 112//109 120//109
f 114//110 120//110 119//110
f 114//111 119//111 117//111
f 115//112 114//112 116//112
f 114//112 117//112 116//112
f 113//113 63//113 64//113
f 84//114 113//114 64//114
f 83//115 84//115 64//115
f 87//116 89//116 88//116
f 90//117 82//117 81//117
f 84//118 82//118 90//118
f 84//119 90//119 89//119
f 84//120 89//120 87//120
f 85//121 84//121 86//121
f 84//122 87//122 86//122
f 22//123 24//123 23//123
f 21//124 30//124 22//124
f 22//125 30//125 24//125
f 30//126 29//126 24//126
f 29//127 27//127 24//127
f 27//128 26//128 24//128
f 26//128 25//128 24//128
f 107//129 108//129 88//129
f 78//130 107//130 77//130
f 107//131 88//131 77//131
f 59//132 58//132 57//132
f 51//133 60//133 52//133
f 52//134 60//134 54//134
f 60//135 59//135 54//135
f 59//136 57//136 54//136
f 57//137 56//137 54//137
f 56//138 55//138 54//138
f 73//139 33//139 34//139
f 14//140 73//140 34//140
f 13//141 14//141 34//141
f 13//142 12//142 14//142
f 12//143 11//143 20//143
f 14//144 12//144 20//144
f 14//145 20//145 19//145
f 14//146 19//146 17//146
f 15//147 14//147 16//147
f 14//147 17//147 16//147
f 7//148 8//148 38//148
f 68//149 7//149 67//149
f 7//150 38//150 67//150
f 51//151 52//151 106//151
f 80//152 51//152 106//152
f 79//153 80//153 106//153
f 109//154 110//154 85//154
f 110//155 111//155 85//155
f 111//156 112//156 85//156
f 47//157 49//157 48//157
f 42//158 41//158 50//158
f 44//159 42//159 50//159
f 44//160 50//160 49//160
f 44//161 49//161 47//161
f 45//162 44//162 46//162
f 44//162 47//162 46//162
f 93//163 92//163 94//163
f 92//164 91//164 100//164
f 94//165 92//165 100//165
f 94//166 100//166 99//166
f 94//167 99//167 97//167
f 95//168 94//168 96//168
f 94//168 97//168 96//168
f 74//169 73//169 72//169
f 79//170 71//170 80//170
f 77//171 71//171 79//171
f 77//172 72//172 71//172
f 74//173 72//173 77//173
f 75//174 74//174 76//174
f 74//175 77//175 76//175
f 102//176 96//176 101//176
f 96//177 119//177 120//177
f 101//178 96//178 120//178
f 3//179 4//179 23//179
f 4//180 43//180 44//180
f 23//181 4//181 44//181
f 41//182 42//182 6//182
f 70//183 41//183 6//183
f 69//184 70//184 6//184
f 75//185 89//185 90//185
f 32//186 75//186 31//186
f 75//187 90//187 31//187
f 62//188 64//188 63//188
f 61//189 70//189 69//189
f 61//190 69//190 67//190
f 62//191 61//191 67//191
f 64//192 62//192 67//192
f 65//193 64//193 66//193
f 64//194 67//194 66//194
f 92//195 56//195 91//195
f 56//196 29//196 30//196
f 91//197 56//197 30//197
f 37//198 39//198 38//198
f 40//199 32//199 31//199
f 40//200 34//200 32//200
f 39//201 34//201 40//201
f 37//202 34//202 39//202
f 36//203 35//203 37//203
f 35//203 34//203 37//203
f 97//204 98//204 48//204
f 118//205 97//205 117//205
f 97//206 48//206 117//206
f 2//207 26//207 1//207
f 26//208 19//208 20//208
f 1//209 26//209 20//209
f 10//210 35//210 9//210
f 11//211 12//211 35//211
f 10//212 11//212 35//212
f 21//213 22//213 46//213
f 100//214 21//214 46//214
f 99//215 100//215 46//215
f 65//216 39//216 40//216
f 82//217 65//217 81//217
f 65//218 40//218 81//218
f 104//219 93//219 103//219
f 53//220 54//220 104//220
f 54//221 93//221 104//221
f 62//222 116//222 61//222
f 116//223 49//223 50//223
f 61//224 116//224 50//224
