# Blender v2.69 (sub 0) OBJ File: ''
# www.blender.org
o dodeca.001
v -0.098000 -0.195000 0.976000
v -0.300000 -0.320000 0.899000
v -0.616000 -0.125000 0.778000
v -0.616000 0.125000 0.778000
v -0.300000 0.320000 0.899000
v -0.098000 0.195000 0.976000
v 0.098000 0.195000 0.976000
v 0.300000 0.320000 0.899000
v 0.616000 0.125000 0.778000
v 0.616000 -0.125000 0.778000
v 0.300000 -0.320000 0.899000
v 0.098000 -0.195000 0.976000
v -0.360000 0.478000 0.801000
v -0.676000 0.283000 0.680000
v -0.801000 0.360000 0.478000
v -0.680000 0.676000 0.283000
v -0.478000 0.801000 0.360000
v -0.283000 0.680000 0.676000
v -0.283000 -0.680000 0.676000
v -0.478000 -0.801000 0.360000
v -0.680000 -0.676000 0.283000
v -0.801000 -0.360000 0.478000
v -0.676000 -0.283000 0.680000
v -0.360000 -0.478000 0.801000
v 0.360000 -0.478000 0.801000
v 0.676000 -0.283000 0.680000
v 0.801000 -0.360000 0.478000
v 0.680000 -0.676000 0.283000
v 0.478000 -0.801000 0.360000
v 0.283000 -0.680000 0.676000
v 0.283000 0.680000 0.676000
v 0.478000 0.801000 0.360000
v 0.680000 0.676000 0.283000
v 0.801000 0.360000 0.478000
v 0.676000 0.283000 0.680000
v 0.360000 0.478000 0.801000
v -0.125000 0.778000 0.616000
v -0.320000 0.899000 0.300000
v -0.195000 0.976000 0.098000
v 0.195000 0.976000 0.098000
v 0.320000 0.899000 0.300000
v 0.125000 0.778000 0.616000
v 0.125000 -0.778000 0.616000
v 0.320000 -0.899000 0.300000
v 0.195000 -0.976000 0.098000
v -0.195000 -0.976000 0.098000
v -0.320000 -0.899000 0.300000
v -0.125000 -0.778000 0.616000
v -0.778000 0.616000 0.125000
v -0.899000 0.300000 0.320000
v -0.976000 0.098000 0.195000
v -0.976000 0.098000 -0.195000
v -0.899000 0.300000 -0.320000
v -0.778000 0.616000 -0.125000
v -0.778000 -0.616000 -0.125000
v -0.899000 -0.300000 -0.320000
v -0.976000 -0.098000 -0.195000
v -0.976000 -0.098000 0.195000
v -0.899000 -0.300000 0.320000
v -0.778000 -0.616000 0.125000
v 0.778000 -0.616000 0.125000
v 0.899000 -0.300000 0.320000
v 0.976000 -0.098000 0.195000
v 0.976000 -0.098000 -0.195000
v 0.899000 -0.300000 -0.320000
v 0.778000 -0.616000 -0.125000
v 0.778000 0.616000 -0.125000
v 0.899000 0.300000 -0.320000
v 0.976000 0.098000 -0.195000
v 0.976000 0.098000 0.195000
v 0.899000 0.300000 0.320000
v 0.778000 0.616000 0.125000
v -0.283000 0.680000 -0.676000
v -0.478000 0.801000 -0.360000
v -0.680000 0.676000 -0.283000
v -0.801000 0.360000 -0.478000
v -0.676000 0.283000 -0.680000
v -0.360000 0.478000 -0.801000
v -0.360000 -0.478000 -0.801000
v -0.676000 -0.283000 -0.680000
v -0.801000 -0.360000 -0.478000
v -0.680000 -0.676000 -0.283000
v -0.478000 -0.801000 -0.360000
v -0.283000 -0.680000 -0.676000
v 0.283000 -0.680000 -0.676000
v 0.478000 -0.801000 -0.360000
v 0.680000 -0.676000 -0.283000
v 0.801000 -0.360000 -0.478000
v 0.676000 -0.283000 -0.680000
v 0.360000 -0.478000 -0.801000
v 0.360000 0.478000 -0.801000
v 0.676000 0.283000 -0.680000
v 0.801000 0.360000 -0.478000
v 0.680000 0.676000 -0.283000
v 0.478000 0.801000 -0.360000
v 0.283000 0.680000 -0.676000
v 0.125000 0.778000 -0.616000
v 0.320000 0.899000 -0.300000
v 0.195000 0.976000 -0.098000
v -0.195000 0.976000 -0.098000
v -0.320000 0.899000 -0.300000
v -0.125000 0.778000 -0.616000
v -0.125000 -0.778000 -0.616000
v -0.320000 -0.899000 -0.300000
v -0.195000 -0.976000 -0.098000
v 0.195000 -0.976000 -0.098000
v 0.320000 -0.899000 -0.300000
v 0.125000 -0.778000 -0.616000
v 0.098000 -0.195000 -0.976000
v 0.300000 -0.320000 -0.899000
v 0.616000 -0.125000 -0.778000
v 0.616000 0.125000 -0.778000
v 0.300000 0.320000 -0.899000
v 0.098000 0.195000 -0.976000
v -0.098000 0.195000 -0.976000
v -0.300000 0.320000 -0.899000
v -0.616000 0.125000 -0.778000
v -0.616000 -0.125000 -0.778000
v -0.300000 -0.320000 -0.899000
v -0.098000 -0.195000 -0.976000
vn -0.000000 -0.000000 1.000000
vn -0.501032 0.310727 0.807722
vn 0.501032 0.310727 0.807723
vn 0.501032 -0.310727 0.807722
vn -0.501032 -0.310727 0.807722
vn -0.807722 0.501032 0.310727
vn 0.807722 0.501032 0.310727
vn 0.807722 -0.501032 0.310727
vn -0.807722 -0.501032 0.310727
vn -0.310727 0.807722 0.501032
vn 0.310727 0.807722 0.501032
vn 0.310727 -0.807723 0.501032
vn -0.310727 -0.807723 0.501032
vn 0.000000 1.000000 -0.000000
vn 0.000000 -1.000000 -0.000000
vn -0.807722 0.501032 -0.310727
vn 0.807722 0.501032 -0.310727
vn 0.807722 -0.501032 -0.310727
vn -0.807722 -0.501032 -0.310727
vn -0.310727 0.807723 -0.501032
vn 0.310727 0.807722 -0.501032
vn 0.310727 -0.807722 -0.501033
vn -0.310727 -0.807722 -0.501032
vn -1.000000 -0.000000 0.000000
vn 1.000000 -0.000000 0.000000
vn -0.501032 0.310727 -0.807722
vn 0.501032 0.310727 -0.807722
vn 0.501032 -0.310727 -0.807722
vn -0.501032 -0.310727 -0.807722
vn 0.000000 0.000000 -1.000000
vn 0.577350 0.577350 -0.577350
vn -0.357593 -0.000000 -0.933878
vn 0.527894 0.849305 0.002922
vn -0.577350 -0.577350 -0.577350
vn -0.849305 0.002922 -0.527894
vn 0.002921 -0.527894 -0.849306
vn -0.933878 -0.357592 0.000000
vn -0.000000 -0.933878 -0.357593
vn 0.527894 -0.849305 -0.002922
vn -0.002921 -0.527894 0.849305
vn -0.527894 -0.849305 -0.002921
vn 0.577350 -0.577350 -0.577350
vn -0.849305 -0.002922 0.527894
vn -0.000000 -0.933878 0.357592
vn 0.577350 -0.577350 0.577350
vn 0.933878 -0.357593 0.000000
vn 0.002922 0.527894 0.849305
vn -0.527894 0.849305 0.002923
vn 0.357592 0.000000 0.933878
vn -0.933878 0.357592 -0.000000
vn 0.933878 0.357592 0.000000
vn -0.577351 -0.577350 0.577350
vn 0.849305 0.002922 -0.527894
vn -0.577350 0.577350 0.577350
vn 0.577350 0.577350 0.577351
vn 0.000000 0.933878 -0.357592
vn -0.000000 0.933878 0.357593
vn -0.002921 0.527894 -0.849305
vn -0.577350 0.577350 -0.577350
vn -0.357593 0.000000 0.933878
vn 0.357592 0.000000 -0.933878
vn 0.849305 -0.002922 0.527894
vn -0.501032 0.310727 0.807723
vn 0.310727 0.807722 0.501033
vn 0.310727 -0.807722 0.501032
vn 0.310727 0.807723 -0.501032
vn 0.310727 -0.807722 -0.501032
vn 0.501032 -0.310727 -0.807723
vn -0.501032 -0.310727 -0.807723
vn -0.357592 0.000000 -0.933878
vn -0.356188 0.000000 -0.934414
vn -0.356188 0.000000 -0.934415
vn 0.526131 0.850403 0.000285
vn 0.527894 0.849305 -0.002923
vn 0.526131 0.850403 -0.000284
vn 0.526053 0.850452 0.000000
vn 0.522154 0.852851 -0.000000
vn -0.850403 0.000285 -0.526131
vn -0.849305 -0.002920 -0.527894
vn -0.850403 -0.000284 -0.526131
vn -0.850452 -0.000000 -0.526053
vn -0.852851 0.000000 -0.522154
vn 0.000285 -0.526131 -0.850403
vn -0.002921 -0.527894 -0.849306
vn -0.000284 -0.526131 -0.850403
vn 0.000000 -0.526053 -0.850452
vn 0.000000 -0.522154 -0.852851
vn -0.934415 -0.356188 -0.000000
vn -0.934414 -0.356188 -0.000000
vn 0.000000 -0.934414 -0.356188
vn 0.526131 -0.850403 -0.000284
vn 0.527894 -0.849305 0.002921
vn 0.526131 -0.850403 0.000285
vn 0.526053 -0.850452 0.000000
vn 0.522154 -0.852851 0.000000
vn -0.000284 -0.526131 0.850403
vn 0.002922 -0.527894 0.849305
vn 0.000285 -0.526131 0.850403
vn 0.000000 -0.526053 0.850452
vn 0.000000 -0.522154 0.852851
vn -0.526131 -0.850403 -0.000284
vn -0.527894 -0.849305 0.002922
vn -0.526131 -0.850403 0.000284
vn -0.526053 -0.850452 -0.000000
vn -0.522154 -0.852851 -0.000000
vn -0.522153 -0.852852 -0.000000
vn -0.850403 -0.000284 0.526131
vn -0.849305 0.002922 0.527894
vn -0.850403 0.000285 0.526131
vn -0.850452 0.000000 0.526053
vn -0.852851 -0.000000 0.522154
vn 0.000000 -0.934414 0.356188
vn 0.934414 -0.356188 -0.000000
vn 0.934415 -0.356188 -0.000000
vn 0.000285 0.526131 0.850403
vn -0.002921 0.527894 0.849306
vn -0.000284 0.526131 0.850403
vn 0.000000 0.526053 0.850452
vn -0.000000 0.522154 0.852851
vn -0.526131 0.850403 0.000285
vn -0.527894 0.849305 -0.002923
vn -0.526131 0.850403 -0.000285
vn -0.526053 0.850452 0.000000
vn -0.522154 0.852852 -0.000000
vn -0.522154 0.852851 0.000000
vn 0.356188 -0.000000 0.934414
vn -0.934415 0.356188 0.000000
vn -0.934414 0.356188 0.000000
vn 0.934414 0.356188 0.000000
vn 0.934415 0.356187 0.000000
vn -0.577350 -0.577350 0.577350
vn 0.850403 0.000284 -0.526131
vn 0.849305 -0.002921 -0.527894
vn 0.850403 -0.000284 -0.526131
vn 0.850452 0.000000 -0.526053
vn 0.852851 0.000000 -0.522154
vn 0.577350 0.577350 0.577350
vn -0.000000 0.934414 -0.356188
vn -0.000000 0.934415 -0.356187
vn 0.000000 0.934414 0.356188
vn -0.000284 0.526131 -0.850403
vn 0.002922 0.527894 -0.849305
vn 0.000285 0.526131 -0.850403
vn 0.000000 0.526053 -0.850452
vn 0.000000 0.522154 -0.852851
vn -0.357592 -0.000000 0.933878
vn -0.356188 -0.000000 0.934414
vn -0.356188 -0.000000 0.934415
vn 0.356188 0.000000 -0.934414
vn 0.850403 -0.000284 0.526131
vn 0.849305 0.002923 0.527894
vn 0.850403 0.000284 0.526131
vn 0.850452 0.000000 0.526053
vn 0.852851 -0.000000 0.522154
s off
f 12//1 7//1 1//1
f 5//2 13//2 14//2
f 36//3 8//3 35//3
f 11//4 25//4 26//4
f 24//5 2//5 23//5
f 15//6 16//6 50//6
f 33//7 34//7 71//7
f 27//8 28//8 62//8
f 21//9 22//9 59//9
f 38//10 17//10 18//10
f 32//11 41//11 31//11
f 44//12 29//12 30//12
f 20//13 47//13 19//13
f 39//14 40//14 100//14
f 46//15 105//15 45//15
f 75//16 76//16 53//16
f 93//17 94//17 68//17
f 87//18 88//18 65//18
f 81//19 82//19 56//19
f 101//20 102//20 73//20
f 97//21 98//21 96//21
f 107//22 108//22 85//22
f 103//23 104//23 84//23
f 51//24 52//24 58//24
f 70//25 63//25 69//25
f 77//26 78//26 116//26
f 91//27 92//27 113//27
f 89//28 90//28 110//28
f 79//29 80//29 119//29
f 120//30 115//30 109//30
f 92//31 91//31 96//31
f 119//32 118//32 117//32
f 99//33 95//33 98//33
f 83//34 82//34 84//34
f 57//35 81//35 56//35
f 79//36 119//36 120//36
f 60//37 56//37 55//37
f 108//38 104//38 103//38
f 45//39 29//39 44//39
f 25//40 11//40 12//40
f 47//41 20//41 46//41
f 85//42 87//42 86//42
f 51//43 15//43 50//43
f 43//44 48//44 44//44
f 30//45 26//45 25//45
f 61//46 66//46 65//46
f 6//47 13//47 5//47
f 74//48 100//48 101//48
f 10//49 9//49 11//49
f 54//50 50//50 49//50
f 71//51 67//51 72//51
f 19//52 24//52 23//52
f 88//53 64//53 65//53
f 17//54 16//54 18//54
f 33//55 32//55 31//55
f 98//56 97//56 102//56
f 42//57 38//57 37//57
f 91//58 113//58 114//58
f 77//59 73//59 78//59
f 5//60 4//60 3//60
f 111//61 113//61 112//61
f 70//62 71//62 34//62
f 7//1 6//1 1//1
f 4//63 5//63 14//63
f 8//3 9//3 35//3
f 10//4 11//4 26//4
f 2//5 3//5 23//5
f 16//6 49//6 50//6
f 72//7 33//7 71//7
f 28//8 61//8 62//8
f 60//9 21//9 59//9
f 37//10 38//10 18//10
f 41//64 42//64 31//64
f 43//65 44//65 30//65
f 47//13 48//13 19//13
f 40//14 99//14 100//14
f 105//15 106//15 45//15
f 54//16 75//16 53//16
f 94//17 67//17 68//17
f 66//18 87//18 65//18
f 82//19 55//19 56//19
f 74//20 101//20 73//20
f 98//66 95//66 96//66
f 86//67 107//67 85//67
f 104//23 83//23 84//23
f 52//24 57//24 58//24
f 63//25 64//25 69//25
f 117//26 77//26 116//26
f 92//27 112//27 113//27
f 111//68 89//68 110//68
f 80//69 118//69 119//69
f 115//30 114//30 109//30
f 92//31 96//31 95//31
f 93//31 92//31 95//31
f 94//31 93//31 95//31
f 119//70 117//70 116//70
f 120//71 119//71 115//71
f 119//72 116//72 115//72
f 99//73 94//73 95//73
f 40//74 41//74 32//74
f 40//75 32//75 33//75
f 99//76 40//76 33//76
f 94//76 99//76 33//76
f 67//77 94//77 72//77
f 94//77 33//77 72//77
f 82//34 81//34 84//34
f 81//34 80//34 79//34
f 84//34 81//34 79//34
f 57//78 80//78 81//78
f 53//79 76//79 52//79
f 76//80 77//80 52//80
f 52//81 80//81 57//81
f 52//81 77//81 80//81
f 77//82 117//82 80//82
f 117//82 118//82 80//82
f 84//83 79//83 120//83
f 90//84 109//84 110//84
f 85//85 109//85 90//85
f 84//86 120//86 109//86
f 84//86 109//86 85//86
f 103//87 84//87 108//87
f 84//87 85//87 108//87
f 60//37 59//37 56//37
f 59//88 58//88 56//88
f 58//89 57//89 56//89
f 108//38 107//38 104//38
f 107//90 106//90 104//90
f 106//90 105//90 104//90
f 28//91 29//91 45//91
f 86//92 106//92 107//92
f 87//93 106//93 86//93
f 87//94 45//94 106//94
f 28//94 45//94 87//94
f 61//95 28//95 66//95
f 28//95 87//95 66//95
f 30//96 25//96 12//96
f 24//97 1//97 2//97
f 19//98 1//98 24//98
f 30//99 12//99 1//99
f 30//99 1//99 19//99
f 43//100 30//100 48//100
f 30//100 19//100 48//100
f 20//101 21//101 46//101
f 105//102 83//102 104//102
f 105//103 82//103 83//103
f 46//104 82//104 105//104
f 46//104 21//104 82//104
f 21//105 60//105 82//105
f 60//106 55//106 82//106
f 85//42 88//42 87//42
f 90//42 89//42 88//42
f 85//42 90//42 88//42
f 14//107 15//107 51//107
f 22//108 58//108 59//108
f 23//109 58//109 22//109
f 14//110 51//110 58//110
f 14//110 58//110 23//110
f 4//111 14//111 3//111
f 14//111 23//111 3//111
f 48//44 47//44 44//44
f 47//112 46//112 44//112
f 46//112 45//112 44//112
f 29//45 26//45 30//45
f 28//45 27//45 29//45
f 27//45 26//45 29//45
f 62//46 61//46 65//46
f 63//113 62//113 64//113
f 62//114 65//114 64//114
f 6//115 18//115 13//115
f 36//116 7//116 8//116
f 31//117 7//117 36//117
f 7//118 18//118 6//118
f 31//118 18//118 7//118
f 42//119 37//119 31//119
f 37//119 18//119 31//119
f 75//120 100//120 74//120
f 17//121 38//121 39//121
f 16//122 17//122 39//122
f 16//123 39//123 100//123
f 16//123 100//123 75//123
f 49//124 16//124 54//124
f 16//125 75//125 54//125
f 9//49 8//49 11//49
f 8//126 7//126 11//126
f 7//126 12//126 11//126
f 54//50 53//50 50//50
f 53//127 52//127 50//127
f 52//128 51//128 50//128
f 71//51 68//51 67//51
f 70//129 69//129 71//129
f 69//130 68//130 71//130
f 20//131 19//131 23//131
f 21//131 20//131 22//131
f 20//131 23//131 22//131
f 88//132 89//132 64//132
f 69//133 93//133 68//133
f 69//134 92//134 93//134
f 64//135 89//135 69//135
f 69//135 89//135 92//135
f 89//136 111//136 92//136
f 111//136 112//136 92//136
f 16//54 15//54 18//54
f 15//54 14//54 13//54
f 18//54 15//54 13//54
f 34//137 33//137 31//137
f 35//137 34//137 36//137
f 34//137 31//137 36//137
f 98//56 102//56 101//56
f 99//138 98//138 100//138
f 98//139 101//139 100//139
f 42//57 41//57 38//57
f 41//140 40//140 38//140
f 40//140 39//140 38//140
f 96//141 91//141 114//141
f 78//142 115//142 116//142
f 73//143 115//143 78//143
f 96//144 114//144 115//144
f 96//144 115//144 73//144
f 97//145 96//145 102//145
f 96//145 73//145 102//145
f 74//59 73//59 77//59
f 75//59 74//59 76//59
f 74//59 77//59 76//59
f 5//146 3//146 2//146
f 6//147 5//147 1//147
f 5//148 2//148 1//148
f 111//61 110//61 113//61
f 110//149 109//149 113//149
f 109//149 114//149 113//149
f 70//150 34//150 35//150
f 62//151 63//151 27//151
f 27//152 63//152 26//152
f 63//153 70//153 35//153
f 26//153 63//153 35//153
f 10//154 26//154 9//154
f 26//154 35//154 9//154
