# Blender v2.69 (sub 0) OBJ File: ''
# www.blender.org
o doda
v -0.098000 -0.195000 0.976000
v -0.300000 -0.320000 0.899000
v -0.616000 -0.125000 0.778000
v -0.616000 0.125000 0.778000
v -0.300000 0.320000 0.899000
v -0.098000 0.195000 0.976000
v 0.098000 0.195000 0.976000
v 0.300000 0.320000 0.899000
v 0.616000 0.125000 0.778000
v 0.616000 -0.125000 0.778000
v 0.300000 -0.320000 0.899000
v 0.098000 -0.195000 0.976000
v -0.360000 0.478000 0.801000
v -0.676000 0.283000 0.680000
v -0.801000 0.360000 0.478000
v -0.680000 0.676000 0.283000
v -0.478000 0.801000 0.360000
v -0.283000 0.680000 0.676000
v -0.283000 -0.680000 0.676000
v -0.478000 -0.801000 0.360000
v -0.680000 -0.676000 0.283000
v -0.801000 -0.360000 0.478000
v -0.676000 -0.283000 0.680000
v -0.360000 -0.478000 0.801000
v 0.360000 -0.478000 0.801000
v 0.676000 -0.283000 0.680000
v 0.801000 -0.360000 0.478000
v 0.680000 -0.676000 0.283000
v 0.478000 -0.801000 0.360000
v 0.283000 -0.680000 0.676000
v 0.283000 0.680000 0.676000
v 0.478000 0.801000 0.360000
v 0.680000 0.676000 0.283000
v 0.801000 0.360000 0.478000
v 0.676000 0.283000 0.680000
v 0.360000 0.478000 0.801000
v -0.125000 0.778000 0.616000
v -0.320000 0.899000 0.300000
v -0.195000 0.976000 0.098000
v 0.195000 0.976000 0.098000
v 0.320000 0.899000 0.300000
v 0.125000 0.778000 0.616000
v 0.125000 -0.778000 0.616000
v 0.320000 -0.899000 0.300000
v 0.195000 -0.976000 0.098000
v -0.195000 -0.976000 0.098000
v -0.320000 -0.899000 0.300000
v -0.125000 -0.778000 0.616000
v -0.778000 0.616000 0.125000
v -0.899000 0.300000 0.320000
v -0.976000 0.098000 0.195000
v -0.976000 0.098000 -0.195000
v -0.899000 0.300000 -0.320000
v -0.778000 0.616000 -0.125000
v -0.778000 -0.616000 -0.125000
v -0.899000 -0.300000 -0.320000
v -0.976000 -0.098000 -0.195000
v -0.976000 -0.098000 0.195000
v -0.899000 -0.300000 0.320000
v -0.778000 -0.616000 0.125000
v 0.778000 -0.616000 0.125000
v 0.899000 -0.300000 0.320000
v 0.976000 -0.098000 0.195000
v 0.976000 -0.098000 -0.195000
v 0.899000 -0.300000 -0.320000
v 0.778000 -0.616000 -0.125000
v 0.778000 0.616000 -0.125000
v 0.899000 0.300000 -0.320000
v 0.976000 0.098000 -0.195000
v 0.976000 0.098000 0.195000
v 0.899000 0.300000 0.320000
v 0.778000 0.616000 0.125000
v -0.283000 0.680000 -0.676000
v -0.478000 0.801000 -0.360000
v -0.680000 0.676000 -0.283000
v -0.801000 0.360000 -0.478000
v -0.676000 0.283000 -0.680000
v -0.360000 0.478000 -0.801000
v -0.360000 -0.478000 -0.801000
v -0.676000 -0.283000 -0.680000
v -0.801000 -0.360000 -0.478000
v -0.680000 -0.676000 -0.283000
v -0.478000 -0.801000 -0.360000
v -0.283000 -0.680000 -0.676000
v 0.283000 -0.680000 -0.676000
v 0.478000 -0.801000 -0.360000
v 0.680000 -0.676000 -0.283000
v 0.801000 -0.360000 -0.478000
v 0.676000 -0.283000 -0.680000
v 0.360000 -0.478000 -0.801000
v 0.360000 0.478000 -0.801000
v 0.676000 0.283000 -0.680000
v 0.801000 0.360000 -0.478000
v 0.680000 0.676000 -0.283000
v 0.478000 0.801000 -0.360000
v 0.283000 0.680000 -0.676000
v 0.125000 0.778000 -0.616000
v 0.320000 0.899000 -0.300000
v 0.195000 0.976000 -0.098000
v -0.195000 0.976000 -0.098000
v -0.320000 0.899000 -0.300000
v -0.125000 0.778000 -0.616000
v -0.125000 -0.778000 -0.616000
v -0.320000 -0.899000 -0.300000
v -0.195000 -0.976000 -0.098000
v 0.195000 -0.976000 -0.098000
v 0.320000 -0.899000 -0.300000
v 0.125000 -0.778000 -0.616000
v 0.098000 -0.195000 -0.976000
v 0.300000 -0.320000 -0.899000
v 0.616000 -0.125000 -0.778000
v 0.616000 0.125000 -0.778000
v 0.300000 0.320000 -0.899000
v 0.098000 0.195000 -0.976000
v -0.098000 0.195000 -0.976000
v -0.300000 0.320000 -0.899000
v -0.616000 0.125000 -0.778000
v -0.616000 -0.125000 -0.778000
v -0.300000 -0.320000 -0.899000
v -0.098000 -0.195000 -0.976000
vn 0.000000 0.000000 -1.000000
vn 0.501032 -0.310727 -0.807723
vn -0.501032 -0.310727 -0.807722
vn -0.501032 0.310727 -0.807722
vn 0.501032 0.310727 -0.807722
vn 0.807722 -0.501032 -0.310727
vn -0.807722 -0.501032 -0.310727
vn -0.807722 0.501032 -0.310727
vn 0.807722 0.501032 -0.310727
vn 0.310727 -0.807722 -0.501033
vn -0.310727 -0.807722 -0.501032
vn -0.310727 0.807723 -0.501032
vn 0.310727 0.807723 -0.501032
vn 0.000000 -1.000000 0.000000
vn 0.000000 1.000000 0.000000
vn 0.807722 -0.501032 0.310727
vn -0.807722 -0.501032 0.310727
vn -0.807722 0.501032 0.310727
vn 0.807722 0.501032 0.310727
vn 0.310727 -0.807723 0.501032
vn -0.310727 -0.807723 0.501032
vn -0.310727 0.807722 0.501032
vn 0.310727 0.807722 0.501032
vn 1.000000 0.000000 0.000000
vn -1.000000 0.000000 0.000000
vn 0.501032 -0.310727 0.807722
vn -0.501032 -0.310727 0.807722
vn -0.501032 0.310727 0.807723
vn 0.501032 0.310727 0.807723
vn -0.000000 -0.000000 1.000000
vn 0.000000 0.933878 -0.357592
vn -0.357593 0.000000 0.933878
vn 0.577350 -0.577350 -0.577350
vn 0.577350 0.577350 -0.577350
vn -0.933878 0.357592 0.000000
vn -0.000000 -0.933878 -0.357592
vn 0.357592 0.000000 0.933878
vn 0.933878 0.357592 0.000000
vn -0.357593 -0.000000 -0.933878
vn -0.577350 -0.577350 -0.577350
vn 0.000000 -0.933878 0.357592
vn -0.000000 0.933878 0.357592
vn -0.577350 -0.577350 0.577350
vn 0.933878 -0.357593 0.000000
vn -0.577350 0.577350 -0.577350
vn 0.577350 -0.577350 0.577350
vn -0.577350 0.577350 0.577350
vn 0.357592 -0.000000 -0.933878
vn 0.577350 0.577350 0.577350
vn -0.933878 -0.357592 -0.000000
vn -0.501032 -0.310727 -0.807723
vn -0.807723 0.501032 -0.310727
vn 0.310727 -0.807722 -0.501032
vn -0.807723 -0.501032 0.310727
vn 0.310727 -0.807722 0.501032
vn -0.310727 -0.807722 0.501032
vn -0.501032 0.310727 0.807722
vn -0.000000 0.934414 -0.356188
vn -0.000000 0.934415 -0.356187
vn -0.357592 -0.000000 0.933878
vn -0.356188 -0.000000 0.934414
vn -0.356188 -0.000000 0.934415
vn -0.934415 0.356188 0.000000
vn -0.934414 0.356188 0.000000
vn 0.000000 -0.933878 -0.357593
vn -0.000000 -0.934414 -0.356188
vn 0.356188 -0.000000 0.934414
vn 0.933878 0.357593 0.000000
vn 0.934414 0.356188 0.000000
vn 0.934415 0.356188 0.000000
vn -0.357592 0.000000 -0.933878
vn -0.356187 0.000000 -0.934415
vn -0.356188 0.000000 -0.934414
vn -0.000000 -0.934414 0.356188
vn -0.000000 -0.934415 0.356187
vn 0.000000 0.933878 0.357593
vn -0.000000 0.934414 0.356188
vn 0.934414 -0.356188 -0.000000
vn 0.934415 -0.356188 -0.000000
vn 0.356188 0.000000 -0.934414
vn -0.934415 -0.356188 -0.000000
vn -0.934414 -0.356188 -0.000000
s off
f 12//1 1//1 7//1
f 5//2 4//2 14//2
f 36//3 35//3 8//3
f 11//4 10//4 26//4
f 24//5 23//5 2//5
f 15//6 50//6 16//6
f 33//7 72//7 71//7
f 27//8 62//8 28//8
f 21//9 60//9 59//9
f 38//10 37//10 18//10
f 32//11 31//11 41//11
f 44//12 43//12 30//12
f 20//13 19//13 47//13
f 39//14 100//14 40//14
f 46//15 45//15 105//15
f 75//16 54//16 53//16
f 93//17 68//17 94//17
f 87//18 66//18 65//18
f 81//19 56//19 82//19
f 101//20 74//20 73//20
f 97//21 96//21 98//21
f 107//22 86//22 85//22
f 103//23 84//23 104//23
f 51//24 58//24 52//24
f 70//25 69//25 63//25
f 77//26 117//26 116//26
f 91//27 113//27 92//27
f 89//28 111//28 110//28
f 79//29 119//29 80//29
f 120//30 109//30 115//30
f 47//31 48//31 43//31
f 110//32 111//32 112//32
f 18//33 16//33 17//33
f 19//34 23//34 24//34
f 66//35 61//35 65//35
f 41//36 42//36 37//36
f 117//37 118//37 116//37
f 56//38 60//38 55//38
f 10//39 11//39 9//39
f 33//40 31//40 32//40
f 101//41 102//41 97//41
f 107//42 108//42 103//42
f 92//43 96//43 91//43
f 54//44 49//44 50//44
f 25//45 26//45 30//45
f 73//46 77//46 78//46
f 85//47 86//47 87//47
f 3//48 4//48 2//48
f 83//49 84//49 82//49
f 72//50 67//50 71//50
f 1//1 6//1 7//1
f 13//2 5//2 14//2
f 35//51 9//51 8//51
f 25//4 11//4 26//4
f 23//5 3//5 2//5
f 50//6 49//6 16//6
f 34//7 33//7 71//7
f 62//52 61//52 28//52
f 22//9 21//9 59//9
f 17//53 38//53 18//53
f 31//11 42//11 41//11
f 29//12 44//12 30//12
f 19//13 48//13 47//13
f 100//14 99//14 40//14
f 45//15 106//15 105//15
f 76//16 75//16 53//16
f 68//54 67//54 94//54
f 88//18 87//18 65//18
f 56//19 55//19 82//19
f 102//55 101//55 73//55
f 96//56 95//56 98//56
f 108//22 107//22 85//22
f 84//23 83//23 104//23
f 58//24 57//24 52//24
f 69//25 64//25 63//25
f 78//26 77//26 116//26
f 113//27 112//27 92//27
f 90//57 89//57 110//57
f 119//29 118//29 80//29
f 109//30 114//30 115//30
f 47//31 43//31 44//31
f 46//58 47//58 45//58
f 47//59 44//59 45//59
f 110//60 112//60 113//60
f 109//61 110//61 114//61
f 110//62 113//62 114//62
f 18//33 15//33 16//33
f 13//33 14//33 15//33
f 18//33 13//33 15//33
f 19//34 20//34 23//34
f 20//34 21//34 22//34
f 23//34 20//34 22//34
f 61//35 62//35 65//35
f 62//63 63//63 65//63
f 63//64 64//64 65//64
f 41//65 37//65 38//65
f 40//66 41//66 39//66
f 41//66 38//66 39//66
f 118//37 119//37 116//37
f 119//67 120//67 116//67
f 120//67 115//67 116//67
f 59//68 60//68 56//68
f 58//69 59//69 57//69
f 59//70 56//70 57//70
f 9//71 11//71 8//71
f 11//72 12//72 8//72
f 12//73 7//73 8//73
f 33//40 34//40 31//40
f 34//40 35//40 36//40
f 31//40 34//40 36//40
f 101//41 97//41 98//41
f 100//74 101//74 99//74
f 101//75 98//75 99//75
f 107//76 103//76 104//76
f 106//77 107//77 105//77
f 107//77 104//77 105//77
f 92//43 95//43 96//43
f 93//43 94//43 95//43
f 92//43 93//43 95//43
f 53//44 54//44 50//44
f 52//78 53//78 51//78
f 53//79 50//79 51//79
f 30//45 26//45 29//45
f 26//45 27//45 29//45
f 27//45 28//45 29//45
f 74//46 77//46 73//46
f 75//46 76//46 74//46
f 76//46 77//46 74//46
f 85//47 87//47 88//47
f 90//47 85//47 88//47
f 89//47 90//47 88//47
f 4//48 5//48 2//48
f 5//80 6//80 2//80
f 6//80 1//80 2//80
f 82//49 84//49 81//49
f 84//49 79//49 81//49
f 79//49 80//49 81//49
f 67//50 68//50 71//50
f 68//81 69//81 71//81
f 69//82 70//82 71//82
o doda.001
v -0.098000 -0.195000 0.976000
v -0.300000 -0.320000 0.899000
v -0.616000 -0.125000 0.778000
v -0.616000 0.125000 0.778000
v -0.300000 0.320000 0.899000
v -0.098000 0.195000 0.976000
v 0.098000 0.195000 0.976000
v 0.300000 0.320000 0.899000
v 0.616000 0.125000 0.778000
v 0.616000 -0.125000 0.778000
v 0.300000 -0.320000 0.899000
v 0.098000 -0.195000 0.976000
v -0.360000 0.478000 0.801000
v -0.676000 0.283000 0.680000
v -0.801000 0.360000 0.478000
v -0.680000 0.676000 0.283000
v -0.478000 0.801000 0.360000
v -0.283000 0.680000 0.676000
v -0.283000 -0.680000 0.676000
v -0.478000 -0.801000 0.360000
v -0.680000 -0.676000 0.283000
v -0.801000 -0.360000 0.478000
v -0.676000 -0.283000 0.680000
v -0.360000 -0.478000 0.801000
v 0.360000 -0.478000 0.801000
v 0.676000 -0.283000 0.680000
v 0.801000 -0.360000 0.478000
v 0.680000 -0.676000 0.283000
v 0.478000 -0.801000 0.360000
v 0.283000 -0.680000 0.676000
v 0.283000 0.680000 0.676000
v 0.478000 0.801000 0.360000
v 0.680000 0.676000 0.283000
v 0.801000 0.360000 0.478000
v 0.676000 0.283000 0.680000
v 0.360000 0.478000 0.801000
v -0.125000 0.778000 0.616000
v -0.320000 0.899000 0.300000
v -0.195000 0.976000 0.098000
v 0.195000 0.976000 0.098000
v 0.320000 0.899000 0.300000
v 0.125000 0.778000 0.616000
v 0.125000 -0.778000 0.616000
v 0.320000 -0.899000 0.300000
v 0.195000 -0.976000 0.098000
v -0.195000 -0.976000 0.098000
v -0.320000 -0.899000 0.300000
v -0.125000 -0.778000 0.616000
v -0.778000 0.616000 0.125000
v -0.899000 0.300000 0.320000
v -0.976000 0.098000 0.195000
v -0.976000 0.098000 -0.195000
v -0.899000 0.300000 -0.320000
v -0.778000 0.616000 -0.125000
v -0.778000 -0.616000 -0.125000
v -0.899000 -0.300000 -0.320000
v -0.976000 -0.098000 -0.195000
v -0.976000 -0.098000 0.195000
v -0.899000 -0.300000 0.320000
v -0.778000 -0.616000 0.125000
v 0.778000 -0.616000 0.125000
v 0.899000 -0.300000 0.320000
v 0.976000 -0.098000 0.195000
v 0.976000 -0.098000 -0.195000
v 0.899000 -0.300000 -0.320000
v 0.778000 -0.616000 -0.125000
v 0.778000 0.616000 -0.125000
v 0.899000 0.300000 -0.320000
v 0.976000 0.098000 -0.195000
v 0.976000 0.098000 0.195000
v 0.899000 0.300000 0.320000
v 0.778000 0.616000 0.125000
v -0.283000 0.680000 -0.676000
v -0.478000 0.801000 -0.360000
v -0.680000 0.676000 -0.283000
v -0.801000 0.360000 -0.478000
v -0.676000 0.283000 -0.680000
v -0.360000 0.478000 -0.801000
v -0.360000 -0.478000 -0.801000
v -0.676000 -0.283000 -0.680000
v -0.801000 -0.360000 -0.478000
v -0.680000 -0.676000 -0.283000
v -0.478000 -0.801000 -0.360000
v -0.283000 -0.680000 -0.676000
v 0.283000 -0.680000 -0.676000
v 0.478000 -0.801000 -0.360000
v 0.680000 -0.676000 -0.283000
v 0.801000 -0.360000 -0.478000
v 0.676000 -0.283000 -0.680000
v 0.360000 -0.478000 -0.801000
v 0.360000 0.478000 -0.801000
v 0.676000 0.283000 -0.680000
v 0.801000 0.360000 -0.478000
v 0.680000 0.676000 -0.283000
v 0.478000 0.801000 -0.360000
v 0.283000 0.680000 -0.676000
v 0.125000 0.778000 -0.616000
v 0.320000 0.899000 -0.300000
v 0.195000 0.976000 -0.098000
v -0.195000 0.976000 -0.098000
v -0.320000 0.899000 -0.300000
v -0.125000 0.778000 -0.616000
v -0.125000 -0.778000 -0.616000
v -0.320000 -0.899000 -0.300000
v -0.195000 -0.976000 -0.098000
v 0.195000 -0.976000 -0.098000
v 0.320000 -0.899000 -0.300000
v 0.125000 -0.778000 -0.616000
v 0.098000 -0.195000 -0.976000
v 0.300000 -0.320000 -0.899000
v 0.616000 -0.125000 -0.778000
v 0.616000 0.125000 -0.778000
v 0.300000 0.320000 -0.899000
v 0.098000 0.195000 -0.976000
v -0.098000 0.195000 -0.976000
v -0.300000 0.320000 -0.899000
v -0.616000 0.125000 -0.778000
v -0.616000 -0.125000 -0.778000
v -0.300000 -0.320000 -0.899000
v -0.098000 -0.195000 -0.976000
vn -0.000000 -0.000000 1.000000
vn -0.501032 0.310727 0.807722
vn 0.501032 0.310727 0.807723
vn 0.501032 -0.310727 0.807722
vn -0.501032 -0.310727 0.807722
vn -0.807722 0.501032 0.310727
vn 0.807722 0.501032 0.310727
vn 0.807722 -0.501032 0.310727
vn -0.807722 -0.501032 0.310727
vn -0.310727 0.807722 0.501032
vn 0.310727 0.807722 0.501032
vn 0.310727 -0.807723 0.501032
vn -0.310727 -0.807723 0.501032
vn 0.000000 1.000000 -0.000000
vn 0.000000 -1.000000 -0.000000
vn -0.807722 0.501032 -0.310727
vn 0.807722 0.501032 -0.310727
vn 0.807722 -0.501032 -0.310727
vn -0.807722 -0.501032 -0.310727
vn -0.310727 0.807723 -0.501032
vn 0.310727 0.807722 -0.501032
vn 0.310727 -0.807722 -0.501033
vn -0.310727 -0.807722 -0.501032
vn -1.000000 -0.000000 0.000000
vn 1.000000 -0.000000 0.000000
vn -0.501032 0.310727 -0.807722
vn 0.501032 0.310727 -0.807722
vn 0.501032 -0.310727 -0.807722
vn -0.501032 -0.310727 -0.807722
vn 0.000000 0.000000 -1.000000
vn 0.000000 -0.933878 0.357592
vn 0.357592 0.000000 -0.933878
vn -0.577350 0.577350 0.577350
vn -0.577351 -0.577350 0.577350
vn 0.933878 -0.357593 0.000000
vn -0.000000 0.933878 0.357593
vn -0.357593 -0.000000 -0.933878
vn -0.933878 -0.357592 0.000000
vn 0.357592 0.000000 0.933878
vn 0.577350 0.577350 0.577351
vn 0.000000 0.933878 -0.357592
vn -0.000000 -0.933878 -0.357593
vn 0.577350 0.577350 -0.577350
vn -0.933878 0.357592 -0.000000
vn 0.577350 -0.577350 0.577350
vn -0.577350 0.577350 -0.577350
vn 0.577350 -0.577350 -0.577350
vn -0.357593 0.000000 0.933878
vn -0.577350 -0.577350 -0.577350
vn 0.933878 0.357593 -0.000000
vn -0.501032 0.310727 0.807723
vn 0.310727 0.807722 0.501033
vn 0.310727 -0.807722 0.501032
vn 0.310727 0.807723 -0.501032
vn 0.310727 -0.807722 -0.501032
vn 0.501032 -0.310727 -0.807723
vn -0.501032 -0.310727 -0.807723
vn 0.000000 -0.934414 0.356188
vn 0.356188 0.000000 -0.934414
vn -0.577350 -0.577350 0.577350
vn 0.934414 -0.356188 -0.000000
vn 0.934415 -0.356188 -0.000000
vn 0.000000 0.934414 0.356188
vn -0.357592 0.000000 -0.933878
vn -0.356187 0.000000 -0.934415
vn -0.356188 0.000000 -0.934414
vn -0.934415 -0.356188 -0.000000
vn -0.934415 -0.356187 -0.000000
vn 0.356188 -0.000000 0.934414
vn 0.577350 0.577350 0.577350
vn 0.000000 0.934414 -0.356188
vn 0.000000 -0.934414 -0.356188
vn -0.934415 0.356188 0.000000
vn -0.934414 0.356188 0.000000
vn -0.357592 -0.000000 0.933878
vn -0.356187 -0.000000 0.934415
vn -0.356188 -0.000000 0.934414
vn 0.934414 0.356188 0.000000
vn 0.934415 0.356188 0.000000
s off
f 132//83 127//83 121//83
f 125//84 133//84 134//84
f 156//85 128//85 155//85
f 131//86 145//86 146//86
f 144//87 122//87 143//87
f 135//88 136//88 170//88
f 153//89 154//89 191//89
f 147//90 148//90 182//90
f 141//91 142//91 179//91
f 158//92 137//92 138//92
f 152//93 161//93 151//93
f 164//94 149//94 150//94
f 140//95 167//95 139//95
f 159//96 160//96 220//96
f 166//97 225//97 165//97
f 195//98 196//98 173//98
f 213//99 214//99 188//99
f 207//100 208//100 185//100
f 201//101 202//101 176//101
f 221//102 222//102 193//102
f 217//103 218//103 216//103
f 227//104 228//104 205//104
f 223//105 224//105 204//105
f 171//106 172//106 178//106
f 190//107 183//107 189//107
f 197//108 198//108 236//108
f 211//109 212//109 233//109
f 209//110 210//110 230//110
f 199//111 200//111 239//111
f 240//112 235//112 229//112
f 168//113 164//113 163//113
f 231//114 233//114 232//114
f 138//115 137//115 136//115
f 139//116 144//116 143//116
f 181//117 186//117 185//117
f 162//118 158//118 157//118
f 237//119 236//119 238//119
f 180//120 176//120 175//120
f 130//121 129//121 131//121
f 153//122 152//122 151//122
f 222//123 218//123 217//123
f 228//124 224//124 223//124
f 212//125 211//125 216//125
f 174//126 170//126 169//126
f 145//127 150//127 146//127
f 197//128 193//128 198//128
f 205//129 207//129 206//129
f 123//130 122//130 124//130
f 203//131 202//131 204//131
f 187//132 192//132 191//132
f 127//83 126//83 121//83
f 124//133 125//133 134//133
f 128//85 129//85 155//85
f 130//86 131//86 146//86
f 122//87 123//87 143//87
f 136//88 169//88 170//88
f 192//89 153//89 191//89
f 148//90 181//90 182//90
f 180//91 141//91 179//91
f 157//92 158//92 138//92
f 161//134 162//134 151//134
f 163//135 164//135 150//135
f 167//95 168//95 139//95
f 160//96 219//96 220//96
f 225//97 226//97 165//97
f 174//98 195//98 173//98
f 214//99 187//99 188//99
f 186//100 207//100 185//100
f 202//101 175//101 176//101
f 194//102 221//102 193//102
f 218//136 215//136 216//136
f 206//137 227//137 205//137
f 224//105 203//105 204//105
f 172//106 177//106 178//106
f 183//107 184//107 189//107
f 237//108 197//108 236//108
f 212//109 232//109 233//109
f 231//138 209//138 230//138
f 200//139 238//139 239//139
f 235//112 234//112 229//112
f 168//113 167//113 164//113
f 167//140 166//140 164//140
f 166//140 165//140 164//140
f 231//114 230//114 233//114
f 230//141 229//141 233//141
f 229//141 234//141 233//141
f 138//115 136//115 135//115
f 133//115 138//115 135//115
f 134//115 133//115 135//115
f 140//142 139//142 143//142
f 141//142 140//142 142//142
f 140//142 143//142 142//142
f 182//117 181//117 185//117
f 183//143 182//143 184//143
f 182//144 185//144 184//144
f 162//118 161//118 158//118
f 161//145 160//145 158//145
f 160//145 159//145 158//145
f 238//146 236//146 239//146
f 236//147 235//147 239//147
f 235//148 240//148 239//148
f 179//120 176//120 180//120
f 178//149 177//149 179//149
f 177//150 176//150 179//150
f 129//121 128//121 131//121
f 128//151 127//151 131//151
f 127//151 132//151 131//151
f 154//152 153//152 151//152
f 155//152 154//152 156//152
f 154//152 151//152 156//152
f 222//123 221//123 218//123
f 221//153 220//153 218//153
f 220//153 219//153 218//153
f 228//124 227//124 224//124
f 227//154 226//154 224//154
f 226//154 225//154 224//154
f 212//125 216//125 215//125
f 213//125 212//125 215//125
f 214//125 213//125 215//125
f 174//126 173//126 170//126
f 173//155 172//155 170//155
f 172//156 171//156 170//156
f 150//127 149//127 146//127
f 149//127 148//127 147//127
f 146//127 149//127 147//127
f 194//128 193//128 197//128
f 195//128 194//128 196//128
f 194//128 197//128 196//128
f 205//129 208//129 207//129
f 210//129 209//129 208//129
f 205//129 210//129 208//129
f 124//157 122//157 125//157
f 122//158 121//158 125//158
f 121//159 126//159 125//159
f 202//131 201//131 204//131
f 201//131 200//131 199//131
f 204//131 201//131 199//131
f 188//132 187//132 191//132
f 189//160 188//160 190//160
f 188//161 191//161 190//161
