# Blender v2.69 (sub 0) OBJ File: ''
# www.blender.org
o dodb
v -0.098000 0.195000 0.976000
v -0.300000 0.320000 0.899000
v -0.360000 0.478000 0.801000
v -0.283000 0.680000 0.676000
v -0.125000 0.778000 0.616000
v 0.125000 0.778000 0.616000
v 0.283000 0.680000 0.676000
v 0.360000 0.478000 0.801000
v 0.300000 0.320000 0.899000
v 0.098000 0.195000 0.976000
v 0.098000 -0.195000 0.976000
v 0.300000 -0.320000 0.899000
v 0.360000 -0.478000 0.801000
v 0.283000 -0.680000 0.676000
v 0.125000 -0.778000 0.616000
v -0.125000 -0.778000 0.616000
v -0.283000 -0.680000 0.676000
v -0.360000 -0.478000 0.801000
v -0.300000 -0.320000 0.899000
v -0.098000 -0.195000 0.976000
v -0.976000 0.098000 0.195000
v -0.899000 0.300000 0.320000
v -0.801000 0.360000 0.478000
v -0.676000 0.283000 0.680000
v -0.616000 0.125000 0.778000
v -0.616000 -0.125000 0.778000
v -0.676000 -0.283000 0.680000
v -0.801000 -0.360000 0.478000
v -0.899000 -0.300000 0.320000
v -0.976000 -0.098000 0.195000
v 0.976000 -0.098000 0.195000
v 0.899000 -0.300000 0.320000
v 0.801000 -0.360000 0.478000
v 0.676000 -0.283000 0.680000
v 0.616000 -0.125000 0.778000
v 0.616000 0.125000 0.778000
v 0.676000 0.283000 0.680000
v 0.801000 0.360000 0.478000
v 0.899000 0.300000 0.320000
v 0.976000 0.098000 0.195000
v -0.195000 0.976000 0.098000
v -0.320000 0.899000 0.300000
v -0.478000 0.801000 0.360000
v -0.680000 0.676000 0.283000
v -0.778000 0.616000 0.125000
v -0.778000 0.616000 -0.125000
v -0.680000 0.676000 -0.283000
v -0.478000 0.801000 -0.360000
v -0.320000 0.899000 -0.300000
v -0.195000 0.976000 -0.098000
v -0.195000 -0.976000 -0.098000
v -0.320000 -0.899000 -0.300000
v -0.478000 -0.801000 -0.360000
v -0.680000 -0.676000 -0.283000
v -0.778000 -0.616000 -0.125000
v -0.778000 -0.616000 0.125000
v -0.680000 -0.676000 0.283000
v -0.478000 -0.801000 0.360000
v -0.320000 -0.899000 0.300000
v -0.195000 -0.976000 0.098000
v 0.195000 0.976000 -0.098000
v 0.320000 0.899000 -0.300000
v 0.478000 0.801000 -0.360000
v 0.680000 0.676000 -0.283000
v 0.778000 0.616000 -0.125000
v 0.778000 0.616000 0.125000
v 0.680000 0.676000 0.283000
v 0.478000 0.801000 0.360000
v 0.320000 0.899000 0.300000
v 0.195000 0.976000 0.098000
v 0.195000 -0.976000 0.098000
v 0.320000 -0.899000 0.300000
v 0.478000 -0.801000 0.360000
v 0.680000 -0.676000 0.283000
v 0.778000 -0.616000 0.125000
v 0.778000 -0.616000 -0.125000
v 0.680000 -0.676000 -0.283000
v 0.478000 -0.801000 -0.360000
v 0.320000 -0.899000 -0.300000
v 0.195000 -0.976000 -0.098000
v 0.976000 0.098000 -0.195000
v 0.899000 0.300000 -0.320000
v 0.801000 0.360000 -0.478000
v 0.676000 0.283000 -0.680000
v 0.616000 0.125000 -0.778000
v 0.616000 -0.125000 -0.778000
v 0.676000 -0.283000 -0.680000
v 0.801000 -0.360000 -0.478000
v 0.899000 -0.300000 -0.320000
v 0.976000 -0.098000 -0.195000
v -0.976000 -0.098000 -0.195000
v -0.899000 -0.300000 -0.320000
v -0.801000 -0.360000 -0.478000
v -0.676000 -0.283000 -0.680000
v -0.616000 -0.125000 -0.778000
v -0.616000 0.125000 -0.778000
v -0.676000 0.283000 -0.680000
v -0.801000 0.360000 -0.478000
v -0.899000 0.300000 -0.320000
v -0.976000 0.098000 -0.195000
v -0.098000 -0.195000 -0.976000
v -0.300000 -0.320000 -0.899000
v -0.360000 -0.478000 -0.801000
v -0.283000 -0.680000 -0.676000
v -0.125000 -0.778000 -0.616000
v 0.125000 -0.778000 -0.616000
v 0.283000 -0.680000 -0.676000
v 0.360000 -0.478000 -0.801000
v 0.300000 -0.320000 -0.899000
v 0.098000 -0.195000 -0.976000
v 0.098000 0.195000 -0.976000
v 0.300000 0.320000 -0.899000
v 0.360000 0.478000 -0.801000
v 0.283000 0.680000 -0.676000
v 0.125000 0.778000 -0.616000
v -0.125000 0.778000 -0.616000
v -0.283000 0.680000 -0.676000
v -0.360000 0.478000 -0.801000
v -0.300000 0.320000 -0.899000
v -0.098000 0.195000 -0.976000
vn -0.000000 0.000000 -1.000000
vn 0.501032 -0.310727 -0.807723
vn -0.501032 -0.310727 -0.807722
vn -0.501032 0.310727 -0.807722
vn 0.501032 0.310727 -0.807722
vn 0.807722 -0.501032 -0.310727
vn -0.807722 -0.501032 -0.310727
vn -0.807722 0.501032 -0.310727
vn 0.807722 0.501032 -0.310727
vn 0.310727 -0.807722 -0.501033
vn -0.310727 -0.807722 -0.501032
vn -0.310727 0.807723 -0.501032
vn 0.310727 0.807723 -0.501032
vn 0.000000 -1.000000 0.000000
vn 0.000000 1.000000 0.000000
vn 0.807722 -0.501032 0.310727
vn -0.807722 -0.501032 0.310727
vn -0.807722 0.501032 0.310727
vn 0.807722 0.501032 0.310727
vn 0.310727 -0.807723 0.501032
vn -0.310727 -0.807723 0.501032
vn -0.310727 0.807722 0.501032
vn 0.310727 0.807722 0.501032
vn 1.000000 0.000000 0.000000
vn -1.000000 0.000000 0.000000
vn 0.501032 -0.310727 0.807722
vn -0.501032 -0.310727 0.807722
vn -0.501032 0.310727 0.807723
vn 0.501032 0.310727 0.807723
vn -0.000000 -0.000000 1.000000
vn -0.849305 -0.002921 0.527894
vn -0.527894 0.849305 0.002923
vn -0.849305 0.002921 -0.527894
vn -0.002922 -0.527894 0.849305
vn 0.002921 -0.527894 -0.849306
vn 0.849305 0.002922 -0.527894
vn -0.527894 -0.849305 -0.002923
vn 0.527894 0.849305 0.002923
vn 0.849305 -0.002922 0.527894
vn 0.002922 0.527894 0.849305
vn 0.527894 -0.849305 -0.002922
vn -0.002922 0.527894 -0.849305
vn -0.501032 -0.310727 -0.807723
vn -0.807723 0.501032 -0.310727
vn 0.310727 -0.807722 -0.501032
vn -0.807723 -0.501032 0.310727
vn 0.310727 -0.807722 0.501032
vn -0.310727 -0.807722 0.501032
vn -0.501032 0.310727 0.807722
vn -0.850403 -0.000284 0.526131
vn -0.849305 0.002922 0.527894
vn -0.850403 0.000285 0.526131
vn -0.850452 -0.000000 0.526053
vn -0.852851 -0.000000 0.522154
vn -0.526131 0.850403 0.000284
vn -0.527894 0.849305 -0.002922
vn -0.526131 0.850403 -0.000284
vn -0.526053 0.850452 0.000000
vn -0.522154 0.852851 0.000000
vn -0.522153 0.852852 0.000000
vn -0.850403 0.000284 -0.526131
vn -0.849305 -0.002922 -0.527894
vn -0.850403 -0.000285 -0.526131
vn -0.850452 0.000000 -0.526053
vn -0.852851 0.000000 -0.522154
vn -0.000284 -0.526131 0.850403
vn 0.002922 -0.527894 0.849305
vn 0.000285 -0.526131 0.850403
vn -0.000000 -0.526053 0.850452
vn -0.000000 -0.522154 0.852851
vn 0.000285 -0.526131 -0.850403
vn -0.002921 -0.527894 -0.849306
vn -0.000284 -0.526131 -0.850403
vn 0.000000 -0.526053 -0.850452
vn 0.000000 -0.522154 -0.852851
vn 0.850403 0.000284 -0.526131
vn 0.849305 -0.002923 -0.527894
vn 0.850403 -0.000284 -0.526131
vn 0.850452 -0.000000 -0.526053
vn 0.852851 0.000000 -0.522154
vn -0.526131 -0.850403 -0.000285
vn -0.527894 -0.849305 0.002922
vn -0.526131 -0.850403 0.000284
vn -0.526053 -0.850452 -0.000000
vn -0.522154 -0.852851 0.000000
vn 0.526131 0.850403 0.000285
vn 0.527894 0.849305 -0.002923
vn 0.526131 0.850403 -0.000284
vn 0.526053 0.850452 0.000000
vn 0.522154 0.852851 -0.000000
vn 0.850403 -0.000284 0.526131
vn 0.849305 0.002923 0.527894
vn 0.850403 0.000284 0.526131
vn 0.850452 0.000000 0.526053
vn 0.852851 -0.000000 0.522154
vn 0.000285 0.526131 0.850403
vn -0.002922 0.527894 0.849305
vn -0.000285 0.526131 0.850403
vn 0.000000 0.526053 0.850452
vn -0.000000 0.522154 0.852851
vn 0.526131 -0.850403 -0.000285
vn 0.527894 -0.849305 0.002921
vn 0.526131 -0.850403 0.000285
vn 0.526053 -0.850452 0.000000
vn 0.522154 -0.852852 0.000000
vn 0.522154 -0.852851 -0.000000
vn -0.000285 0.526131 -0.850403
vn 0.002922 0.527894 -0.849305
vn 0.000284 0.526131 -0.850403
vn 0.000000 0.526053 -0.850452
vn -0.000000 0.522154 -0.852851
s off
f 1//1 10//1 20//1
f 2//2 25//2 24//2
f 8//3 37//3 9//3
f 12//4 35//4 34//4
f 18//5 27//5 19//5
f 23//6 22//6 44//6
f 67//7 66//7 39//7
f 33//8 32//8 74//8
f 57//9 56//9 29//9
f 42//10 5//10 4//10
f 68//11 7//11 69//11
f 72//12 15//12 14//12
f 58//13 17//13 59//13
f 41//14 50//14 70//14
f 60//15 71//15 51//15
f 47//16 46//16 99//16
f 83//17 82//17 64//17
f 77//18 76//18 89//18
f 93//19 92//19 54//19
f 49//20 48//20 117//20
f 115//21 114//21 62//21
f 79//22 78//22 107//22
f 105//23 104//23 52//23
f 21//24 30//24 100//24
f 40//25 81//25 31//25
f 97//26 96//26 119//26
f 113//27 112//27 84//27
f 87//28 86//28 109//28
f 103//29 102//29 94//29
f 101//30 110//30 120//30
f 89//31 90//31 88//31
f 73//32 71//32 72//32
f 39//33 40//33 38//33
f 119//34 120//34 118//34
f 8//35 9//35 10//35
f 21//36 22//36 23//36
f 63//37 61//37 62//37
f 59//38 60//38 58//38
f 93//39 91//39 92//39
f 110//40 108//40 109//40
f 50//41 48//41 49//41
f 20//42 18//42 19//42
f 10//1 11//1 20//1
f 3//2 2//2 24//2
f 37//43 36//43 9//43
f 13//4 12//4 34//4
f 27//5 26//5 19//5
f 22//6 45//6 44//6
f 38//7 67//7 39//7
f 32//44 75//44 74//44
f 28//9 57//9 29//9
f 43//45 42//45 4//45
f 7//11 6//11 69//11
f 73//12 72//12 14//12
f 17//13 16//13 59//13
f 50//14 61//14 70//14
f 71//15 80//15 51//15
f 98//16 47//16 99//16
f 82//46 65//46 64//46
f 88//18 77//18 89//18
f 92//19 55//19 54//19
f 116//47 49//47 117//47
f 114//48 63//48 62//48
f 106//22 79//22 107//22
f 104//23 53//23 52//23
f 30//24 91//24 100//24
f 81//25 90//25 31//25
f 118//26 97//26 119//26
f 112//27 85//27 84//27
f 108//49 87//49 109//49
f 102//29 95//29 94//29
f 110//30 111//30 120//30
f 88//50 90//50 87//50
f 81//51 82//51 83//51
f 81//52 83//52 84//52
f 90//53 81//53 87//53
f 81//53 84//53 87//53
f 84//54 85//54 87//54
f 85//54 86//54 87//54
f 73//55 74//55 71//55
f 80//56 78//56 79//56
f 80//57 77//57 78//57
f 71//58 77//58 80//58
f 71//58 74//58 77//58
f 74//59 75//59 77//59
f 75//60 76//60 77//60
f 38//61 40//61 37//61
f 31//62 32//62 33//62
f 31//63 33//63 34//63
f 40//64 31//64 37//64
f 31//64 34//64 37//64
f 34//65 35//65 37//65
f 35//65 36//65 37//65
f 118//66 120//66 117//66
f 111//67 112//67 113//67
f 111//68 113//68 114//68
f 120//69 111//69 117//69
f 111//69 114//69 117//69
f 114//70 115//70 117//70
f 115//70 116//70 117//70
f 7//71 8//71 10//71
f 3//72 1//72 2//72
f 4//73 1//73 3//73
f 7//74 10//74 1//74
f 7//74 1//74 4//74
f 6//75 7//75 5//75
f 7//75 4//75 5//75
f 21//76 23//76 24//76
f 29//77 30//77 28//77
f 28//78 30//78 27//78
f 30//79 21//79 24//79
f 27//79 30//79 24//79
f 26//80 27//80 25//80
f 27//80 24//80 25//80
f 64//81 61//81 63//81
f 70//82 68//82 69//82
f 70//83 67//83 68//83
f 61//84 67//84 70//84
f 64//84 67//84 61//84
f 65//85 66//85 64//85
f 66//85 67//85 64//85
f 58//86 60//86 57//86
f 51//87 52//87 53//87
f 51//88 53//88 54//88
f 60//89 51//89 54//89
f 57//89 60//89 54//89
f 56//90 57//90 55//90
f 57//90 54//90 55//90
f 94//91 91//91 93//91
f 99//92 100//92 98//92
f 98//93 100//93 97//93
f 100//94 91//94 94//94
f 97//94 100//94 94//94
f 96//95 97//95 95//95
f 97//95 94//95 95//95
f 110//96 107//96 108//96
f 102//97 103//97 101//97
f 103//98 104//98 101//98
f 101//99 107//99 110//99
f 101//99 104//99 107//99
f 104//100 105//100 107//100
f 105//100 106//100 107//100
f 50//101 47//101 48//101
f 43//102 41//102 42//102
f 44//103 41//103 43//103
f 44//104 50//104 41//104
f 44//104 47//104 50//104
f 45//105 46//105 44//105
f 46//106 47//106 44//106
f 20//107 17//107 18//107
f 13//108 11//108 12//108
f 13//109 14//109 11//109
f 11//110 17//110 20//110
f 11//110 14//110 17//110
f 14//111 15//111 17//111
f 15//111 16//111 17//111
o dodb.001
v -0.098000 0.195000 0.976000
v -0.300000 0.320000 0.899000
v -0.360000 0.478000 0.801000
v -0.283000 0.680000 0.676000
v -0.125000 0.778000 0.616000
v 0.125000 0.778000 0.616000
v 0.283000 0.680000 0.676000
v 0.360000 0.478000 0.801000
v 0.300000 0.320000 0.899000
v 0.098000 0.195000 0.976000
v 0.098000 -0.195000 0.976000
v 0.300000 -0.320000 0.899000
v 0.360000 -0.478000 0.801000
v 0.283000 -0.680000 0.676000
v 0.125000 -0.778000 0.616000
v -0.125000 -0.778000 0.616000
v -0.283000 -0.680000 0.676000
v -0.360000 -0.478000 0.801000
v -0.300000 -0.320000 0.899000
v -0.098000 -0.195000 0.976000
v -0.976000 0.098000 0.195000
v -0.899000 0.300000 0.320000
v -0.801000 0.360000 0.478000
v -0.676000 0.283000 0.680000
v -0.616000 0.125000 0.778000
v -0.616000 -0.125000 0.778000
v -0.676000 -0.283000 0.680000
v -0.801000 -0.360000 0.478000
v -0.899000 -0.300000 0.320000
v -0.976000 -0.098000 0.195000
v 0.976000 -0.098000 0.195000
v 0.899000 -0.300000 0.320000
v 0.801000 -0.360000 0.478000
v 0.676000 -0.283000 0.680000
v 0.616000 -0.125000 0.778000
v 0.616000 0.125000 0.778000
v 0.676000 0.283000 0.680000
v 0.801000 0.360000 0.478000
v 0.899000 0.300000 0.320000
v 0.976000 0.098000 0.195000
v -0.195000 0.976000 0.098000
v -0.320000 0.899000 0.300000
v -0.478000 0.801000 0.360000
v -0.680000 0.676000 0.283000
v -0.778000 0.616000 0.125000
v -0.778000 0.616000 -0.125000
v -0.680000 0.676000 -0.283000
v -0.478000 0.801000 -0.360000
v -0.320000 0.899000 -0.300000
v -0.195000 0.976000 -0.098000
v -0.195000 -0.976000 -0.098000
v -0.320000 -0.899000 -0.300000
v -0.478000 -0.801000 -0.360000
v -0.680000 -0.676000 -0.283000
v -0.778000 -0.616000 -0.125000
v -0.778000 -0.616000 0.125000
v -0.680000 -0.676000 0.283000
v -0.478000 -0.801000 0.360000
v -0.320000 -0.899000 0.300000
v -0.195000 -0.976000 0.098000
v 0.195000 0.976000 -0.098000
v 0.320000 0.899000 -0.300000
v 0.478000 0.801000 -0.360000
v 0.680000 0.676000 -0.283000
v 0.778000 0.616000 -0.125000
v 0.778000 0.616000 0.125000
v 0.680000 0.676000 0.283000
v 0.478000 0.801000 0.360000
v 0.320000 0.899000 0.300000
v 0.195000 0.976000 0.098000
v 0.195000 -0.976000 0.098000
v 0.320000 -0.899000 0.300000
v 0.478000 -0.801000 0.360000
v 0.680000 -0.676000 0.283000
v 0.778000 -0.616000 0.125000
v 0.778000 -0.616000 -0.125000
v 0.680000 -0.676000 -0.283000
v 0.478000 -0.801000 -0.360000
v 0.320000 -0.899000 -0.300000
v 0.195000 -0.976000 -0.098000
v 0.976000 0.098000 -0.195000
v 0.899000 0.300000 -0.320000
v 0.801000 0.360000 -0.478000
v 0.676000 0.283000 -0.680000
v 0.616000 0.125000 -0.778000
v 0.616000 -0.125000 -0.778000
v 0.676000 -0.283000 -0.680000
v 0.801000 -0.360000 -0.478000
v 0.899000 -0.300000 -0.320000
v 0.976000 -0.098000 -0.195000
v -0.976000 -0.098000 -0.195000
v -0.899000 -0.300000 -0.320000
v -0.801000 -0.360000 -0.478000
v -0.676000 -0.283000 -0.680000
v -0.616000 -0.125000 -0.778000
v -0.616000 0.125000 -0.778000
v -0.676000 0.283000 -0.680000
v -0.801000 0.360000 -0.478000
v -0.899000 0.300000 -0.320000
v -0.976000 0.098000 -0.195000
v -0.098000 -0.195000 -0.976000
v -0.300000 -0.320000 -0.899000
v -0.360000 -0.478000 -0.801000
v -0.283000 -0.680000 -0.676000
v -0.125000 -0.778000 -0.616000
v 0.125000 -0.778000 -0.616000
v 0.283000 -0.680000 -0.676000
v 0.360000 -0.478000 -0.801000
v 0.300000 -0.320000 -0.899000
v 0.098000 -0.195000 -0.976000
v 0.098000 0.195000 -0.976000
v 0.300000 0.320000 -0.899000
v 0.360000 0.478000 -0.801000
v 0.283000 0.680000 -0.676000
v 0.125000 0.778000 -0.616000
v -0.125000 0.778000 -0.616000
v -0.283000 0.680000 -0.676000
v -0.360000 0.478000 -0.801000
v -0.300000 0.320000 -0.899000
v -0.098000 0.195000 -0.976000
vn 0.000000 -0.000000 1.000000
vn -0.501032 0.310727 0.807722
vn 0.501032 0.310727 0.807723
vn 0.501032 -0.310727 0.807722
vn -0.501032 -0.310727 0.807722
vn -0.807722 0.501032 0.310727
vn 0.807722 0.501032 0.310727
vn 0.807722 -0.501032 0.310727
vn -0.807722 -0.501032 0.310727
vn -0.310727 0.807722 0.501032
vn 0.310727 0.807722 0.501032
vn 0.310727 -0.807723 0.501032
vn -0.310727 -0.807723 0.501032
vn 0.000000 1.000000 -0.000000
vn 0.000000 -1.000000 -0.000000
vn -0.807722 0.501032 -0.310727
vn 0.807722 0.501032 -0.310727
vn 0.807722 -0.501032 -0.310727
vn -0.807722 -0.501032 -0.310727
vn -0.310727 0.807723 -0.501032
vn 0.310727 0.807722 -0.501032
vn 0.310727 -0.807722 -0.501033
vn -0.310727 -0.807722 -0.501032
vn -1.000000 -0.000000 0.000000
vn 1.000000 -0.000000 0.000000
vn -0.501032 0.310727 -0.807722
vn 0.501032 0.310727 -0.807722
vn 0.501032 -0.310727 -0.807722
vn -0.501032 -0.310727 -0.807722
vn 0.000000 0.000000 -1.000000
vn 0.849305 0.002922 -0.527894
vn 0.527894 -0.849305 -0.002922
vn 0.849305 -0.002922 0.527894
vn 0.002922 0.527894 -0.849305
vn 0.002922 0.527894 0.849305
vn -0.849305 -0.002921 0.527894
vn 0.527894 0.849305 0.002922
vn -0.527894 -0.849305 -0.002922
vn -0.849305 0.002922 -0.527894
vn 0.002921 -0.527894 -0.849306
vn -0.527894 0.849305 0.002923
vn -0.002921 -0.527894 0.849305
vn -0.501032 0.310727 0.807723
vn 0.310727 0.807722 0.501033
vn 0.310727 -0.807722 0.501032
vn 0.310727 0.807723 -0.501032
vn 0.310727 -0.807722 -0.501032
vn 0.501032 -0.310727 -0.807723
vn -0.501032 -0.310727 -0.807723
vn 0.850403 0.000284 -0.526131
vn 0.849305 -0.002923 -0.527894
vn 0.850403 -0.000284 -0.526131
vn 0.850452 -0.000000 -0.526053
vn 0.852851 0.000000 -0.522154
vn 0.526131 -0.850403 -0.000284
vn 0.527894 -0.849305 0.002921
vn 0.526131 -0.850403 0.000285
vn 0.526053 -0.850452 0.000000
vn 0.522154 -0.852851 0.000000
vn 0.850403 -0.000284 0.526131
vn 0.849305 0.002923 0.527894
vn 0.850403 0.000284 0.526131
vn 0.850452 0.000000 0.526053
vn 0.852851 -0.000000 0.522154
vn 0.000284 0.526131 -0.850403
vn -0.002922 0.527894 -0.849305
vn -0.000285 0.526131 -0.850403
vn 0.000000 0.526053 -0.850452
vn -0.000000 0.522154 -0.852851
vn 0.000285 0.526131 0.850403
vn -0.002922 0.527894 0.849305
vn -0.000285 0.526131 0.850403
vn 0.000000 0.526053 0.850452
vn -0.000000 0.522154 0.852851
vn -0.850403 -0.000284 0.526131
vn -0.849305 0.002922 0.527894
vn -0.850403 0.000285 0.526131
vn -0.850452 -0.000000 0.526053
vn -0.852851 -0.000000 0.522154
vn 0.526131 0.850403 0.000284
vn 0.527894 0.849305 -0.002921
vn 0.526131 0.850403 -0.000285
vn 0.526053 0.850452 -0.000000
vn 0.522154 0.852851 -0.000000
vn -0.526131 -0.850403 -0.000285
vn -0.527894 -0.849305 0.002920
vn -0.526131 -0.850403 0.000284
vn -0.526053 -0.850452 0.000000
vn -0.522154 -0.852851 -0.000000
vn -0.522153 -0.852852 -0.000000
vn -0.850403 0.000285 -0.526131
vn -0.849305 -0.002920 -0.527894
vn -0.850403 -0.000284 -0.526131
vn -0.850452 -0.000000 -0.526053
vn -0.852851 0.000000 -0.522154
vn 0.000285 -0.526131 -0.850403
vn -0.002921 -0.527894 -0.849306
vn -0.000284 -0.526131 -0.850403
vn 0.000000 -0.526053 -0.850452
vn 0.000000 -0.522154 -0.852851
vn -0.526131 0.850403 0.000285
vn -0.527894 0.849305 -0.002922
vn -0.526131 0.850403 -0.000285
vn -0.526053 0.850452 0.000000
vn -0.522154 0.852852 -0.000000
vn -0.522154 0.852851 0.000000
vn -0.000284 -0.526131 0.850403
vn 0.002922 -0.527894 0.849305
vn 0.000285 -0.526131 0.850403
vn 0.000000 -0.526053 0.850452
vn 0.000000 -0.522154 0.852851
s off
f 121//112 140//112 130//112
f 122//113 123//113 144//113
f 128//114 129//114 157//114
f 132//115 133//115 154//115
f 138//116 139//116 147//116
f 143//117 164//117 142//117
f 187//118 158//118 159//118
f 153//119 194//119 152//119
f 177//120 148//120 149//120
f 162//121 163//121 124//121
f 188//122 189//122 127//122
f 192//123 193//123 134//123
f 178//124 179//124 137//124
f 161//125 190//125 170//125
f 180//126 171//126 191//126
f 167//127 218//127 219//127
f 203//128 184//128 202//128
f 197//129 208//129 209//129
f 213//130 174//130 212//130
f 169//131 236//131 237//131
f 235//132 182//132 234//132
f 199//133 226//133 227//133
f 225//134 172//134 224//134
f 141//135 220//135 150//135
f 160//136 151//136 201//136
f 217//137 238//137 239//137
f 233//138 204//138 232//138
f 207//139 228//139 229//139
f 223//140 214//140 222//140
f 221//141 240//141 230//141
f 210//142 209//142 208//142
f 193//143 192//143 191//143
f 160//144 159//144 158//144
f 239//145 238//145 240//145
f 121//146 123//146 122//146
f 142//147 141//147 143//147
f 181//148 183//148 182//148
f 180//149 179//149 178//149
f 211//150 213//150 212//150
f 223//151 222//151 221//151
f 168//152 170//152 169//152
f 133//153 132//153 131//153
f 140//112 131//112 130//112
f 145//154 122//154 144//154
f 129//114 156//114 157//114
f 155//115 132//115 154//115
f 139//116 146//116 147//116
f 164//117 165//117 142//117
f 186//118 187//118 159//118
f 194//119 195//119 152//119
f 176//120 177//120 149//120
f 125//121 162//121 124//121
f 189//155 126//155 127//155
f 135//156 192//156 134//156
f 179//124 136//124 137//124
f 190//125 181//125 170//125
f 171//126 200//126 191//126
f 166//127 167//127 219//127
f 184//128 185//128 202//128
f 196//129 197//129 209//129
f 174//130 175//130 212//130
f 168//131 169//131 237//131
f 182//157 183//157 234//157
f 198//158 199//158 227//158
f 172//134 173//134 224//134
f 220//135 211//135 150//135
f 151//136 210//136 201//136
f 216//137 217//137 239//137
f 204//138 205//138 232//138
f 206//159 207//159 229//159
f 214//160 215//160 222//160
f 240//141 231//141 230//141
f 210//161 208//161 207//161
f 202//162 201//162 203//162
f 203//163 201//163 204//163
f 201//164 210//164 207//164
f 204//164 201//164 207//164
f 205//165 204//165 206//165
f 204//165 207//165 206//165
f 194//166 193//166 191//166
f 198//167 200//167 199//167
f 197//168 200//168 198//168
f 197//169 191//169 200//169
f 194//169 191//169 197//169
f 195//170 194//170 196//170
f 194//170 197//170 196//170
f 160//171 158//171 157//171
f 152//172 151//172 153//172
f 153//173 151//173 154//173
f 151//174 160//174 157//174
f 154//174 151//174 157//174
f 155//175 154//175 156//175
f 154//175 157//175 156//175
f 238//176 237//176 240//176
f 231//177 233//177 232//177
f 231//178 234//178 233//178
f 240//179 234//179 231//179
f 240//179 237//179 234//179
f 237//180 236//180 234//180
f 236//180 235//180 234//180
f 121//181 124//181 123//181
f 129//182 128//182 130//182
f 128//183 127//183 130//183
f 130//184 124//184 121//184
f 130//184 127//184 124//184
f 127//185 126//185 124//185
f 126//185 125//185 124//185
f 143//186 141//186 144//186
f 150//187 149//187 148//187
f 150//188 148//188 147//188
f 141//189 150//189 144//189
f 150//189 147//189 144//189
f 147//190 146//190 144//190
f 146//190 145//190 144//190
f 184//191 183//191 181//191
f 188//192 190//192 189//192
f 187//193 190//193 188//193
f 187//194 181//194 190//194
f 184//194 181//194 187//194
f 185//195 184//195 186//195
f 184//195 187//195 186//195
f 180//196 178//196 177//196
f 172//197 171//197 173//197
f 173//198 171//198 174//198
f 171//199 180//199 174//199
f 180//199 177//199 174//199
f 177//200 176//200 174//200
f 176//201 175//201 174//201
f 211//202 214//202 213//202
f 219//203 218//203 220//203
f 218//204 217//204 220//204
f 220//205 214//205 211//205
f 220//205 217//205 214//205
f 217//206 216//206 214//206
f 216//206 215//206 214//206
f 224//207 223//207 221//207
f 228//208 230//208 229//208
f 227//209 230//209 228//209
f 224//210 221//210 230//210
f 224//210 230//210 227//210
f 225//211 224//211 226//211
f 224//211 227//211 226//211
f 167//212 170//212 168//212
f 161//213 163//213 162//213
f 164//214 163//214 161//214
f 164//215 161//215 170//215
f 164//215 170//215 167//215
f 165//216 164//216 166//216
f 164//217 167//217 166//217
f 134//218 133//218 131//218
f 138//219 140//219 139//219
f 137//220 140//220 138//220
f 134//221 131//221 140//221
f 134//221 140//221 137//221
f 135//222 134//222 136//222
f 134//222 137//222 136//222
