# Blender v2.69 (sub 0) OBJ File: ''
# www.blender.org
mtllib gi.mtl
o gi1.001
v 0.240000 -0.320000 0.530000
v 0.170000 -0.350000 0.240000
v 0.380000 -0.530000 0.120000
v 0.000000 -0.400000 -0.530000
v -0.170000 -0.240000 -0.350000
v -0.380000 -0.120000 -0.530000
v -1.000000 0.320000 -0.530000
v -0.380000 -0.060000 -0.240000
v 0.620000 -0.850000 -0.530000
v 0.070000 -0.380000 -0.240000
v 0.170000 -0.410000 -0.060000
v 0.000000 -0.000000 1.180000
v -0.380000 0.120000 0.530000
v -0.170000 -0.060000 0.410000
v 0.000000 -0.180000 0.410000
v -0.620000 0.200000 0.120000
v -0.380000 0.060000 0.240000
v -0.450000 0.030000 -0.060000
v -0.620000 0.850000 0.530000
v -0.170000 0.410000 0.060000
v -0.380000 0.530000 -0.120000
v 0.000000 0.400000 0.530000
v -0.070000 0.380000 0.240000
v 0.380000 0.120000 0.530000
v 0.170000 0.240000 0.350000
v 1.000000 -0.320000 0.530000
v 0.380000 0.060000 0.240000
v 0.620000 -0.200000 -0.120000
v 0.450000 -0.030000 0.060000
v -0.170000 0.350000 -0.240000
v -0.240000 0.320000 -0.530000
v 0.380000 -0.120000 -0.530000
v 0.380000 -0.060000 -0.240000
v 0.000000 0.000000 -1.180000
v 0.170000 0.060000 -0.410000
v 0.000000 0.180000 -0.410000
v 0.280000 -0.090000 0.350000
v -0.240000 -0.320000 0.530000
v -0.110000 0.150000 0.410000
v -0.280000 -0.270000 0.240000
v -0.380000 -0.530000 0.120000
v 0.000000 0.650000 0.120000
v -0.620000 -0.850000 -0.530000
v -0.340000 -0.180000 -0.240000
v -0.340000 -0.290000 -0.060000
v -0.280000 0.090000 -0.350000
v 0.000000 1.050000 -0.530000
v -0.110000 0.440000 -0.060000
v 0.620000 0.850000 0.530000
v 0.340000 0.290000 0.060000
v 0.380000 0.530000 -0.120000
v 0.340000 0.180000 0.240000
v 0.000000 -1.050000 0.530000
v 0.000000 -0.650000 -0.120000
v 0.110000 -0.440000 0.060000
v 0.280000 0.270000 -0.240000
v 0.240000 0.320000 -0.530000
v 0.110000 -0.150000 -0.410000
v -1.000000 -0.320000 0.530000
v 0.620000 0.200000 0.120000
v -0.110000 -0.440000 0.060000
v 0.340000 -0.290000 -0.060000
v -0.620000 -0.200000 -0.120000
v 1.000000 0.320000 -0.530000
v 0.280000 0.090000 -0.350000
v -0.280000 -0.090000 0.350000
v -0.340000 0.290000 0.060000
v 0.110000 0.440000 -0.060000
v 0.170000 -0.060000 0.410000
v -0.170000 -0.350000 0.240000
v -0.170000 -0.410000 -0.060000
v -0.070000 -0.380000 -0.240000
v 0.450000 0.030000 -0.060000
v 0.170000 -0.240000 -0.350000
v -0.450000 -0.030000 0.060000
v -0.170000 0.240000 0.350000
v 0.070000 0.380000 0.240000
v 0.170000 0.410000 0.060000
v 0.170000 0.350000 -0.240000
v -0.170000 0.060000 -0.410000
v 0.380000 -0.240000 0.060000
v 0.000000 0.290000 -0.350000
v 0.380000 0.240000 -0.060000
v -0.380000 -0.240000 0.060000
v 0.000000 -0.290000 0.350000
v -0.380000 0.240000 -0.060000
v 0.280000 -0.270000 0.240000
v 0.340000 -0.180000 -0.240000
v -0.110000 -0.150000 -0.410000
v 0.110000 0.150000 0.410000
v -0.340000 0.180000 0.240000
v -0.280000 0.270000 -0.240000
vn 0.938555 -0.298631 -0.173016
vn -0.926269 0.331831 0.178644
vn -0.928851 0.315500 0.194154
vn -0.943154 0.280397 0.178435
vn -0.923119 0.328296 0.200181
vn -0.932301 0.306510 0.192009
vn -0.932932 0.302242 0.195671
vn -0.938555 0.298631 0.173016
vn -0.927625 0.318106 0.195758
vn -0.932063 0.306432 0.193281
vn 0.932932 -0.302242 -0.195671
vn 0.932301 -0.306510 -0.192009
vn 0.932063 -0.306432 -0.193281
vn 0.927625 -0.318106 -0.195758
vn 0.943154 -0.280397 -0.178435
vn 0.923119 -0.328296 -0.200181
vn 0.928851 -0.315500 -0.194154
vn 0.926269 -0.331831 -0.178644
vn 0.567789 -0.212186 -0.795357
vn 0.582268 -0.164718 -0.796136
vn 0.584336 -0.198249 -0.786923
vn 0.574613 -0.188914 -0.796324
vn 0.598819 -0.178063 -0.780839
vn 0.574013 -0.188716 -0.796803
vn 0.573835 -0.165928 -0.801986
vn 0.567879 -0.202814 -0.797734
vn 0.606219 -0.192888 -0.771552
vn -0.606219 0.192888 0.771552
vn -0.573835 0.165928 0.801986
vn -0.567879 0.202814 0.797734
vn -0.584336 0.198249 0.786924
vn -0.574613 0.188914 0.796324
vn -0.598819 0.178063 0.780839
vn -0.574013 0.188716 0.796803
vn -0.582268 0.164718 0.796136
vn -0.567789 0.212185 0.795357
vn 0.606219 0.192888 0.771552
vn 0.573835 0.165928 0.801986
vn 0.598819 0.178063 0.780839
vn 0.567789 0.212186 0.795357
vn -0.582268 -0.164718 -0.796136
vn -0.567789 -0.212185 -0.795357
vn -0.567879 -0.202814 -0.797734
vn -0.573835 -0.165928 -0.801986
vn -0.598819 -0.178063 -0.780839
vn -0.574013 -0.188716 -0.796803
vn -0.584336 -0.198249 -0.786924
vn -0.574613 -0.188914 -0.796324
vn -0.606219 -0.192888 -0.771552
vn 0.584336 0.198249 0.786923
vn 0.574613 0.188914 0.796324
vn 0.567879 0.202814 0.797734
vn 0.574013 0.188716 0.796803
vn 0.582268 0.164718 0.796136
vn 0.574613 -0.796324 0.188914
vn 0.563346 -0.804531 0.188072
vn 0.558069 -0.812585 0.168121
vn 0.560376 -0.799055 0.217924
vn 0.593767 -0.786872 0.168146
vn 0.576253 -0.793949 0.193851
vn 0.570681 -0.804141 0.166374
vn 0.582616 -0.789023 0.194940
vn 0.586167 -0.795512 0.153520
vn -0.582616 0.789023 -0.194940
vn -0.570681 0.804141 -0.166374
vn -0.586167 0.795512 -0.153520
vn -0.576253 0.793949 -0.193850
vn -0.593767 0.786872 -0.168146
vn -0.558069 0.812585 -0.168121
vn -0.560376 0.799055 -0.217924
vn -0.574613 0.796324 -0.188914
vn -0.563346 0.804531 -0.188072
vn -0.560376 -0.799055 0.217924
vn -0.586167 -0.795512 0.153520
vn -0.570681 -0.804141 0.166374
vn -0.576253 -0.793949 0.193850
vn -0.593767 -0.786872 0.168146
vn -0.574613 -0.796324 0.188914
vn -0.563346 -0.804531 0.188072
vn -0.558069 -0.812585 0.168121
vn -0.582616 -0.789023 0.194940
vn 0.593767 0.786872 -0.168146
vn 0.576253 0.793949 -0.193851
vn 0.586167 0.795512 -0.153520
vn 0.570681 0.804141 -0.166374
vn 0.582616 0.789023 -0.194940
vn 0.560376 0.799055 -0.217924
vn 0.558069 0.812585 -0.168121
vn 0.574613 0.796324 -0.188914
vn 0.563346 0.804531 -0.188072
vn 0.343515 0.500960 -0.794378
vn 0.366120 0.478773 -0.797955
vn 0.392454 0.532616 -0.749867
vn -0.392454 -0.532616 0.749867
vn -0.366120 -0.478773 0.797955
vn -0.371865 -0.495244 0.785143
vn -0.362657 -0.499660 0.786651
vn -0.353113 -0.500605 0.790383
vn -0.357523 -0.503783 0.786371
vn -0.343515 -0.500960 0.794378
vn -0.332639 -0.503123 0.797633
vn -0.377770 -0.467404 0.799264
vn 0.377770 0.467404 -0.799264
vn 0.332639 0.503123 -0.797633
vn 0.353113 0.500605 -0.790383
vn 0.357523 0.503783 -0.786371
vn 0.371864 0.495244 -0.785143
vn 0.362656 0.499660 -0.786651
vn -0.932932 -0.302242 -0.195671
vn -0.927625 -0.318106 -0.195758
vn -0.923119 -0.328296 -0.200181
vn -0.943154 -0.280397 -0.178435
vn -0.926269 -0.331831 -0.178644
vn -0.928851 -0.315500 -0.194154
vn 0.928851 0.315500 0.194154
vn 0.926269 0.331831 0.178644
vn 0.923119 0.328296 0.200181
vn 0.943154 0.280397 0.178434
vn 0.932063 0.306432 0.193281
vn 0.927625 0.318106 0.195758
vn 0.938555 0.298631 0.173016
vn 0.932932 0.302242 0.195671
vn 0.932301 0.306510 0.192009
vn -0.938555 -0.298631 -0.173016
vn -0.932301 -0.306510 -0.192009
vn -0.932063 -0.306432 -0.193281
vn 0.353113 -0.500605 0.790383
vn 0.371864 -0.495244 0.785143
vn 0.366120 -0.478773 0.797955
vn 0.343515 -0.500960 0.794378
vn 0.377770 -0.467404 0.799264
vn 0.332639 -0.503123 0.797633
vn -0.371865 0.495244 -0.785143
vn -0.362657 0.499660 -0.786651
vn -0.366120 0.478773 -0.797955
vn -0.357523 0.503783 -0.786371
vn -0.392454 0.532616 -0.749867
vn 0.392454 -0.532616 0.749867
vn 0.357523 -0.503783 0.786371
vn 0.362656 -0.499660 0.786651
vn -0.332639 0.503123 -0.797633
vn -0.377770 0.467404 -0.799264
vn -0.343515 0.500960 -0.794378
vn -0.353113 0.500605 -0.790383
vn -0.000000 0.650791 0.759257
vn -0.021833 0.628797 0.777263
vn 0.000000 0.616308 0.787505
vn -0.020376 0.597700 0.801461
vn 0.020376 0.597700 0.801461
vn 0.021833 0.628797 0.777263
vn -0.025925 0.607195 0.794130
vn 0.025925 0.607195 0.794130
vn -0.025925 -0.607195 -0.794130
vn 0.025925 -0.607195 -0.794130
vn -0.020376 -0.597700 -0.801461
vn -0.021833 -0.628797 -0.777263
vn 0.000000 -0.616308 -0.787505
vn 0.021833 -0.628797 -0.777263
vn 0.020376 -0.597700 -0.801461
vn 0.000000 -0.650791 -0.759257
vn -0.000000 -0.985460 -0.169907
vn -0.019238 -0.981132 -0.192379
vn 0.019238 -0.981132 -0.192379
vn 0.000000 -0.986394 -0.164399
vn -0.015946 -0.979570 -0.200470
vn 0.015946 -0.979570 -0.200470
vn -0.022621 -0.980686 -0.194275
vn 0.022621 -0.980686 -0.194275
vn -0.022621 0.980686 0.194275
vn 0.022621 0.980686 0.194275
vn -0.015946 0.979570 0.200470
vn 0.015946 0.979570 0.200470
vn -0.000000 0.985460 0.169907
vn -0.019238 0.981132 0.192379
vn 0.000000 0.986394 0.164399
vn 0.019238 0.981132 0.192379
usemtl orange.001
s off
f 1//1 37//1 24//1
f 14//2 38//2 12//2
f 12//3 22//3 39//3
f 38//4 40//4 41//4
f 42//5 23//5 22//5
f 43//6 44//6 6//6
f 43//7 41//7 45//7
f 6//8 46//8 31//8
f 47//9 48//9 42//9
f 47//10 31//10 30//10
f 49//11 50//11 51//11
f 49//12 24//12 52//12
f 2//13 1//13 53//13
f 53//14 54//14 55//14
f 51//15 56//15 57//15
f 4//16 10//16 54//16
f 34//17 58//17 4//17
f 34//18 57//18 35//18
usemtl vert.001
f 26//19 29//19 60//19
f 26//20 3//20 81//20
f 43//21 72//21 54//21
f 43//22 6//22 5//22
f 47//23 51//23 79//23
f 47//24 82//24 31//24
f 60//25 83//25 51//25
f 54//26 11//26 3//26
f 31//27 80//27 6//27
f 69//28 1//28 24//28
f 41//29 84//29 63//29
f 21//30 20//30 42//30
f 49//31 42//31 77//31
f 49//32 25//32 24//32
f 53//33 70//33 41//33
f 53//34 1//34 85//34
f 7//35 86//35 21//35
f 7//36 63//36 18//36
usemtl bleu.001
f 38//37 14//37 13//37
f 28//38 81//38 3//38
f 53//39 3//39 2//39
f 64//40 73//40 28//40
f 59//41 84//41 41//41
f 59//42 16//42 75//42
f 41//43 71//43 54//43
f 21//44 86//44 16//44
f 47//45 30//45 21//45
f 47//46 57//46 82//46
f 9//47 54//47 10//47
f 9//48 74//48 32//48
f 32//49 35//49 57//49
f 19//50 23//50 42//50
f 19//51 13//51 76//51
f 42//52 78//52 51//52
f 85//53 38//53 53//53
f 64//54 51//54 83//54
usemtl magenta.001
f 12//55 69//55 24//55
f 12//56 38//56 15//56
f 24//57 27//57 60//57
f 70//58 38//58 41//58
f 43//59 71//59 41//59
f 43//60 4//60 72//60
f 64//61 33//61 32//61
f 64//62 60//62 73//62
f 32//63 74//63 4//63
f 59//64 75//64 63//64
f 59//65 13//65 17//65
f 22//66 76//66 13//66
f 49//67 77//67 22//67
f 49//68 51//68 78//68
f 63//69 8//69 6//69
f 57//70 79//70 51//70
f 34//71 6//71 80//71
f 34//72 36//72 57//72
usemtl rose.001
f 1//73 2//73 3//73
f 4//74 5//74 6//74
f 7//75 6//75 8//75
f 9//76 10//76 4//76
f 9//77 3//77 11//77
f 12//78 13//78 14//78
f 15//79 1//79 12//79
f 16//80 17//80 13//80
f 7//81 18//81 16//81
f 19//82 20//82 21//82
f 19//83 22//83 23//83
f 24//84 25//84 22//84
f 26//85 27//85 24//85
f 26//86 28//86 29//86
f 21//87 30//87 31//87
f 32//88 33//88 28//88
f 34//89 35//89 32//89
f 34//90 31//90 36//90
usemtl brun.001
f 42//91 48//91 21//91
f 28//92 73//92 60//92
f 6//93 89//93 4//93
f 22//94 90//94 24//94
f 63//95 75//95 16//95
f 19//96 16//96 91//96
f 19//97 76//97 22//97
f 26//98 87//98 3//98
f 26//99 24//99 37//99
f 3//100 55//100 54//100
f 43//101 45//101 63//101
f 43//102 54//102 71//102
f 49//103 78//103 42//103
f 49//104 60//104 50//104
f 7//105 21//105 92//105
f 7//106 46//106 6//106
f 9//107 88//107 28//107
f 9//108 4//108 74//108
usemtl bleuclair.001
f 19//109 21//109 67//109
f 53//110 61//110 54//110
f 54//111 72//111 4//111
f 31//112 92//112 21//112
f 34//113 80//113 31//113
f 34//114 4//114 89//114
f 12//115 90//115 22//115
f 12//116 1//116 69//116
f 22//117 77//117 42//117
f 87//118 1//118 3//118
f 47//119 79//119 57//119
f 47//120 42//120 68//120
f 57//121 65//121 32//121
f 9//122 62//122 3//122
f 9//123 32//123 88//123
f 66//124 38//124 13//124
f 19//125 91//125 13//125
f 53//126 38//126 70//126
usemtl cyan.001
f 59//127 41//127 40//127
f 49//128 52//128 60//128
f 60//129 29//129 28//129
f 54//130 61//130 41//130
f 9//131 11//131 54//131
f 9//132 28//132 62//132
f 43//133 63//133 44//133
f 43//134 5//134 4//134
f 16//135 18//135 63//135
f 64//136 32//136 65//136
f 4//137 58//137 32//137
f 13//138 39//138 22//138
f 59//139 66//139 13//139
f 49//140 22//140 25//140
f 19//141 67//141 16//141
f 19//142 42//142 20//142
f 51//143 68//143 42//143
f 64//144 56//144 51//144
usemtl jaune.001
f 38//145 1//145 15//145
f 59//146 17//146 16//146
f 59//147 38//147 66//147
f 16//148 67//148 21//148
f 51//149 50//149 60//149
f 26//150 60//150 27//150
f 37//147 1//147 26//147
f 47//151 68//151 51//151
f 47//152 21//152 48//152
f 53//153 55//153 3//153
f 53//154 41//154 61//154
f 63//155 45//155 41//155
f 7//156 8//156 63//156
f 7//157 31//157 46//157
f 64//158 28//158 33//158
f 64//157 65//157 57//157
f 3//159 62//159 28//159
f 57//160 36//160 31//160
usemtl rouge.001
f 40//161 38//161 59//161
f 59//162 63//162 84//162
f 26//163 81//163 28//163
f 26//161 1//161 87//161
f 85//164 1//164 38//164
f 6//165 44//165 63//165
f 28//166 88//166 32//166
f 34//167 89//167 6//167
f 34//168 32//168 58//168
f 12//169 39//169 13//169
f 12//170 24//170 90//170
f 13//171 91//171 16//171
f 60//172 52//172 24//172
f 7//173 92//173 31//173
f 7//174 16//174 86//174
f 31//175 82//175 57//175
f 64//176 83//176 60//176
f 64//173 57//173 56//173
