# Blender v2.69 (sub 0) OBJ File: ''
# www.blender.org
o k0
v 1.400000 1.000000 2.200000
v 0.000000 -0.000000 1.200000
v 0.320000 1.000000 0.530000
v 1.100000 -0.000000 0.530000
v -0.530000 1.600000 2.200000
v -0.850000 0.620000 0.530000
v -1.700000 -0.000000 2.200000
v -0.850000 -0.620000 0.530000
v -0.530000 -1.600000 2.200000
v 0.320000 -1.000000 0.530000
v 1.400000 -1.000000 2.200000
v 2.200000 1.600000 0.530000
v 0.850000 0.620000 -0.530000
v -0.850000 2.600000 0.530000
v -0.320000 1.000000 -0.530000
v -2.800000 -0.000000 0.530000
v -1.100000 0.000000 -0.530000
v -0.850000 -2.600000 0.530000
v -0.320000 -1.000000 -0.530000
v 2.200000 -1.600000 0.530000
v 0.850000 -0.620000 -0.530000
v 0.850000 2.600000 -0.530000
v -2.200000 1.600000 -0.530000
v -2.200000 -1.600000 -0.530000
v 0.850000 -2.600000 -0.530000
v 2.800000 0.000000 -0.530000
v 0.530000 1.600000 -2.200000
v 0.000000 0.000000 -1.200000
v -1.400000 1.000000 -2.200000
v -1.400000 -1.000000 -2.200000
v 0.530000 -1.600000 -2.200000
v 1.700000 0.000000 -2.200000
vn -0.709652 0.534576 0.458937
vn 0.702446 0.547908 -0.454276
vn 0.277907 -0.845334 0.456265
vn -0.729547 -0.519608 0.444713
vn -0.276408 0.851046 -0.446452
vn 0.893288 0.015132 0.449231
vn 0.265544 -0.851882 0.451424
vn -0.891202 0.000000 -0.453606
vn 0.265544 0.851882 0.451425
vn 0.893288 -0.015133 0.449231
vn -0.276408 -0.851046 -0.446452
vn -0.729546 0.519608 0.444713
vn 0.277907 0.845334 0.456265
vn 0.702446 -0.547908 -0.454276
vn -0.709652 -0.534576 0.458936
vn -0.000000 -0.000000 1.000000
vn -0.272643 0.854281 -0.442573
vn 0.729390 -0.501456 -0.465330
vn -0.894427 0.000000 -0.447214
vn 0.725616 0.530607 -0.438108
vn -0.272528 -0.857144 -0.437073
vn -0.272528 0.857144 -0.437073
vn 0.725616 -0.530607 -0.438108
vn 0.729390 0.501456 -0.465330
vn -0.272643 -0.854280 -0.442573
vn 0.894427 -0.000000 0.447214
vn -0.725616 0.530607 0.438108
vn -0.000000 0.000000 -1.000000
vn 0.272643 0.854280 0.442573
vn -0.729390 -0.501456 0.465330
vn -0.729390 0.501456 0.465330
vn 0.272643 -0.854281 0.442573
vn -0.725616 -0.530607 0.438108
vn 0.272528 -0.857144 0.437073
vn 0.272528 0.857144 0.437073
vn 0.276408 0.851046 0.446452
vn -0.893288 0.015133 -0.449231
vn 0.729546 -0.519608 -0.444713
vn -0.702446 0.547908 0.454276
vn -0.277907 -0.845334 -0.456265
vn 0.709652 0.534576 -0.458936
vn -0.702446 -0.547908 0.454276
vn 0.709652 -0.534576 -0.458937
vn -0.277907 0.845334 -0.456265
vn 0.276408 -0.851046 0.446452
vn 0.729547 0.519608 -0.444713
vn -0.893288 -0.015132 -0.449231
vn 0.891202 -0.000000 0.453606
vn -0.265544 0.851882 -0.451424
vn -0.265544 -0.851882 -0.451425
s off
f 1//1 3//1 2//1
f 1//2 4//2 3//2
f 1//3 2//3 4//3
f 5//4 6//4 2//4
f 5//5 3//5 6//5
f 5//6 2//6 3//6
f 7//7 8//7 2//7
f 7//8 6//8 8//8
f 7//9 2//9 6//9
f 9//10 10//10 2//10
f 9//11 8//11 10//11
f 9//12 2//12 8//12
f 11//13 4//13 2//13
f 11//14 10//14 4//14
f 11//15 2//15 10//15
f 12//16 3//16 4//16
f 12//17 13//17 3//17
f 12//18 4//18 13//18
f 14//16 6//16 3//16
f 14//19 15//19 6//19
f 14//20 3//20 15//20
f 16//16 8//16 6//16
f 16//21 17//21 8//21
f 16//22 6//22 17//22
f 18//16 10//16 8//16
f 18//23 19//23 10//23
f 18//19 8//19 19//19
f 20//16 4//16 10//16
f 20//24 21//24 4//24
f 20//25 10//25 21//25
f 22//26 3//26 13//26
f 22//27 15//27 3//27
f 22//28 13//28 15//28
f 23//29 6//29 15//29
f 23//30 17//30 6//30
f 23//28 15//28 17//28
f 24//31 8//31 17//31
f 24//32 19//32 8//32
f 24//28 17//28 19//28
f 25//33 10//33 19//33
f 25//26 21//26 10//26
f 25//28 19//28 21//28
f 26//34 4//34 21//34
f 26//35 13//35 4//35
f 26//28 21//28 13//28
f 27//36 15//36 13//36
f 27//37 28//37 15//37
f 27//38 13//38 28//38
f 29//39 17//39 15//39
f 29//40 28//40 17//40
f 29//41 15//41 28//41
f 30//42 19//42 17//42
f 30//43 28//43 19//43
f 30//44 17//44 28//44
f 31//45 21//45 19//45
f 31//46 28//46 21//46
f 31//47 19//47 28//47
f 32//48 13//48 21//48
f 32//49 28//49 13//49
f 32//50 21//50 28//50
