# Blender v2.71 (sub 0) OBJ File: ''
# www.blender.org
mtllib origamiCopie.mtl
o arnaerts
v 0.236100 1.000000 1.000000
v 0.000000 1.618000 0.618000
v -1.000000 1.000000 1.000000
v -0.236100 1.000000 1.000000
v -0.618000 -0.000000 1.618000
v -0.382000 0.618000 1.236000
v 0.618000 -0.000000 1.618000
v 0.000000 0.382000 1.382000
v 1.000000 1.000000 1.000000
v 0.382000 0.618000 1.236000
v -0.382000 -0.618000 1.236000
v -1.000000 -1.000000 1.000000
v 0.000000 -1.618000 0.618000
v 0.000000 -0.382000 1.382000
v 0.382000 -0.618000 1.236000
v 0.236100 -1.000000 1.000000
v 1.000000 -1.000000 1.000000
v -0.236100 -1.000000 1.000000
v 1.000000 1.000000 0.236100
v 1.618000 0.618000 0.000000
v 1.000000 1.000000 -1.000000
v 1.000000 1.000000 -0.236100
v 0.000000 1.618000 -0.618000
v 0.618000 1.236000 -0.382000
v 0.382000 1.382000 0.000000
v 0.618000 1.236000 0.382000
v -0.618000 1.236000 -0.382000
v -1.000000 1.000000 -1.000000
v -1.618000 0.618000 0.000000
v -0.382000 1.382000 0.000000
v -0.618000 1.236000 0.382000
v -1.000000 1.000000 0.236100
v -1.000000 1.000000 -0.236100
v 1.000000 -1.000000 -0.236100
v 1.618000 -0.618000 -0.000000
v 1.000000 -1.000000 0.236100
v 0.618000 -1.236000 0.382000
v 0.000000 -1.618000 -0.618000
v 0.382000 -1.382000 -0.000000
v 1.000000 -1.000000 -1.000000
v 0.618000 -1.236000 -0.382000
v -0.618000 -1.236000 0.382000
v -1.618000 -0.618000 -0.000000
v -0.382000 -1.382000 -0.000000
v -0.618000 -1.236000 -0.382000
v -1.000000 -1.000000 -0.236100
v -1.000000 -1.000000 -1.000000
v -1.000000 -1.000000 0.236100
v 1.000000 -0.236100 -1.000000
v 0.618000 0.000000 -1.618000
v 1.000000 0.236100 -1.000000
v 1.236000 0.382000 -0.618000
v 1.382000 0.000000 -0.382000
v 1.236000 -0.382000 -0.618000
v 1.236000 0.382000 0.618000
v 1.382000 -0.000000 0.382000
v 1.236000 -0.382000 0.618000
v 1.000000 -0.236100 1.000000
v 1.000000 0.236100 1.000000
v -1.000000 0.236100 -1.000000
v -0.618000 0.000000 -1.618000
v -1.000000 -0.236100 -1.000000
v -1.236000 -0.382000 -0.618000
v -1.382000 0.000000 -0.382000
v -1.236000 0.382000 -0.618000
v -1.236000 -0.382000 0.618000
v -1.382000 -0.000000 0.382000
v -1.236000 0.382000 0.618000
v -1.000000 0.236100 1.000000
v -1.000000 -0.236100 1.000000
v 0.236100 -1.000000 -1.000000
v -0.236100 -1.000000 -1.000000
v -0.382000 -0.618000 -1.236000
v 0.000000 -0.382000 -1.382000
v 0.382000 -0.618000 -1.236000
v -0.382000 0.618000 -1.236000
v 0.000000 0.382000 -1.382000
v 0.382000 0.618000 -1.236000
v 0.236100 1.000000 -1.000000
v -0.236100 1.000000 -1.000000
vt 0.200982 0.399728
vt 0.032579 0.399728
vt 0.168816 0.498709
vt 0.300807 0.200982
vt 0.300808 0.032588
vt 0.201827 0.168826
vt 0.403232 0.700103
vt 0.571630 0.700103
vt 0.435399 0.601127
vt 0.604643 0.600285
vt 0.773041 0.600285
vt 0.636802 0.501306
vt 0.503058 0.500461
vt 0.671456 0.500461
vt 0.535217 0.401482
vt 0.799932 0.200988
vt 0.799932 0.032590
vt 0.700953 0.168829
vt 0.899756 0.200988
vt 0.899756 0.032590
vt 0.800777 0.168829
vt 0.603797 0.601127
vt 0.301655 0.000423
vt 0.301654 0.168816
vt 0.400634 0.032579
vt 0.000423 0.299056
vt 0.168826 0.299056
vt 0.032588 0.200075
vt 0.600287 0.200982
vt 0.600287 0.032579
vt 0.501306 0.168816
vt 0.500459 0.200982
vt 0.500461 0.032588
vt 0.401480 0.168826
vt 0.200988 0.499554
vt 0.032590 0.499554
vt 0.168821 0.598530
vt 0.703615 0.401482
vt 0.603789 0.700949
vt 0.435391 0.700949
vt 0.571630 0.799927
vt 0.099401 0.999577
vt 0.099401 0.831179
vt 0.000423 0.967418
vt 0.803447 0.500458
vt 0.803447 0.332060
vt 0.704469 0.468299
vt 0.000423 0.598530
vt 0.000423 0.498707
vt 0.402387 0.399728
vt 0.233984 0.399728
vt 0.370221 0.498709
vt 0.403232 0.299902
vt 0.403232 0.468305
vt 0.502213 0.332067
vt 0.200982 0.200077
vt 0.700108 0.200988
vt 0.700108 0.032590
vt 0.601132 0.168821
vt 0.000423 0.798175
vt 0.168821 0.798175
vt 0.032582 0.699197
vt 0.806036 0.700949
vt 0.806036 0.869347
vt 0.905015 0.733108
vt 0.604634 0.799927
vt 0.773032 0.799927
vt 0.636793 0.700949
vt 0.700954 0.000431
vt 0.601132 0.000423
vt 0.000423 0.199228
vt 0.168816 0.199230
vt 0.032579 0.100249
vt 0.201827 0.398882
vt 0.370231 0.398882
vt 0.233993 0.299902
vt 0.000423 0.099403
vt 0.168826 0.099404
vt 0.032588 0.000423
vt 0.501307 0.000423
vt 0.603797 0.501306
vt 0.435399 0.501306
vt 0.571630 0.600282
vt 0.905015 0.901505
vt 0.903271 0.500458
vt 0.903271 0.332060
vt 0.804293 0.468299
vt 0.805199 0.501306
vt 0.403232 0.799927
vt 0.403232 0.600282
vt 0.502212 0.500461
vt 0.400634 0.200982
vt 0.200982 0.299902
vt 0.032579 0.299902
vt 0.168816 0.398882
vt 0.402387 0.299903
vt 0.000423 0.698351
vt 0.168821 0.698351
vt 0.032590 0.599375
vt 0.000423 0.799021
vt 0.201825 0.798175
vt 0.370223 0.798175
vt 0.233984 0.699197
vt 0.800778 0.000431
vt 0.805191 0.700949
vt 0.200988 0.599375
vt 0.201827 0.498707
vt 0.201827 0.000423
vt 0.200982 0.100249
vt 0.000423 0.398881
vt 0.503058 0.398877
vt 0.671456 0.398877
vt 0.535226 0.299902
vt 0.804293 0.299902
vt 0.200979 0.699197
vt 0.704469 0.299902
vt 0.402382 0.699197
vt 0.703623 0.299902
vt 0.200982 0.000424
vt 0.401480 0.000423
vn 0.000000 -0.525800 -0.850600
vn 0.000000 -0.525700 -0.850700
vn -0.000100 -0.525700 -0.850700
vn 0.000100 -0.525700 -0.850700
vn -0.000100 0.525700 -0.850700
vn 0.000100 0.525700 -0.850700
vn 0.000000 0.525800 -0.850600
vn 0.000000 0.525700 -0.850700
vn -0.525800 -0.850600 -0.000000
vn -0.525700 -0.850700 -0.000000
vn -0.525700 -0.850700 -0.000100
vn -0.525700 -0.850700 0.000100
vn 0.525700 -0.850700 -0.000100
vn 0.525700 -0.850700 0.000100
vn 0.525800 -0.850600 -0.000000
vn 0.525700 -0.850700 0.000000
vn -0.525800 0.850600 0.000000
vn -0.525700 0.850700 0.000000
vn -0.525700 0.850700 0.000100
vn -0.525700 0.850700 -0.000100
vn 0.525700 0.850700 0.000100
vn 0.525700 0.850700 -0.000100
vn 0.525800 0.850600 0.000000
vn 0.525700 0.850700 0.000000
vn -0.850600 -0.000000 0.525800
vn -0.850700 0.000000 0.525700
vn -0.850700 0.000100 0.525700
vn -0.850700 -0.000100 0.525700
vn -0.850700 0.000100 -0.525700
vn -0.850700 -0.000100 -0.525700
vn -0.850600 -0.000000 -0.525800
vn -0.850700 0.000000 -0.525700
vn 0.850600 -0.000000 0.525800
vn 0.850700 0.000000 0.525700
vn 0.850700 -0.000100 0.525700
vn 0.850700 0.000100 0.525700
vn 0.850700 -0.000100 -0.525700
vn 0.850700 0.000100 -0.525700
vn 0.850600 -0.000000 -0.525800
vn 0.850700 0.000000 -0.525700
vn 0.000000 0.525800 0.850600
vn 0.000000 0.525700 0.850700
vn -0.000100 0.525700 0.850700
vn 0.000100 0.525700 0.850700
vn -0.000100 -0.525700 0.850700
vn 0.000100 -0.525700 0.850700
vn 0.000000 -0.525800 0.850600
vn 0.000000 -0.525700 0.850700
usemtl None
s off
f 1/1/1 3/2/1 2/3/1
f 4/4/2 5/5/2 3/6/2
f 6/7/1 7/8/1 5/9/1
f 8/10/3 9/11/3 7/12/3
f 10/13/4 2/14/4 9/15/4
f 11/16/5 13/17/5 12/18/5
f 14/19/6 12/20/6 5/21/6
f 15/22/7 5/9/7 7/8/7
f 16/23/8 7/24/8 17/25/8
f 18/26/7 17/27/7 13/28/7
f 19/29/9 21/30/9 20/31/9
f 22/32/10 23/33/10 21/34/10
f 24/35/9 2/36/9 23/37/9
f 25/38/11 9/15/11 2/14/11
f 26/39/12 20/40/12 9/41/12
f 27/42/13 29/43/13 28/44/13
f 30/45/14 28/46/14 23/47/14
f 31/48/15 23/37/15 2/36/15
f 32/49/16 2/3/16 3/2/16
f 33/50/15 3/51/15 29/52/15
f 34/53/17 17/54/17 35/55/17
f 36/56/18 13/28/18 17/27/18
f 37/57/17 38/58/17 13/59/17
f 39/60/19 40/61/19 38/62/19
f 41/63/20 35/64/20 40/65/20
f 42/66/21 43/67/21 12/68/21
f 44/69/22 12/18/22 13/17/22
f 45/70/23 13/59/23 38/58/23
f 46/71/24 38/72/24 47/73/24
f 48/74/23 47/75/23 43/76/23
f 49/77/25 21/78/25 50/79/25
f 51/80/26 20/31/26 21/30/26
f 52/81/25 35/82/25 20/83/25
f 53/84/27 40/65/27 35/64/27
f 54/85/28 50/86/28 40/87/28
f 55/88/29 7/12/29 9/11/29
f 56/89/30 9/41/30 20/40/30
f 57/90/31 20/83/31 35/82/31
f 58/91/32 35/55/32 17/54/32
f 59/92/31 17/25/31 7/24/31
f 60/93/33 47/94/33 61/95/33
f 62/96/34 43/76/34 47/75/34
f 63/97/33 29/98/33 43/99/33
f 64/100/35 28/44/35 29/43/35
f 65/101/36 61/102/36 28/103/36
f 66/104/37 5/21/37 12/20/37
f 67/105/38 12/68/38 43/67/38
f 68/106/39 43/99/39 29/98/39
f 69/107/40 29/52/40 3/51/40
f 70/108/39 3/6/39 5/5/39
f 71/109/41 47/73/41 38/72/41
f 72/110/42 61/95/42 47/94/42
f 73/111/41 50/112/41 61/113/41
f 74/114/43 40/87/43 50/86/43
f 75/115/44 38/62/44 40/61/44
f 76/116/45 23/47/45 28/46/45
f 77/117/46 28/103/46 61/102/46
f 78/118/47 61/113/47 50/112/47
f 79/119/48 50/79/48 21/78/48
f 80/120/47 21/34/47 23/33/47
o arnaerts.001
v 0.236100 1.000000 1.000000
v 0.000000 1.618000 0.618000
v -1.000000 1.000000 1.000000
v -0.236100 1.000000 1.000000
v -0.618000 -0.000000 1.618000
v -0.382000 0.618000 1.236000
v 0.618000 -0.000000 1.618000
v 0.000000 0.382000 1.382000
v 1.000000 1.000000 1.000000
v 0.382000 0.618000 1.236000
v -0.382000 -0.618000 1.236000
v -1.000000 -1.000000 1.000000
v 0.000000 -1.618000 0.618000
v 0.000000 -0.382000 1.382000
v 0.382000 -0.618000 1.236000
v 0.236100 -1.000000 1.000000
v 1.000000 -1.000000 1.000000
v -0.236100 -1.000000 1.000000
v 1.000000 1.000000 0.236100
v 1.618000 0.618000 0.000000
v 1.000000 1.000000 -1.000000
v 1.000000 1.000000 -0.236100
v 0.000000 1.618000 -0.618000
v 0.618000 1.236000 -0.382000
v 0.382000 1.382000 0.000000
v 0.618000 1.236000 0.382000
v -0.618000 1.236000 -0.382000
v -1.000000 1.000000 -1.000000
v -1.618000 0.618000 0.000000
v -0.382000 1.382000 0.000000
v -0.618000 1.236000 0.382000
v -1.000000 1.000000 0.236100
v -1.000000 1.000000 -0.236100
v 1.000000 -1.000000 -0.236100
v 1.618000 -0.618000 -0.000000
v 1.000000 -1.000000 0.236100
v 0.618000 -1.236000 0.382000
v 0.000000 -1.618000 -0.618000
v 0.382000 -1.382000 -0.000000
v 1.000000 -1.000000 -1.000000
v 0.618000 -1.236000 -0.382000
v -0.618000 -1.236000 0.382000
v -1.618000 -0.618000 -0.000000
v -0.382000 -1.382000 -0.000000
v -0.618000 -1.236000 -0.382000
v -1.000000 -1.000000 -0.236100
v -1.000000 -1.000000 -1.000000
v -1.000000 -1.000000 0.236100
v 1.000000 -0.236100 -1.000000
v 0.618000 0.000000 -1.618000
v 1.000000 0.236100 -1.000000
v 1.236000 0.382000 -0.618000
v 1.382000 0.000000 -0.382000
v 1.236000 -0.382000 -0.618000
v 1.236000 0.382000 0.618000
v 1.382000 -0.000000 0.382000
v 1.236000 -0.382000 0.618000
v 1.000000 -0.236100 1.000000
v 1.000000 0.236100 1.000000
v -1.000000 0.236100 -1.000000
v -0.618000 0.000000 -1.618000
v -1.000000 -0.236100 -1.000000
v -1.236000 -0.382000 -0.618000
v -1.382000 0.000000 -0.382000
v -1.236000 0.382000 -0.618000
v -1.236000 -0.382000 0.618000
v -1.382000 -0.000000 0.382000
v -1.236000 0.382000 0.618000
v -1.000000 0.236100 1.000000
v -1.000000 -0.236100 1.000000
v 0.236100 -1.000000 -1.000000
v -0.236100 -1.000000 -1.000000
v -0.382000 -0.618000 -1.236000
v 0.000000 -0.382000 -1.382000
v 0.382000 -0.618000 -1.236000
v -0.382000 0.618000 -1.236000
v 0.000000 0.382000 -1.382000
v 0.382000 0.618000 -1.236000
v 0.236100 1.000000 -1.000000
v -0.236100 1.000000 -1.000000
vt 0.200982 0.399728
vt 0.168816 0.498709
vt 0.032579 0.399728
vt 0.300807 0.200982
vt 0.201827 0.168826
vt 0.300808 0.032588
vt 0.403232 0.700103
vt 0.435399 0.601127
vt 0.571630 0.700103
vt 0.604643 0.600285
vt 0.636802 0.501306
vt 0.773041 0.600285
vt 0.503058 0.500461
vt 0.535217 0.401482
vt 0.671456 0.500461
vt 0.799932 0.200988
vt 0.700953 0.168829
vt 0.799932 0.032590
vt 0.899756 0.200988
vt 0.800777 0.168829
vt 0.899756 0.032590
vt 0.603797 0.601127
vt 0.301655 0.000423
vt 0.400634 0.032579
vt 0.301654 0.168816
vt 0.000423 0.299056
vt 0.032588 0.200075
vt 0.168826 0.299056
vt 0.600287 0.200982
vt 0.501306 0.168816
vt 0.600287 0.032579
vt 0.500459 0.200982
vt 0.401480 0.168826
vt 0.500461 0.032588
vt 0.200988 0.499554
vt 0.168821 0.598530
vt 0.032590 0.499554
vt 0.703615 0.401482
vt 0.603789 0.700949
vt 0.571630 0.799927
vt 0.435391 0.700949
vt 0.099401 0.999577
vt 0.000423 0.967418
vt 0.099401 0.831179
vt 0.803447 0.500458
vt 0.704469 0.468299
vt 0.803447 0.332060
vt 0.000423 0.598530
vt 0.000423 0.498707
vt 0.402387 0.399728
vt 0.370221 0.498709
vt 0.233984 0.399728
vt 0.403232 0.299902
vt 0.502213 0.332067
vt 0.403232 0.468305
vt 0.200982 0.200077
vt 0.700108 0.200988
vt 0.601132 0.168821
vt 0.700108 0.032590
vt 0.000423 0.798175
vt 0.032582 0.699197
vt 0.168821 0.798175
vt 0.806036 0.700949
vt 0.905015 0.733108
vt 0.806036 0.869347
vt 0.604634 0.799927
vt 0.636793 0.700949
vt 0.773032 0.799927
vt 0.700954 0.000431
vt 0.601132 0.000423
vt 0.000423 0.199228
vt 0.032579 0.100249
vt 0.168816 0.199230
vt 0.201827 0.398882
vt 0.233993 0.299902
vt 0.370231 0.398882
vt 0.000423 0.099403
vt 0.032588 0.000423
vt 0.168826 0.099404
vt 0.501307 0.000423
vt 0.603797 0.501306
vt 0.571630 0.600282
vt 0.435399 0.501306
vt 0.905015 0.901505
vt 0.903271 0.500458
vt 0.804293 0.468299
vt 0.903271 0.332060
vt 0.805199 0.501306
vt 0.403232 0.799927
vt 0.403232 0.600282
vt 0.502212 0.500461
vt 0.400634 0.200982
vt 0.200982 0.299902
vt 0.168816 0.398882
vt 0.032579 0.299902
vt 0.402387 0.299903
vt 0.000423 0.698351
vt 0.032590 0.599375
vt 0.168821 0.698351
vt 0.000423 0.799021
vt 0.201825 0.798175
vt 0.233984 0.699197
vt 0.370223 0.798175
vt 0.800778 0.000431
vt 0.805191 0.700949
vt 0.200988 0.599375
vt 0.201827 0.498707
vt 0.201827 0.000423
vt 0.200982 0.100249
vt 0.000423 0.398881
vt 0.503058 0.398877
vt 0.535226 0.299902
vt 0.671456 0.398877
vt 0.804293 0.299902
vt 0.200979 0.699197
vt 0.704469 0.299902
vt 0.402382 0.699197
vt 0.703623 0.299902
vt 0.200982 0.000424
vt 0.401480 0.000423
vn 0.000000 0.525800 0.850600
vn 0.000000 0.525700 0.850700
vn 0.000100 0.525700 0.850700
vn -0.000100 0.525700 0.850700
vn 0.000100 -0.525700 0.850700
vn -0.000100 -0.525700 0.850700
vn 0.000000 -0.525800 0.850600
vn 0.000000 -0.525700 0.850700
vn 0.525800 0.850600 0.000000
vn 0.525700 0.850700 0.000000
vn 0.525700 0.850700 0.000100
vn 0.525700 0.850700 -0.000100
vn -0.525700 0.850700 0.000100
vn -0.525700 0.850700 -0.000100
vn -0.525800 0.850600 0.000000
vn -0.525700 0.850700 0.000000
vn 0.525800 -0.850600 -0.000000
vn 0.525700 -0.850700 -0.000000
vn 0.525700 -0.850700 -0.000100
vn 0.525700 -0.850700 0.000100
vn -0.525700 -0.850700 -0.000100
vn -0.525700 -0.850700 0.000100
vn -0.525800 -0.850600 -0.000000
vn -0.525700 -0.850700 0.000000
vn 0.850600 0.000000 -0.525800
vn 0.850700 0.000000 -0.525700
vn 0.850700 -0.000100 -0.525700
vn 0.850700 0.000100 -0.525700
vn 0.850700 -0.000100 0.525700
vn 0.850700 0.000100 0.525700
vn 0.850600 0.000000 0.525800
vn 0.850700 0.000000 0.525700
vn -0.850600 0.000000 -0.525800
vn -0.850700 0.000000 -0.525700
vn -0.850700 0.000100 -0.525700
vn -0.850700 -0.000100 -0.525700
vn -0.850700 0.000100 0.525700
vn -0.850700 -0.000100 0.525700
vn -0.850600 0.000000 0.525800
vn -0.850700 0.000000 0.525700
vn 0.000000 -0.525800 -0.850600
vn 0.000000 -0.525700 -0.850700
vn 0.000100 -0.525700 -0.850700
vn -0.000100 -0.525700 -0.850700
vn 0.000100 0.525700 -0.850700
vn -0.000100 0.525700 -0.850700
vn 0.000000 0.525800 -0.850600
vn 0.000000 0.525700 -0.850700
usemtl None.001
s off
f 81/121/49 82/122/49 83/123/49
f 84/124/50 83/125/50 85/126/50
f 86/127/49 85/128/49 87/129/49
f 88/130/51 87/131/51 89/132/51
f 90/133/52 89/134/52 82/135/52
f 91/136/53 92/137/53 93/138/53
f 94/139/54 85/140/54 92/141/54
f 95/142/55 87/129/55 85/128/55
f 96/143/56 97/144/56 87/145/56
f 98/146/55 93/147/55 97/148/55
f 99/149/57 100/150/57 101/151/57
f 102/152/58 101/153/58 103/154/58
f 104/155/57 103/156/57 82/157/57
f 105/158/59 82/135/59 89/134/59
f 106/159/60 89/160/60 100/161/60
f 107/162/61 108/163/61 109/164/61
f 110/165/62 103/166/62 108/167/62
f 111/168/63 82/157/63 103/156/63
f 112/169/64 83/123/64 82/122/64
f 113/170/63 109/171/63 83/172/63
f 114/173/65 115/174/65 97/175/65
f 116/176/66 97/148/66 93/147/66
f 117/177/65 93/178/65 118/179/65
f 119/180/67 118/181/67 120/182/67
f 121/183/68 120/184/68 115/185/68
f 122/186/69 92/187/69 123/188/69
f 124/189/70 93/138/70 92/137/70
f 125/190/71 118/179/71 93/178/71
f 126/191/72 127/192/72 118/193/72
f 128/194/71 123/195/71 127/196/71
f 129/197/73 130/198/73 101/199/73
f 131/200/74 101/151/74 100/150/74
f 132/201/73 100/202/73 115/203/73
f 133/204/75 115/185/75 120/184/75
f 134/205/76 120/206/76 130/207/76
f 135/208/77 89/132/77 87/131/77
f 136/209/78 100/161/78 89/160/78
f 137/210/79 115/203/79 100/202/79
f 138/211/80 97/175/80 115/174/80
f 139/212/79 87/145/79 97/144/79
f 140/213/81 141/214/81 127/215/81
f 142/216/82 127/196/82 123/195/82
f 143/217/81 123/218/81 109/219/81
f 144/220/83 109/164/83 108/163/83
f 145/221/84 108/222/84 141/223/84
f 146/224/85 92/141/85 85/140/85
f 147/225/86 123/188/86 92/187/86
f 148/226/87 109/219/87 123/218/87
f 149/227/88 83/172/88 109/171/88
f 150/228/87 85/126/87 83/125/87
f 151/229/89 118/193/89 127/192/89
f 152/230/90 127/215/90 141/214/90
f 153/231/89 141/232/89 130/233/89
f 154/234/91 130/207/91 120/206/91
f 155/235/92 120/182/92 118/181/92
f 156/236/93 108/167/93 103/166/93
f 157/237/94 141/223/94 108/222/94
f 158/238/95 130/233/95 141/232/95
f 159/239/96 101/199/96 130/198/96
f 160/240/95 103/154/95 101/153/95
