# Blender v2.69 (sub 0) OBJ File: ''
# www.blender.org
o t236
v 0.900000 0.300000 0.300000
v 0.300000 0.300000 0.900000
v 0.300000 0.900000 0.300000
v 0.900000 -0.300000 -0.300000
v 0.300000 -0.300000 -0.900000
v 0.300000 -0.900000 -0.300000
v -0.300000 -0.300000 0.900000
v -0.300000 -0.900000 0.300000
v -0.900000 -0.300000 0.300000
v -0.900000 0.300000 -0.300000
v -0.300000 0.300000 -0.900000
v -0.300000 0.900000 -0.300000
vn 0.577350 0.577350 0.577350
vn 0.577350 -0.577350 -0.577350
vn -0.577350 -0.577350 0.577350
vn -0.577350 0.577350 -0.577350
vn 0.577350 0.577350 -0.577350
vn -0.577350 0.577350 0.577350
vn 0.577350 -0.577350 0.577350
vn -0.577350 -0.577350 -0.577350
s off
f 1//1 3//1 2//1
f 4//2 6//2 5//2
f 7//3 9//3 8//3
f 10//4 12//4 11//4
f 12//5 3//5 1//5
f 12//6 10//6 3//6
f 6//7 4//7 8//7
f 10//8 11//8 5//8
f 12//5 1//5 4//5
f 11//5 12//5 5//5
f 12//5 4//5 5//5
f 10//6 9//6 3//6
f 9//6 7//6 3//6
f 7//6 2//6 3//6
f 4//7 1//7 8//7
f 1//7 2//7 8//7
f 2//7 7//7 8//7
f 9//8 10//8 5//8
f 8//8 9//8 6//8
f 9//8 5//8 6//8
