# Blender v2.69 (sub 0) OBJ File: ''
# www.blender.org
o tetra
v 0.400000 0.700000 0.600000
v 0.600000 0.700000 0.400000
v 0.700000 0.600000 0.400000
v 0.700000 0.400000 0.600000
v 0.600000 0.400000 0.700000
v 0.400000 0.600000 0.700000
v -0.400000 0.700000 -0.600000
v -0.600000 0.700000 -0.400000
v -0.700000 0.600000 -0.400000
v -0.700000 0.400000 -0.600000
v -0.600000 0.400000 -0.700000
v -0.400000 0.600000 -0.700000
v 0.700000 -0.600000 -0.400000
v 0.700000 -0.400000 -0.600000
v 0.600000 -0.400000 -0.700000
v 0.400000 -0.600000 -0.700000
v 0.400000 -0.700000 -0.600000
v 0.600000 -0.700000 -0.400000
v -0.600000 -0.400000 0.700000
v -0.400000 -0.600000 0.700000
v -0.400000 -0.700000 0.600000
v -0.600000 -0.700000 0.400000
v -0.700000 -0.600000 0.400000
v -0.700000 -0.400000 0.600000
vn 1.000000 0.000000 0.000000
vn -0.000000 -0.000000 1.000000
vn -0.000000 1.000000 0.000000
vn -0.000000 0.000000 -1.000000
vn -0.000000 -1.000000 -0.000000
vn -1.000000 -0.000000 0.000000
vn -0.577350 0.577350 0.577350
vn -0.577350 -0.577350 0.577350
vn 0.577350 -0.577351 0.577350
vn 0.577350 0.577350 -0.577350
vn 0.577350 0.577350 0.577350
vn 0.577351 -0.577350 -0.577350
vn -0.577350 -0.577350 -0.577350
vn -0.577350 0.577350 -0.577350
vn -0.577350 0.577350 0.577351
vn -0.577350 -0.577351 0.577350
vn 0.577350 -0.577350 0.577350
vn 0.577351 0.577350 0.577350
vn 0.577350 -0.577350 -0.577350
vn -0.577351 0.577350 -0.577350
s off
f 3//1 4//1 14//1
f 5//2 6//2 20//2
f 1//3 2//3 8//3
f 15//4 16//4 12//4
f 21//5 22//5 18//5
f 9//6 10//6 24//6
f 24//7 19//7 6//7
f 20//8 22//8 21//8
f 4//9 5//9 20//9
f 7//10 2//10 12//10
f 1//11 6//11 5//11
f 15//12 17//12 16//12
f 17//13 22//13 16//13
f 12//14 8//14 7//14
f 4//1 13//1 14//1
f 6//2 19//2 20//2
f 2//3 7//3 8//3
f 16//4 11//4 12//4
f 22//5 17//5 18//5
f 10//6 23//6 24//6
f 9//7 24//7 6//7
f 8//15 9//15 1//15
f 9//7 6//7 1//7
f 19//16 22//16 20//16
f 24//8 23//8 19//8
f 23//8 22//8 19//8
f 13//17 4//17 20//17
f 18//17 13//17 21//17
f 13//17 20//17 21//17
f 12//10 2//10 15//10
f 2//10 3//10 15//10
f 3//10 14//10 15//10
f 2//11 1//11 5//11
f 3//18 2//18 4//18
f 2//11 5//11 4//11
f 18//19 17//19 15//19
f 13//12 18//12 14//12
f 18//19 15//19 14//19
f 16//13 22//13 11//13
f 22//13 23//13 11//13
f 23//13 10//13 11//13
f 12//14 11//14 8//14
f 11//14 10//14 8//14
f 10//20 9//20 8//20
