# Blender v2.69 (sub 0) OBJ File: ''
# www.blender.org
o teta
v 0.400000 0.700000 0.600000
v 0.600000 0.700000 0.400000
v 0.700000 0.600000 0.400000
v 0.700000 0.400000 0.600000
v 0.600000 0.400000 0.700000
v 0.400000 0.600000 0.700000
v -0.400000 0.700000 -0.600000
v -0.600000 0.700000 -0.400000
v -0.700000 0.600000 -0.400000
v -0.700000 0.400000 -0.600000
v -0.600000 0.400000 -0.700000
v -0.400000 0.600000 -0.700000
v 0.700000 -0.600000 -0.400000
v 0.700000 -0.400000 -0.600000
v 0.600000 -0.400000 -0.700000
v 0.400000 -0.600000 -0.700000
v 0.400000 -0.700000 -0.600000
v 0.600000 -0.700000 -0.400000
v -0.600000 -0.400000 0.700000
v -0.400000 -0.600000 0.700000
v -0.400000 -0.700000 0.600000
v -0.600000 -0.700000 0.400000
v -0.700000 -0.600000 0.400000
v -0.700000 -0.400000 0.600000
vn -1.000000 -0.000000 0.000000
vn 0.000000 0.000000 -1.000000
vn 0.000000 -1.000000 -0.000000
vn 0.000000 -0.000000 1.000000
vn 0.000000 1.000000 0.000000
vn 1.000000 -0.000000 0.000000
vn 0.577350 0.577350 -0.577350
vn -0.577350 0.577350 0.577350
vn 0.577350 -0.577350 0.577350
vn -0.577350 -0.577350 -0.577350
s off
f 3//1 14//1 4//1
f 5//2 20//2 6//2
f 1//3 8//3 2//3
f 15//4 12//4 16//4
f 21//5 18//5 22//5
f 9//6 24//6 10//6
f 22//7 20//7 21//7
f 16//8 17//8 15//8
f 12//9 7//9 8//9
f 5//10 6//10 1//10
f 14//1 13//1 4//1
f 20//2 19//2 6//2
f 8//3 7//3 2//3
f 12//4 11//4 16//4
f 18//5 17//5 22//5
f 24//6 23//6 10//6
f 19//7 20//7 22//7
f 24//7 19//7 23//7
f 19//7 22//7 23//7
f 17//8 18//8 15//8
f 18//8 13//8 15//8
f 13//8 14//8 15//8
f 11//9 12//9 8//9
f 10//9 11//9 9//9
f 11//9 8//9 9//9
f 5//10 1//10 2//10
f 4//10 5//10 3//10
f 5//10 2//10 3//10
o teta.001
v 0.400000 0.700000 0.600000
v 0.600000 0.700000 0.400000
v 0.700000 0.600000 0.400000
v 0.700000 0.400000 0.600000
v 0.600000 0.400000 0.700000
v 0.400000 0.600000 0.700000
v -0.400000 0.700000 -0.600000
v -0.600000 0.700000 -0.400000
v -0.700000 0.600000 -0.400000
v -0.700000 0.400000 -0.600000
v -0.600000 0.400000 -0.700000
v -0.400000 0.600000 -0.700000
v 0.700000 -0.600000 -0.400000
v 0.700000 -0.400000 -0.600000
v 0.600000 -0.400000 -0.700000
v 0.400000 -0.600000 -0.700000
v 0.400000 -0.700000 -0.600000
v 0.600000 -0.700000 -0.400000
v -0.600000 -0.400000 0.700000
v -0.400000 -0.600000 0.700000
v -0.400000 -0.700000 0.600000
v -0.600000 -0.700000 0.400000
v -0.700000 -0.600000 0.400000
v -0.700000 -0.400000 0.600000
vn 1.000000 0.000000 0.000000
vn -0.000000 -0.000000 1.000000
vn -0.000000 1.000000 0.000000
vn -0.000000 0.000000 -1.000000
vn -0.000000 -1.000000 -0.000000
vn -1.000000 -0.000000 0.000000
vn -0.577350 -0.577350 0.577350
vn 0.577350 -0.577350 -0.577350
vn -0.577350 0.577350 -0.577350
vn 0.577351 0.577350 0.577350
vn -0.577350 -0.577351 0.577350
vn -0.577351 0.577350 -0.577350
vn 0.577350 0.577350 0.577350
s off
f 27//11 28//11 38//11
f 29//12 30//12 44//12
f 25//13 26//13 32//13
f 39//14 40//14 36//14
f 45//15 46//15 42//15
f 33//16 34//16 48//16
f 44//17 46//17 45//17
f 40//18 39//18 41//18
f 31//19 36//19 32//19
f 29//20 25//20 30//20
f 28//11 37//11 38//11
f 30//12 43//12 44//12
f 26//13 31//13 32//13
f 40//14 35//14 36//14
f 46//15 41//15 42//15
f 34//16 47//16 48//16
f 43//21 46//21 44//21
f 48//17 47//17 43//17
f 47//17 46//17 43//17
f 41//18 39//18 42//18
f 39//18 38//18 42//18
f 38//18 37//18 42//18
f 36//19 35//19 32//19
f 35//19 34//19 32//19
f 34//22 33//22 32//22
f 29//23 26//23 25//23
f 28//23 27//23 29//23
f 27//23 26//23 29//23
