# Blender v2.69 (sub 0) OBJ File: ''
# www.blender.org
o tetb
v -0.700000 0.400000 -0.600000
v -0.600000 0.400000 -0.700000
v 0.400000 -0.600000 -0.700000
v 0.400000 -0.700000 -0.600000
v -0.600000 -0.700000 0.400000
v -0.700000 -0.600000 0.400000
v -0.400000 0.700000 -0.600000
v 0.600000 0.700000 0.400000
v 0.700000 0.600000 0.400000
v 0.700000 -0.400000 -0.600000
v 0.600000 -0.400000 -0.700000
v -0.400000 0.600000 -0.700000
v 0.700000 -0.600000 -0.400000
v 0.700000 0.400000 0.600000
v 0.600000 0.400000 0.700000
v -0.400000 -0.600000 0.700000
v -0.400000 -0.700000 0.600000
v 0.600000 -0.700000 -0.400000
v -0.600000 -0.400000 0.700000
v 0.400000 0.600000 0.700000
v 0.400000 0.700000 0.600000
v -0.600000 0.700000 -0.400000
v -0.700000 0.600000 -0.400000
v -0.700000 -0.400000 0.600000
vn -1.000000 -0.000000 0.000000
vn 0.000000 0.000000 -1.000000
vn 0.000000 -1.000000 -0.000000
vn 0.000000 -0.000000 1.000000
vn 0.000000 1.000000 0.000000
vn 1.000000 -0.000000 0.000000
vn 0.577350 0.577350 0.577350
vn -0.577350 -0.577350 0.577350
vn 0.577350 -0.577350 -0.577350
vn -0.577350 0.577350 -0.577350
s off
f 9//1 10//1 14//1
f 15//2 16//2 20//2
f 21//3 22//3 8//3
f 11//4 12//4 3//4
f 17//5 18//5 5//5
f 23//6 24//6 1//6
f 4//7 3//7 5//7
f 7//8 12//8 8//8
f 20//9 19//9 21//9
f 13//10 18//10 17//10
f 10//1 13//1 14//1
f 16//2 19//2 20//2
f 22//3 7//3 8//3
f 12//4 2//4 3//4
f 18//5 4//5 5//5
f 24//6 6//6 1//6
f 3//7 2//7 5//7
f 2//7 1//7 5//7
f 1//7 6//7 5//7
f 12//8 11//8 8//8
f 11//8 10//8 8//8
f 10//8 9//8 8//8
f 21//9 19//9 22//9
f 19//9 24//9 22//9
f 24//9 23//9 22//9
f 14//10 13//10 17//10
f 15//10 14//10 16//10
f 14//10 17//10 16//10
o tetb.001
v -0.700000 0.400000 -0.600000
v -0.600000 0.400000 -0.700000
v 0.400000 -0.600000 -0.700000
v 0.400000 -0.700000 -0.600000
v -0.600000 -0.700000 0.400000
v -0.700000 -0.600000 0.400000
v -0.400000 0.700000 -0.600000
v 0.600000 0.700000 0.400000
v 0.700000 0.600000 0.400000
v 0.700000 -0.400000 -0.600000
v 0.600000 -0.400000 -0.700000
v -0.400000 0.600000 -0.700000
v 0.700000 -0.600000 -0.400000
v 0.700000 0.400000 0.600000
v 0.600000 0.400000 0.700000
v -0.400000 -0.600000 0.700000
v -0.400000 -0.700000 0.600000
v 0.600000 -0.700000 -0.400000
v -0.600000 -0.400000 0.700000
v 0.400000 0.600000 0.700000
v 0.400000 0.700000 0.600000
v -0.600000 0.700000 -0.400000
v -0.700000 0.600000 -0.400000
v -0.700000 -0.400000 0.600000
vn 1.000000 0.000000 0.000000
vn -0.000000 -0.000000 1.000000
vn -0.000000 1.000000 0.000000
vn -0.000000 0.000000 -1.000000
vn -0.000000 -1.000000 -0.000000
vn -1.000000 -0.000000 0.000000
vn -0.577350 -0.577350 -0.577350
vn 0.577350 0.577350 -0.577350
vn -0.577350 0.577350 0.577350
vn 0.577350 -0.577351 0.577350
vn 0.577350 -0.577350 0.577350
s off
f 33//11 38//11 34//11
f 39//12 44//12 40//12
f 45//13 32//13 46//13
f 35//14 27//14 36//14
f 41//15 29//15 42//15
f 47//16 25//16 48//16
f 28//17 29//17 27//17
f 31//18 32//18 36//18
f 44//19 45//19 43//19
f 38//20 39//20 40//20
f 38//11 37//11 34//11
f 44//12 43//12 40//12
f 32//13 31//13 46//13
f 27//14 26//14 36//14
f 29//15 28//15 42//15
f 25//16 30//16 48//16
f 27//17 29//17 26//17
f 29//17 30//17 26//17
f 30//17 25//17 26//17
f 36//18 32//18 35//18
f 32//18 33//18 35//18
f 33//18 34//18 35//18
f 45//19 46//19 43//19
f 46//19 47//19 43//19
f 47//19 48//19 43//19
f 37//21 38//21 40//21
f 42//21 37//21 41//21
f 37//21 40//21 41//21
